<mxfile host="65bd71144e">
    <diagram id="57XPFgqrbQzXJSCQhQIm" name="Page-1">
        <mxGraphModel dx="1241" dy="1003" grid="0" gridSize="10" guides="1" tooltips="1" connect="1" arrows="1" fold="1" page="1" pageScale="1" pageWidth="1169" pageHeight="827" math="0" shadow="0">
            <root>
                <mxCell id="0"/>
                <mxCell id="1" parent="0"/>
                <mxCell id="2" value="" style="shape=image;verticalLabelPosition=bottom;labelBackgroundColor=default;verticalAlign=top;aspect=fixed;imageAspect=0;image=data:image/png,iVBORw0KGgoAAAANSUhEUgAABKsAAASwCAYAAAA0b8nQAAAAAXNSR0IArs4c6QAAAARzQklUCAgICHwIZIgAACAASURBVHic7N15eJxlvf/x9zN79jRtliZNukGB0pYChVLWlgIKKooePXqOKC78jiIqIqjAUSsu5xxcUI87KLiLHGRVKLZlh1ILFIS20Dbpli7Z90wyM8/9++POJJNMWtpknrRNP6/rmgOZZ/Lc93jGua58/H6/t2OMMYiIiIiIiIiIiBwGfId6AyIiIiIiIiIiIkkKq0RERERERERE5LChsEpERERERERERA4bCqtEREREREREROSwobBKREREREREREQOGwqrRERERERERETksKGwSkREREREREREDhsKq0RERERERERE5LChsEpERERERERERA4bCqtEREREREREROSwobBKREREREREREQOGwqrRERERERERETksKGwSkREREREREREDhuBQ70BEZH9M3R1NLP6iYd5aPlyNm7eS1Z2Aaecez7vfMc7mTN98qHe4EHp6e7kn2uf4MGHH+SFf9bg80WYfepCLr3sfZw5d+ah3p6IiIiIiMghp8oqETlsmUSM2o3/4DP/finvuvyzrFlfz+TJFURCCf78i29zydvfyZ1/W3Oot3mAXBr2bOZb11/BW97xb9z/xAZKiisoyMvmyYd+z7sueStf/dk99B7qbYqIiIiIiBxiqqwSkcOUoX5XNd/5yvUsfz3G7fes4LIl8wkCxk1Qt/01vvvlL3Dz9V9g5jH3cM6siYd6w/vV1rCHP/3wG/z03rV88X//yFXvv5DcYAAwtDbu5Nc/uJn/+e+bmDpjFh+9aO6h3q6IiIiIiMgho8oqETksxbraePWZh3noHzu55uu38r6+oArA8fkpnXoCn/ryMi6YX872bTsP6V7fjBuPsuONNfz+3id49ye/whcuv7gvqAJwKJhYyfuuvJGPvm0Re2u2HtK9ioiIiIiIHGqqrBIRz/US5w0a+DtbeIjNuBjA6btqyMLhdKqYTynTKGI+ZXS0tbD2mSfJqjqVSy9YmH5TJ8jUWWfwi9+fMZZvZUSiHa38c/VTNPhKedelFw/7mrLK6Xz9x3eM8c5EREREREQOPwqrRMQzbUS5jw3cxlpeZg/tdLCvgs6H2QBAhFwWUcn7ovnU7GyiYvqZTJ7gB8AYQyLeS0d7JwnAwcHn8xEMh8nJiozRuzp4vT297N5ZR15xJdMrivueNSQScTraO4gnDI4DPp8PfzBETnY2Pme/txQRERERERm3FFaJSMa1EuUvrOdnrGEN2wEDBIHsN/lNQ5ReHuMNnqCJCTSwBJdIXyGWiXWx8dkH+dBHrqGm3SUc8BHJK+Idl1/LrV/5+OH/hWaMfQCYODu3/INPf+hjPL6xjpxIkEAkhwUX/Ts/++HNlB6+2ZuIiIiIiIinDvu/7UTkyGGAHbTyeR7m/3gJ8AMhBlr+3ozT9zt+TCSPrsoQL214lms7/8pXcs9nYiBM5YlnccuPb6MzDi31O7nrzl+wu6HFo3eUGaFwiPKqUjpXrWF3YxvHTSoC/EyafBxf+Ob3+Uh7lJ72Rpbf+1s27q0nYQ71jkVERERERA4dhVUikhHdxHmcGq7nYV5jL5DF4JDKAC4QBxLD3MGP/UryAw6mIIvE2ZW0/HUttz1yDzv+Jc7tvrcwsbiSCy6pBGDP9k288ti9VCdcT9/baGXlFjB34blMuu1+7rrnARbfeAU4PnLyJnL20rcA0Fa/k7Ytz7L+heH+sxERERERETl6KKwSkYzYTgvX8jc2shPITblisOFUjFzyOJUZLGZaf4yVwNBDgrXsZC07aKMTCEFWgPiZM4mfton8G57gkfwgHz2/h9sD76HYOHS21vP0Y8tZuXozs94x/NDyw4UTiDDl2AX8+7vO5qs/+iqVZZO4+gMXkp8VBgzR7nZeXPM0//e352DyEgKaVyUiIiIiIkcxxxijhhMRGTGDYSdtfJ7l3M3L2La/gasQZyI5fJiT+AQLOZaJKdcgWX2VwKWaJm5lNXfxCk10QSKMf8te8m56guCju+k9qZgF02dTEQ2yceOL1OzpYMlll/PF6z7DKcdUjN2bHsp1IRaDcHh/L6Jx73Z++l9f46d33kfhzOM4cc4sgrEedm19nfWbajnx7Iv5wpe+xEULZ+9jDL2IiIiIiMj4p7BKREalnR7+wCt8gnuAMAOn/bn4iHMck/gBl3IuU9lCI8+zgwfZwuvU0Umc6RQwlzLOZzpTKGAepTzDdj7CPWyjCciBrijBZ3cQfmQr/s2NzI/M4OxTLuKtF1/AornH4R/rN+260NoKNTVQWws7dkBPD+TlQXExHHMM5OTAtGlpvxqLdlP9yloe/NtKVr/yCsbno+qEU7ng4rdy3mknkxsc6zcjIiIiIiJyeFFYJSKjspkmPsDdrGUbNqwCcMnB4Z3M5RYuIoKfH7OG7/AE7TTgkE0u+ZSRzw5aidIDdFDMBD7PEq5iIf9kL+/nLnbQiD1FMAAYJhHkWhZzA6cdmjfc0wOvvgqPPQZbt0IkAgUFUFgIXV3Q2QkdHfb5s8+GM8+010REREREROSAKKwSkRGzVVX/5BPcCwSxLX229W82k3mYf6eeLr7Iw6zkNUoo4XLms5SZnEY5EQJ0E6OeLn7DK9zBP2ijnvOYxw0swQd8iLvZSiMQAQwOhpMo5gE+RCX5Y/dmjYHmZlixAtauhexsOPlkmDULpk+HYBASCRtYvf46PPccbNsGM2bA0qUwe/bY7VVEREREROQIprBKREZsJ21cx3Lu4gXs6X/2xL+ZFPIT3smxFPEx/sJqNnIhJ3Mz53MSZRgMCVwM4ODgw8HFsJ56buBRlrOehczgIS5nM418iUdYxRZs5ZYhAryV4/gZ76B00DB3D3V0wKpV8PjjcPzxNoCaOXPfr29vt9VXa9bYyqsPfxhKSsZmryIiIiIiIkcwzfAVkRExGJqJ8hTbGThY1FCAn8uYw6lM5k5eZDWvcymncy//xlxK6SZGlDgxXOK4xEjQQ5w4CeZQzG28iw+zgFfZzDIeZw4lXMUiAoQAF3CI4vIi1ayhdmzebCwG1dXw/PM2qPrwh/cfVIGdX3XRRXDxxVBfDytX2uosERERERER2S+FVSIyIh308jzb2UszyXlSDlDFRD7KyTzHDn7Kao6hghs5FzD0EN/n/QzQQ4IiInySM5hCBfeylod4g9Oo4GJmAbG+Vzu0EGMF1STwOAByXairsxVVOTlw/vlvcupfikgE5syBuXNh/XpYvdrbvYqIiIiIiIwDCqtEZERaiPIIW0iQIDmrqgA/b+MEysjlNXaToJ3LmM8cSvYbVCWZvsexTORKTqGNLp6nliKyeCfHYb+ybPNgO/AMO2kh6uG7xIZVbW02sDr+eHvS38HIzYUzzgCfzw5kFxERERERkf1SWCUiI9JNnE00YYMqK4KfmRTSSg+PsZ0CClhM1QHf0+l7RPBzMhVEKGQttXTQy0lMZioTgTjgYDDU08SzbM/wOxuipwdqaiAQsIPUUxljZ1k9+ST86ldw332wa9fg1/j9UFQEkyfD3r22JVBERERERET2SWGViIyID4es/llVAAYXl27i9BBnG+3kMoGTKSOBe8D3dfseVRRyAiXspZkoMSaTyzlU9V21WoiygpqDuv9Bi8dtZVUkApWVg6/19MC6dfDAAwMnAP71r/ZEwFTJ321rg+5u7/YqIiIiIiIyDiisEpGDFiPBXjrYQzuprXk5ZDOTIhwcgvgwGGIHGSQlq6sMEMcF/Dg45BDiJMoYCKscOjG8Qh2p1V0Z5zi2OgpsS2CSMfbEv/XrIRSC7GwbSjU1pVdXGQOJhG0F9OlrV0REREREZH/0V5OIHLQAPiaSzQSySQZVAFF62EU7BkMvif7gaaTs7yZwMWQRYA7FFJAPJABw+1oBX2HPaN7O/hljq6uGO8kvFIKCgsHXolHYsiX9tY5jw65Ewru9ioiIiIiIjAMKq0TkoDk4+PHh66+Bslxc4rhkEWQWEzGYEZ/V52JwgXImkEeIAD5mUcw8ykidW1VHG6vwcHB5MAiTJtmZVakcxz58vsFhlTHp1VPG2Ed+PuTlebdXERERERGRcUBhlYiMiL+vNS+VC3TSSz5hzqGCJup4mM34D+KrJhl/vUgtr1PLAiopIpteEhQQ5nympVRrObSR4Em20nsApw2OSDgMVVV2DtVrrw3ZrGOrqxxn4GeAhoaB2VTJIeybNkFZmR22LiIiIiIiIvuksEpERqSQCG9lOqkzpFqJs4qt+HHIJ0IDvfyOdbTTQ+AAv24cHOro4jesA7opItL3POQQZBFVhMnuW9ehB9jIHjbQmPH32M/vt0HUK69Ac/PA81lZMGuWDbRcdyCsqqsbGLLe3W1/r64OcnK826OIiIiIiMg4obBKREYkjJ+pFBEmQrIVMIGhkXYa6eJtHM9lzGMt67mFZwngI4Bvv22BPqCLGH/kZVbwGos4kU9xGjESfb/nUEQW5eSRnFsFhm56qaZ5X7cdHb8fKirgnHOgthZWrRqy6ZSv0WQ7YCBg2wfjcdi+HZ5+2lZnLV7szR5FRERERETGEYVVIjIiOYRYQDnTmEhyhlQC2EEjT7ODUnL4NIsopJhf8gw/Yg29uGQRIDjkq8cBsgjSRZxf8RK38jRTmMiNnEc2Idz+iMtQQT6LqepfExya6WY5m1Nel2GRCJx0Ehx/PLz4og2sOjoG5lYNPSWwpwfq623r3/LlNvBaskTzqkRERERERA6Af9myZcsO9SZE5MgUx2UbzaxlGxAEDC6GHLK4jBMoIEIuER7lDR7lJdbRxCRyKCRCARGC+AniJ4bLE2zjRh7lf1lFNhE+y2L+hdn0pMyicoAQfrqIcx9vkAyrYhhiwLs4jjzCmX+jjmMrpQoLobraBla7d0N2tq2i2rMH2tttKAXQ2wvbtsHatTbUOussWLQo8/sSEREREREZhwJv/hIRkeGF8TOdIvz4+xr1HGK47KKVZrrIJcyVnMoCyrmB5dzPSzzES1RQwXwm91dCNdDBarYQJsaFzOVrLGUhUwYFVWCbDf34mEcpJ1DCBnYDIQyGBpp5nK18gLnevNlAAGbMgCuvhBUrbBC1cSOUlNggK9kO6Di2uqqhASZPhqVLbUWWiIiIiIiIHBCFVSIyYvmEOYsqgmSRoBfw0YthE3vZRDMLKKeXOAup4M98gDt4kaeo4Sl28gDrAB9+HCop5oMs4ERK+QxnECGQFlRBcjKWoZAsKslnA7X9V7rpYRNN3r5hx4EJE+DSS+G44+Cf/7SD0xsa7KmAMDC3asoU+Ld/g/x8b/ckIiIiIiIyziisEpERc/pO/TuOIl6mFvADDl3EeI06FlCOAbqJk0eI6zmba1jEHjrophdw8ANF5DCBLAyGGIlhgyq7nn0UEGYxU3mUDdgIy0c7hqfZQZQ4Ea+/2sJhmDcP5s6FxkZ46CF44w37fFIoZGddiYiIiIiIyEHRgHURGTEfDqXksITpwMCQ8VairKCaHuI4fc+5GLqJkcClgjxmMYlZTGQGE8klRDcxosT7z/3bFwNkEeBMplLGBJKnAsYw1LCXNf3VVmPAcezQ9DlzBtr/REREREREZFQUVonIqOQT5hymkhywbiur4EV2s5d2QkOqnAzQQ4Ju4nQTJ0qceErQdSAcHCaTx0Ry+tcEQyfdbKE5E29rdIyBaBTa2g71TkRERERERI44CqtEZFT8OBSTSyn5kNK+102UNzwKjgymLySrSlnToY0ET7LNkzX3yXHscPWhA9abmmDHjrHdi4iIiIiIyDigsEpERiWIn2kUcBZTsC15tvGvlU5WUkPiIKumDlQuIc5jGhGysC2IDt24/JNattHiyZrDCgbtMPWSEojF7HPJACsYHLt9iIiIiIiIjBMKq0Rk1AqI9M2tsu144NCO4Rl20EkvgQx/1RgghI95lDKTSSRDMhfYTQtPjGV1leOA328fqVwX2tvHbh8iIiIiIiLjhMIqERm1EH4qKSC3v8rJDlRvo5PttOH0j1nPHBdDIVmczmRS2w/b6OVpxrj9zhiIp5xg6Dj255oaDV0XERERERE5SAqrRGTUIgQ4kRJOoBQbHDkYDHU08yTbPAmrwJ4KeDzFQIBkRVcvhm0000y3J2sOKxiE0tL0YMrvt8GViIiIiIiIHDCFVSKSEQVEWMp06J9R5dBKoq8lz/UksMomyJlUMZF8kq2AvcAm9vAKezO+3j6FQlBenh5W9fTYUwFFRERERETkgCmsEpGMiOBnGhMIESJZ5RQH6mljL534MxxWGeypgJUUcAblpLYCttDFCmoyut6biscHwqrkiYC7d0Nt7djuQ0RERERE5AinsEpEMiKXEAuZQjY5JKuc4hi20cAGGvB79HVTSIQLmAH4SR3u/gTbxrYV0O+3JwCmSp4KKCIiIiIiIgdMf0WJSMbkEGQOk0itcuok7mlLXhAfUyhIqeiyqzfQQdNYhVXhMEyfDoWFgwetG2NbAUVEREREROSAKawSkYxwcJhINhcyY9B8qjZ6eZwaOunN+BeOAfw4zKOM2RQDMcABXJpp4bGxagV0HDtkfegw9e5u2LRpbPYgIiIiIiIyTiisEpGMsa2AVRjCJFvyeoAN1LGNVoIEMr6mASYQ4UJmkKysssPd46yghkT/wHePGTP8yX86DVBEREREROSgKKwSkYzx4zCRLGZQiG3Gs0FNN72sp86zdUMEmEohPvx9z9hTAWtpo4uYZ+sOkpMDM2ZArG+95JD1pibo7BybPYiIiIiIiIwDCqtEJGP8+KggjyVUMdzpfDESGT4T0NZShfGzkCmUpYRkCQw7qedZdmZ4xWEkB6mHQoOfA6ivh/Z27/cgIiIiIiIyTiisEpGMyifMuUyHlCqnTmANu2iii1D/85njAKXkciaVkFJJ1UyUFVRnfL1hGWOrqowZ+BkgELDzrEREREREROSAKKwSkYwK4mcyuUwgl2R1lcHQSTfVtEDGa6vs/fOJsIRpBPtPBXToxGUNO6hjDNrwAgEoLrbBVDKoAnsaYH299+uLiIiIiIiMEwqrRCSjQvg5hkmcSgWpc6uaaWMVW3Ex+/39kYrgZw5lBIhA31D1OIZamthGqydrDhIOQ2UlRCKDh613dcH27d6vLyIiIiIiMk4orBKRjCskzPlMJfV0vjZcnmIbvcQJZLi6ymCrqyaRxUkUMxCSOXTQyxpqM7re8JswEI8PrqpKhlaps6xERERERERkvxRWiUjGhQkwnSKyySJZ5eRiaKaTnbThRSsgQAk5LGHqoOda6WEVNXSP1amAjpP+762tA6cEioiIiIiIyH4prBKRjMsmyDzK+uZWJUiezreXJl6lHr9HXz25hDmLqQTJ6l83CrzKLqpp9mTNfj4fTJhgWwF7e+1zjmOrq3buhGjU2/VFRERERETGCYVVIuKJHEKcTBk2NALbkpdgHXs8Wc/0/d9ZTOIUSrGnAtrKphY6WMVWT9bt5zjg99uWPzNkLlcgYK+JiIiIiIjIm1JYJSKeKCTMBcwkgJ/k6XwdJHiGbTTRhd+jVsAsgkxnwqDnenCpoZlEX0uiZ4wZvt2vpwfa2rxdW0REREREZJxQWCUinsglxGlUpJzO5xDDsJV6NtHUF2JlXiERLmAGTkpI1t433L2FHk/W7BcMQnHxQBWV44DrQksLbPW4sktERERERGScUFglIp5wcMgnzPFMYqAVELqI8yp1nqxpgCAOCyhnKhNJngroYqijiafY5sm6/UIhqKqybX+prYA+nw2yRERERERE5E0prBIRT/hwKCGHpUwjOVEK7Ol8K6mhm7hHjYAOeUSYQv6gdbuJUeP1kPVkG2AiMXASYHLIemdn+iwrERERERERSaOwSkQ8k993Oh8ESLbkdWN4mT3spZ0QgYyvaTAU9LUC0j+jyqGVBKuowdO4yOeD3FzIybGBFdiwKh6H6mr7TxEREREREdkvhVUi4plAX3VVOQXYljyriygbafRs3RwCnEkVeeSRbEHsxbCZPbzILs/WJRCAoiKYNGlwMJU8KdCnr1wREREREZE3k/myBpExZYj1Rtmzs5b2aC+OM9BYZozBAIFgmMlTKsnPCh26bR6lAvipopCzqORuGoAgYGilg5VUcyEzMr6mwbYgzmACC6lgBa8DYcDQQCePUs2plGd83cGbGKZ+q7cXolFbdSUiIiIiIiL7pLBKjnAue7av57rLP8QDL28nKzIwxNoYQyLhUjR9Lt+/7fe86/Sph3CfR68CwixmGnfzEslWwA7gOWrppIdcwsT62/Uyw2DIIcSxTGBFyr27iLORhoyuNfwGUsKq5ImAdXWwYwccf7z364uIiIiIiBzBFFbJEc91E/gCubz/qq/yuQ9dNHChr7LKH8piStXkQ7a/o10IP1PIJ48c2ukFfLgY2ulkK63MpdSTdfMIcQZV/JQXSIZkUeA19rCTtr4B7B6IRODYY2HbMCcPOt6MlBcRERERERlPFFbJkc+APxBi8tRZzJs371DvRoaIEOBESjiRMlZTDYQxuNTRwuNsYy5lGV/TAAF8zKWUY5nIJuqAIC4ue2jmGbbzr8zJ+LqAnU2VnT3MpoxtBRQREREREZH9Ulglh53eXti+HRqHmb/t88HEiTAjbdSRg6Ph1YetAiKczzRWs7nvGR+tuDzJdq7mNBwcTAbP6TOAi6GMXM6lik3s6b/WSpSV1PBuTiCIP2Nr9nNdiMXsP1PFYvDGGzB3bubXFBERERERGUcUVslhIRazXVOPPgp33w0vvghtbemvcxwoLITFi+F974MzzwSf3yHg62X92if4y18GKleMccHxUVI1izMWzCGYfjsZIxECzGACYcL09IVSCQx1tLGLDiaTSzyDYZXT98gjzJlU8kvW9l/pANawm3Z6KSIrY2v28/uhoMBWVyUSg08AVBugiIiIiIjIm1JYJYdUPA6bNsFPfgJ/+AM0Ne3/9cZAczPcey/cfz9MnQpvW+qjvrGLtRt+xQsr/0AiYV/rJhI4/gDnvPcTzD91DkHlBIdMDkFOYwo55NBDOxAgjstOGthIA1PIJ57xIev2VMApFDKJXBroBPyAoYsuXqeRRUzJ6JoAhEJQXm5T1bo6G1Y5jv3wtrRAezvk5WV+XRERERERkXFCYZUcMnv3wn//N/z+91Bff/C/77pQUwM/uj3BhIn5fPBT17Pss+8kErEhmDF2qHYgFCJbQdUhl02QkyjmMZpJfvV0Eudl9nABaX2dGeEDZjGRUyjnUTb0revSRCsrqOYMKnDw4MNhjP0QJiVPBKyvt4mswioREREREZF90pAfGXO9vbB6NXziE/D9748sqErl94NrHP744xyWLcsnHM4nPz+fgoICCgryycmKeBFHyEFwcCgii6XM6AuHbJDYTpwn2Eo7Pfg8+v9SPmHOo6pvTQAfbRieYYcn6wH2Q5mfb0OrVIGArbwSERERERGRfVJYJWOqpwcefxwuvRTuu2//r/X7IStr8COwj1pAv+PQG/Vxxx1wxRWwbl3m9y6jk0eIhUzBEO5/rgfDG9SzgzZvhp0DIXxMZQJZZEFfq2ECaKSdbbR6siaRCEybRn9PalIsBg0N3qwpIiIiIiIyTqgNUMbU7t3wve/tu5oqFII5c+ADH4C3vAUqKgYOVUskYPNmG3L99a+wYUPKLzoJfL46Ojpr+eMf7et++1vIyjLg+MkvmEBeTsTz9yf75uurrprFBN6gDghi50f18Cp1zKY442saIESABZQzg0m8xm4giEuCXTTwJNuYRmHG18WY9NMAAaJRe9SlTgQUERERERHZJ1VWyZjZvRu+8Q1Yvnz461OmwC9+Ac8+C9deC1VVsHEj/P3v8PrrdrD6WWfBt78NTz8N3/0uHHssgINhL1m511JSMp9Jk+ZTUzOfpUtPYsGpc1lw+lJ+fs9zY/lWZRh+fJSTzxKmYWubrFa6WUE1vSQ8aQR0cSkgi8VUAck5Ug4txFlJjQcrJhfex8D4oM6lFBERERER2R9VVsmY6O2FV16xw9SHikTgnHPgP/8TTj0V/vY3G0TV1MCuXQOvC4dh1iwbUH3iE/CZz8Bpp/l4+9uPp6Xx9wSD3TiOgzG2sCUUMlx4oeGGG8OUTjl+7N6s7FM+Ic5hKj9nTd8zDh3AP9hNM12UkksPif3dYkTyCHEeM/gl64gSBxyiuLxMLa/TyHFMzOyC4bBtA8zNta1/vr7/XcBxoK3N/hdCs6tERERERESGpbBKPGcM1NXB735nu6BSRSLwtrfBr38Nra1w9dXwm9/Y3ykthSuvtH/zGwPV1fDMM/CXv8Bjj9lrn/+8w5/+lMfXv76Q54YUTyUSsGkTdHbA1Mlj935l3wL4mUwek8ijgQ7Aj20F7GIzzZSS+VPyDBDARwX55BAmSi/gxwXa6GIX7ZkPq5ID1oNBG0yBDayMgdpa6OiAoqLMrikiIiIiIjJOKKwSz7ku7NwJ998/+HnHsUHU9dfDli1w2WWwbRvMng3LlsH558OECQOvN8a2At59N9xyC9x6K/zjH3DXXXDbbXDBBbBnz+B1X3vNVmAtXw7l5WPzfmXfQviZSRGnUc7DrMd+BRmaaGclW1lEpSfrGgzl5HEWU3iAV/rWdWjpa0G0rYmZXNDYtDR1wHryZEC/3z5ERERERERkWJpZJZ7r6IDVq+0/U1VU2BlWFRXwrW9BU5OtrHroIXj3uyEvD7q7Bx7RqH3uox+1Q9bf/3544QW4+WY73+q73x0cbiVt2QKf+xw0No7N+5X9yyfMYqZha54AHNpxeYbtxIgT8GRyFUwg0hdK+fvWtus+zXZa6M78goEA5OQMnl1ljG0LbGvL/HoiIiIiIiLjhMIq8VxLC6xcOVBYArb9b+FCWLrUVj3dcw/Mnw9f/jJUVtpgKhZLv1csBvG4PTHwhhtstdR998Gjj9p2wmXL0n+nuxseftjOxJJDL0KAGRSRSw5gg5wE0EQHW2nF8SisihDgVKZQxgSSg9bjuGynnhfYVFAFwAAAIABJREFUndnFfD47r6qqyn5gwZYSArS324FsIiIiIiIiMiyFVeKpRMLOqxo6T6qsDK64wp4QePPNNqD6yldsZVRPz77v5zg29IpGbQvh175m7/+Nb9jRQO9+N1x+efrvtbfbNsRf/Sqz708OXhZBZlNCITnYmMrBxaWOZtbTgM+DryUXcDFUkMcsiqBvyDpAB92ZD6vAflCHOxHQcWzVlYiIiIiIiAxLYZV4qr0dnnxycAteMGhP9FuyBPbuta855hg466zhq6mGShao+Hxwyikwbx50dtp7TZkCN90Exx2X/nu7d9tw68EHM/PeZORyCXEqZSQrnMChkwQvsWd/vzZiTt8jlxCnMBn6q7ccujC8zF5iDBMsjdZwYZUxttxvuGsiIiIiIiKisEq8t6/ikt5eW3EVCMDFF9t/Hszf78bYSqyLL7YjgB5/3D5XWQnf+57twBpq9257bevWkb8fGb1CIlzIMQQIMjA/Ks4zbKWBTvwetQLmEmIx08gjm2RVVxcuL1HLFpoyu1gkAjNmQDg80APrOLbcsKZm/yWEIiIiIiIiRzGFVeKpRMJWTqXy++2gdLB/u4dCIz+pL/V3ky2CPh+cd55tDRwqFoPnn4cvfWlk60lm5BDkVMoJEME26TnEge00sIVmAmT+tDwDBHA4jmLKKOhfFwxttGa+FdDvh/x8+8/UgW2OYx8+ff2KiIiIiIgMR38tiadiMWhoGPxcIABFRfbfjbGP5Azqg+W66a2Dxtg13vIWuOaa9N/p7oZVq+Db3x7ZmjJ6Dg75hJnDJAZaAaGTGC+zFxg4KzCTDIYcgsyjFFtZZXfTicsrfetmbrG+D3YiMfzzqqwSEREREREZlsIq8VQkYudRpYpGBx+G5vPZCqmRSP7u0FnWrguFhXDddfDBD6b/Xn093Hor3HHHyNaV0fHhUEw2S5ne94yNptroYRU1dBHz5MvJAPmEWcoMAgQYaEF0eY5ttNCducV8PtunWlaWfiJgY6NOBBQREREREdkHhVXiuaFzqJJdUH4/LFpk/6bfsGFk945GYfNmKCiAxYsHd1slEjBxIlx9tR3CPlRdHfzoR7Bu3cjWltHJJ8yZTIWU0KgbeIW97KWDEJk/Mc8AWQQ4jXJKKCQ5tyqBYTsNPEdt5hbz+Wxam5u778FtIiIiIiIikkZhlXgqL8+e+pc6kyoWs0Ul69bZMKm1Ff7yFzv8PBw+sPsmw66tW+HXv7YnDE6cOPjv/2SL4fz5dn7V0BFBiQS8/DJ84hOwbdvo36scHD8+islhSn9oZHXTzQbqPVvXYCgll3OpBAZ6SFvo4VGqM7zYPnpcjTmwoy9FRERERESOQgqrxFN+P2RlpT/f1AQrVtjZVW9/uw2LfvhDW4DiP4DZ2j6fnYX185/b0T9LlthZ1ql//yeDK2PgrLPg61+3s6xSJRK2qut731N2MNYC+Kgkn3OoIlnhBNBKFyupIU5iv78/UgaIEKCKQlK/AntJUEsrUTL4QfD5IDt7cIrqOPbDtnnz4FJAERERERERARRWiceMsV1QixYNfr65Gf78Z1thddNNNmi66y74+99tldTQUClVIGD/1l+xAu68E2bPtvfIzk6fZZ3cQ04OfOxj8KlPpV9va4M//hG+//3RvVc5eAWEOZeqvp+S86MMq6mli16CHn1F5RPmPKYTIovkqYDdwDp2spnmzC2UlWWHtiWPqhxKrYAiIiIiIiJpFFaJpxzHDjo///zBzxtjg6pbboGqKvjmN2111eWX2wqoaNT+nT/0EYnYWVM33AD/7/9BRYUNqkpLbYXVvv72Tw5cv/JKOOec9OsNDXD77fDYY5n/z0D2LYSfqUxgAnkkWwENhjY62UQzDpkPc0zfYyYTOJUybCtgsqqrg5WZbgUcdhPGpqStrd6vJSIiIiIicoTxL1u2bNmh3oSMb6GQDYqeegr27h14PpGAjg6orIS3vQ1KSmD1anj0UfjrX2HPHhtOtbXZf9+501ZAfe5z8Le/2d/71rdsG+FwFVWpkkUtpaVw+unw5JP2RMBUTU3wj3/YMKu0NLP/GcjwAvhwgYfYRAPt2GHrLgHizGUK8ykjwTDDyUfJAQL4qaOTJ9lKMrePYwgQ4G3MIswB9KO+mXjcfng3bLD9rcnTBZIzq6ZOtcPWREREREREpJ8qq8RzjgNlZbYSaqhdu+BLX7ItfVdfDfffD+94B7z0EixbZtsHTzzRnua3YAFcdx3U1sLHPw6PPALvf7+9z5uN/knmA729MH26vU9OzuDXGGMHtn/729DdnZn3Lm8ujxALqWBgyLpDBy4vsKvvJ29kE+B4JjHwNejQA2yimS56M7NIMGg//BMnpg9a9/ttkisiIiIiIiKDqLJKxkQoZCunNm+GTZsGX+vstCHRpZfCccfBxRfDRRfBKafYWVYnnmgfixfDzTfDVVfZdsGSEtv6d6AzqpMtgn4/zJhhTx4c2vYXi0F1tW1JvPjiAxv2LqPjwyFGgr+xGRvnOCRwcTFcxEwKiOCS+UHkPhwMDiuoppkOwA8YsnGZQ3lfkDVKjmNDqjfesCWCyQ+UMfZaRQVMnjz6dURERERERMYRhVUyJhzHVjJVVNjB6qlFJsbYmVGvvgrnnQfFxbb6aeFCeO97Bx6XXGJnVSf/th/N6X3hsF1j+3bYuHHwtd5e2644eTKcdNLI15ADE8SHg8MfWE83UcCPwRAkzpnM4BiKPGwF9LGFJtZRi21BNLgkyCWLt3AMvkzUdXV1wcsv21Q2NaxKJOwgthNOGP0aIiIiIiIi44jaAGXMBIO2QurjH0+/1tMDTz8N3/mOHYYejdpWvOEe0eibz6h6M65rZ1595ztw9tnp13ftgq9+FR5/fHTryIHJJsh8SoCBFLOTeH8roJfrzqEE+iu3HLpweY2GzC0SDttTBIaWADqO/S+FiIiIiIiIDKKwSsZUaSnceOPwgVVbG/zpT/Czn43NKJ943FZPXXstFBWlX9+1C7773fRB7JJZDg5FZHEBM3HwYYMjhzbiPMU22ujJTIXTEAYI42cepRSmnEboAnU0sY49mVkoGIRJk4bvV+3osEmtiIiIiIiI9FNYJWOurAw++1k7N2qovXvhxz+2h6eFw97uw+3rLHvrW21ANnTgek+PHfz+H/8B7e3e7uVol0uI06jAMJBS9mLYTD07aCOYiZP5huHD4RgmcjLl2KouB4OhnnZWUZOZRZIn/6WGVcmJ/7t2QXNzZtYREREREREZJxRWyZhzHJg1C371K5g5M/36G2/YgGjTJhtYHegA9ZHsI/nPc8+Fj3wk/TXRqG1PvP12b/Yglg+HIrI5nolAjOQZgF308EpfhZMXHwODoYAIS5iaUrvl0EaCJ9lKlFEMRuu/nWM/yH5/+ofZ74dAYPRriIiIiIiIjCMasC6HhN9vO6OKiuCBBwZfc11obLSPyy6zf+u7mZ+vPUhWlh2mXl0Nr78++FpyPnZuLixY4O0+jlZ2xDpsp5m1bCd12Hk2Ed7CTE+SdQc74N0F7uZ14iSwpxGCIcH5zKSM3NEt4vfbvtZNm+yHKfWIyWDQJrYTJoxuDRERERERkXFElVVyyOTmwqWXwg03pF/r6oKHHrJDzl13oArKK8ZASQlcc83w7Yl79sCtt6YHWZI5+YQ5iyrob/lz6MSwlt00003Ig1ZAOx3LYQJZVFFAcm4VGKL0sInGzCw09AOc/LmjA7ZsycwaIiIiIiIi44TCKjmkJk2Cj34UTjst/VpTk20V/L//837guuvawOqss+DnP4eJE9NfU1MDn/wk1NV5u5ejVRAfFeRTTD6ppwJ20c3rNIEHQ9bBtgJWkMd5VJGcWwUOLXSznC3EyUBZn+vu+whLvzfzuERERERERI5UCqvkkJs+HX7xCzjllPRre/bAd74Dzz/v7cD1ZKGL68LJJ8OnP53+mlgM1q2DH/zAu30czYL4mc4ETk8Zdg7QTBuPUYObidBoHwoIcx7TgBD2PECHDuB5atlL5+gXiESgvHz4wCoa3XeQJSIiIiIichTSzCo55Hw+KCyEigq4557B86mMsYel7dkD73mPHfETj3vbFhgK2flVjgPPPDP4WjQK69dDb68dyi6Z10gXf+cNIAjYces+Avwrs/vnS2WaHwcfPp5iO/W0kpyZFSDOMUxiHmUjv3ly6Fp9PWzdaj/EScbYD/QJJ3h//KWIiIiIiMgRQpVVcliIRGDJEvje9+yw81Q9PfDYY/C5z0Fnp/eHpxljw7Mrr4TTT0+/3tgId9wBzz7r7T6ORmH8zKCIPHKgL5ZygWY6qKGlbwx7Zpm+NQqIUEl+/7oAUWJsoXn0JxG6rv0gD3e0pePYxFZEREREREQAhVVyGCkogPe+F664Iv1ae7uturrzTu/DKrBdWVVV8MMfwrRp6de3boVPfQrWrvV+L0eTLIKcQDGF5ELfyXwuLvU0s5EGfB58ZTl9jwLCLGFa30929HobLk+xnSix0S0SCtk2wEgk/WjLRMIGWSIiIiIiIgIorJLDTEkJfOYzcMEF6dfq6+FHP4JHHvG+Yyo5D/v44+Hzn08PyFzXtgN+7Wt2lpVkTh4hTmMyA0PWHTpIsJbdnq1pgAgBFlFFORNIngoYx7CVelZTO7oFgkEoK7OhVbK6ynHsvzc1QXX16O4vIiIiIiIyjiisksOKzwczZ8KNN0Je3uBrxtgT+W65BVpbbWA1XFdVJiRnYoXD8MEPwn/9V/qcrN5eePJJuO467/ZxNCogwgXMJECQZIVTB3GeZRt1dBLw6FRAHw6l5DKRnP51wdBJN1toHt3Nk7OphlZViYiIiIiISBqFVXLYCQbtrKhf/AImTBh8LR6HNWvgP/7Dzo5KnVXtBWMgO9u2J158cfr1tja47z548EFv93E0ySHEyZQTJIvkyXxxYCeNVNOMH78n6xpM36mAU0mt6mojwRNsHf0CPp8t0UtNNpMJqMrzRERERERE+imsksNSTg5ceCFcfXX6te5uWLkS/vd/we/39mRAsO2AkyfDrbfC0qXp17dvt8Pfly/3dh9Hi+T8qHkUMxAaQSe9vNTXCuhVIVsuQc5lGhGySQZlUVxeYxdbaBr5jZNHXlZVDQ6mHMd+wLZsUWAlIiIiIiLSR2GVHLaKiuyJfO9/f/q1pib45S/hN7+xY4C8ZIzNE6ZPt+2Jubnpr9m2Db75TTsIXkbHh0Mx2Sxlet8zNppqJcYqttJJrye1VQYI4mcOJRxHCQMD3mEPLTzBtpHf3HH2f+qfMTZ5FREREREREYVVcvhyHHuA2rXX2sqmoXbtgq9/HZ5/fmzmVyUStj3xhz9Mbz9MJOCFF2x7YtMoCnDEyiPEQiqBAMn5UVEMr1FHHZ0E8eZISBdDIREWUAopJwC208uz7BzdzZNzq4bT0QHNo5yLJSIiIiIiMk4orJLDmt8P8+bBHXfAlCnp13fuhGXLbCue1ycEGmNDqosugg98IP16V5c9qfDWW73dx9HAj48ScqhKOZkPoIsuXqPe07WzCHICJZAy4L0Hh20000T3yG8cCkFFhf1Qp54I6Lo24dyzJwO7FxEREREROfIprJLDXjgMZ5xhT90bqrcXnnsOvvMd22HldSeV60JxsW35e9/70q83N8Odd8Lvf+/tPsa7AD4qyeccqki24wG00s1KqomR8OhMQMgmwBlUUkxB/9oxDJvZzbq+mVkjEgpBWZkdsp7KcewH1+t+VhERERERkSOEwio5IhQU2NlVn/1s+rX2dvjzn+G73933SKBMcl3blnjddcO3J9bW2vCsttb7vYxn+YQ5l8q+n2yFUweG59lFN70EPPj6MthWwEoKWEQFqQPeW4jyd2pGcfO+NkDXTb8Wj6t/VEREREREpI/CKjlilJbCNdfYUwKHqq+3pwM+8oj37YCuayu65syB226zc7VSGQMbNsDHPw47dni7l/EshJ+pFDGRfJKtgAZDGx1soBHHs9oqexrhBczAfkXaoKwdw1Nsp3k0rYB+/+A2wKR4HLZuHcWORURERERExg+FVXJEqaiAr34VTjgh/dquXfCtb8Frr3k/cD1577PPhi98If01PT3wzDN2PzIyYQJMYwIl5AMu4GAwtNDGBho8DauC+CgnnwgRkqcRJoBGOqmja2Q3DQRsG+DkyRCLDb7mOOlT+0VERERERI5SCqvkiBIMwvz5cOON6dficVizxp7I19ICkYj3JwRGIvCv/wpXXZX+mvZ2+Mtf4Pvf924f410+Ic6kgoEh6w7tuKxhV99PmWcAPw4nUcYcSrCnAjqASzPNPDbSVkDHsY+hvarJ9LOzE7pHUbUlIiIiIiIyTiiskiNOTg5ccgl84xvps6oTCduC9z//Y6ubvB64bgxMmgSf+hTMnp1+va7Ong740EPe7mO8KiDCUmb2VTjZ6qpuXF5kB1tpxu/RV5gh2Qo4nWRlFTi0kmAFNSQYZu7UgXKc9J+Ngd27bT+riIiIiIjIUU5hlRyRiorgiiuGP5GvpQV++1u46y7vO6tc13Z0zZwJP/85HHdc+mt27bLh2YYN3u5lPMoiwBxKyCGbZFiVAOpoYZOHYRVAiABVFOLHT3JuVQzYQzvt9I7spllZMGvW8Nf8/vT0VURERERE5CiksEqOWGVl8MUvwqJF6df27rWnAz71lLcD15NFMa4LJ58MN92U/pp4HF58Eb72Ne/2MZ7lEOIUyrDteFYHcV7oawX0ggEi+FnIFMqYgD0V0CGBYSd1PMsIJ+f7fBAKDX8tkYCOjhHuWEREREREZPxQWCVHLL/fnsj3k5/YmdWpXNcOWv/MZ2DnTu8Hrif3c8klsGxZeoFMdzc8+qgNs3pHWJRzNHJwmECEC5iOL6XCqZ0YT7KVFqL4PRu0bighl7OpwoZVVgs9/H2kc6uMsemlO0wbYVcXbN48svuKiIiIiIiMIwqr5Ijm89kWvGXLIDd38DVjoLraVjS1tXnfEmiM3cPHP26Hrg/V3Ax33AF/+IO3+xhvcgmxgApcBkrkeoFqGthJGwG8GUxmsAPelzCNEGGSQVknLmvZzm7aD/6mgYAdcpabayupUjmO90PWREREREREjgAKq+SIl5cH73wnfOxj6dc6OuDBB+GXvxybHMB1bRbx+c/DwoXp1/fuhe99D5591vu9jBc+HCaSzYkUMXAyH3TSwzp2AwMj0DMtQoDZlBAgDH1D1eMYdtPCDtoO/obJsCo/P726yhh7KkA8PvzvioiIiIiIHCUUVsm4UFwMn/40XHpp+rWGBvjxj+Hee72dXwUD86tmz4b//M/08USuC6++ClddBdu2ebuX8cKPjzJyWcI0SDmFr5VuVlJDlLgnX2Sm71FMNqdQykBQ5tBOlOdGOrcq+SFJlewl3b7dlgGKiIiIiIgcxRRWybiQbAe85Zb0E/mMgZoauOEGWL9+bOZXGQPnngu33jp8e+KWLXDzzdA+gk6yo1EeYRZRBf0tfw6dwIvspYVuQp61AhomkcNipmGDKvvBaSXGKrbSlTL0/YA5jv3A7sv+romIiIiIiBwF9FeRjCuVlfDNb9pKq6F27IAvfxnq6/d9IFumGGPXeM979t2e+MAD8LOfebuP8SKIjynkU0EhqacCdtHFq9SDZ0PWIY8QZ1JFmGxsZZdDD7CBPWyh6eBvGInAMcekt/slK640gV9ERERERI5yCqtkXMnOhiVLbEvgUNEoLF8O11xjfx56Yl+mGQOFhfDJT8LFF6dfb2y0YdX993u7j/EgiJ9y8plCPpAgWeXUQSfrqfdsXdsKaDiWIk6mhNSZWa108BhbD/6mPl/6tP9kSV5rK2zaNJoti4iIiIiIHPEUVsm4U1Rkq5k+8pH0a93d8PjjcPvt3g9cTxbKHHusHap+wgnp16ur4frr4Z//9HYv40E+Yc6mioFx6g7tuDzPLuIkPP0yyyLITIoGPRclQTXNJHD38Vv7YMz++1C96lEVERERERE5QiisknGpvBxuugnOOCP92p49drbV0097O3A9WSzT2wtVVfDVr9qD4IbaudNeq6vzbi/jQT5hFjOdfHJIVldFcXmVWjbSgN/Dr7N8IlzATPwEsWGZQzuGp9hGI90Hd7NIxA5Yy8+HRCL9uusqsBIRERERkaOawioZt6ZMgW98A6ZPT7+WDIiqq8dmfpXPBxdeCJ/9bPr17m5YtQq+/W1v93GkixBgJkUUkktydpTB0EI7b9CEz6OvMwOE8XEqk6miCIj3r11PM0+x/eBu6Dg2sBpa2uc4NryqroaengztXkRERERE5MijsErGrXAYzj4bfvSj9BFBsRg88wxcdZWdZTUWgVVODlxxBXzoQ+nXW1vhd7+z7Ymyb7mEWEg5NjACW+GU4HlqPV3XADmEqKKAgTZEiBKnhuaDv2EiYQesO8MMhnddnQgoIiIiIiJHNf+yZcuWHepNiHglELBDzgGefXbwNde1IZHjwDnn2J+9ZIzt/Jo/H154wZ5OmKqjA159FU46CaZN83YvRyofDt3EeITNuDiAQwKDA7yVY8gjjIs3LXR+/DTSxWNsBux0/jgJHHy8nzn4DuZEwp4eqKmBtrbBFVbJYyRnzIDc3My+ARERERERkSOE/ud7GfeKi+2JfJdckn6tsRF+8AP4/ve9r64CW1BTXg5f/jJMnZp+vbbWti5uHcEhc0eDbELMYzIBIiRbAeMYammihhZP51Zl4+csKsknl+TMrF4ctlDHC+w+8Bs5jj22srzcVlelPm8MtLTYD4KIiIiIiMhRSmGVHBUqKuArX7FVS0M1NMAvfwkvveTtwHUYqN4680z40pfSr/f2wpNPwpVXQment3s5EjlAAWFOopiBVkDooJcX+wIjL+qq7Eh1H1MpZBGVKWsbGunkUaoP8oZmcFCV5Di2BXAsklMREREREZHD1P9n787D6yrLvY9/1x4zD23atOmUFspUkDIrY4HiBHKcX16Pr3KUQUSQGUWQKlAEZFAUAXE4x+HI0ePR4wQqKFCQeUY6p0nTtE2bZp72sJ73jyerGVYSCuwnTdLf57pyobl39npocF8XP+/7fhRWyR4hFoPDDoO774bS0sE1Y2DlStt91dRkAytXl7EFK4oSCfjwh+HSS8PridJpG5x961vDXxa3J4vgUUEBS1mAja7sL6qNNA+zgQ56ib6Zcbw3wWAoIMFelGG7uqxuMqyh6c2/4XD7qsAmmi0tb+2QIiIiIiIik4DCKtljRKOw335w9dU2vBrI92H1ali+3HY3Da3nmu/bXVoXXginnRauNzXB974Hv/mN23NMRMUkOJLZQJSg56kHw+s0so0u4kTf4B3euhISHM1cILnz2d3AKzRQx5sImPLyYOFCm4wOXJbmeTatrK11l5iKiIiIiIiMcwqrZI9SVgaf+YwdCRyqtRV+/GP42tdsWDVS40uuZLMwfTp8+ctw0EHh+ubNcNNN8OKLbs8x0USJMJ0iqpmC3R1lddHNy2x19lzT9+xFVLLfzjFEDwM00soKNo7+BgNFIjawGu7WP88bm38ARUREREREximFVbLHKS+HT3wCTjwxXGtpgfvvh7/8xf3aIGPs1+GH2/HEiorB9WzW3hp47rnQ2Oj2LBNJjAhzKOEE5hIsOgdopYuHqCFN1skgoAF8DDMo6nt2f0dUC738lfX0MsweqpFks7ararhQqrsburre9plFREREREQmIoVVssfxPFiwAL79bZgzJ1yvqYFLLrE38o3F/qpMBvbfH6680jbbDOT7sGoV3HijnQ4Tq5gExxD88uw4XgeGZ2igixQxBx9tXt9XEQneyWz6Pz49OjE8xxY62cVfUnAjYEnJ8DcCbt0KDQ25/RsQERERERGZIBRWyR7J86C6Gr7+dSguDtdra+Haa6GtDeJxt2cxBvLzbbfXJz4RrgfjicONLu6pksSoZgrTKCUYBTR4tNHJP9mG52zJut2UNYcyplEMA8KpLjp5jV1sgYtG7ab/6dOHvxUwEnG/OE1ERERERGScUlgle6yiInsj3ze+Ea51dtrl5l/6ks0VhlstlEvGwNSpcNFFcPzx4XpLC/ziF/Dww27PMVEkiDJ3Z2DkY3dH+bTSxkp2OAurADw89mYKh1NF/xiiYQftPEQNPrvYimeMbZcbbgwwm4WOjhyeWkREREREZOJQWCV7tJIS+MAH4KMfDdc6OuD3v7ch0Vh0V/k+LFoEd95pu76G2rDB3h64fr3bs0wUJST7RgGDJese7fg8xSZsn5XbZx/HXNgZTEVox/AE9bv+3FjMLlAbLqzq6dEvWkRERERE9lgKq2SPN2cO3HCDDYqG2rTJdlf97ndjs78qlYL58+Hqq23n11AbNtjxxPZ2N+eYSEpJcjILyCefoLuqC5/n2cg6mok6/HiLE2U+UyiggGDReravu2o9zbv2JsmkTSWDPVVD6TZAERERERHZQymsEgHmzrVLzGfMCNc2b4Zbb7X7rsfihsB4HD72sdHHEy+5xO05JoICYixiGoUDwiof2E6r07DKAAkiHMpM9qaCYBTQx9BAE49Qt+tv5vsj19Lp4fdZiYiIiIiITHIKq0Swt/AtXQrf+la4lsnAM8/YfVLGuN97bYw9z+mnw0c+Eq53dMCf/mTHE/dkBigkweHMYOCi83bSPM0mp8/2MZSSxxKqgSBQ8mglw8Ps4vieMSN3VBkDdXWwY0eujiwiIiIiIjJhKKwS6ZOfb5ebn3deuNbTA489BnfdZReuu5bN2i6vG2+Egw8O1zdtgiuusF1WeyoPj3LyWcpeRIhi4yuPDjKsoJZmup2OAhaT5ASqyaOQoLOrG8PLNLCS7W/8BvE4VFXBtGnqoBIRERERERlAYZXIADNm2H1Rn/50uNbYaEfzfvhDu27ItWwWZs2CZcugsjJcb2iAb37TjinuqQqJcwhVGJIEy85TwAaaqKedmMNRwCgeMyimeOcYIhgM7XSxiV1YKhaJ2H+QRlqG5vuuHK8tAAAgAElEQVR2FFBERERERGQPo7BKZIjKSvjCF2CffcK1xkbbXbVqlfvAyvftRNi73w133BHu6Mpm4dln4fzz99zGnCgRKihgEVOx43h2KXkHvbyATfEc7cTHYJhNCccxCzuG6AEeLXTzF9bt4puYcCAVLFZvb4fVq3N4YhERERERkYlBYZXIENEovOMd8J3v2N1RA/k+vPIKnHUWrFvnNrAKMotoFJYssc8cqrcXnngC7r7b3TnGswgelRRyEvMZGEu10sNDrKebNC6nNktJsoT5MGAMsR3DCurYQfcbv0EsBuXlI18z6er6SRERERERkXEsumzZsmW7+xAi4000CmVl9q+PPjq45vvQ2mr3WL33vaNf6JYLxkBRERxxBDQ1wUsvDa53dsILL9jzHnqo27OMRxE8Oknx3/wT+qKpNIYsET7O/pSSR9ZRf1W873kPUEM7XUAUgyFChsXMZiFTRn8DY6CrC9asGby5PwipZs+GBQv6k0sREREREZE9gDqrREYwdaodB7z00nCtrc3exnfLLZBIuD9LNgsVFXDBBbD33uF6YyN897t75tRYnAhzKGUO5Qy8FbCLTl5iK8FoYK4Z7K2AMyhmIeX03wpo6KSHF9nFZWKZTLiDKrgRcMMGm0aKiIiIiIjsQRRWiYyiogI++1k48shwrakJ/v3f4cknx2Z/VTYLBx1kQ6nCwnD91VfhzDNh7Vq3Zxlv4kSZSTGzKAay2HDK0EEXK2ly9lyv76uYBEcyi/5QzKMDn+fZQprs6G8Sidi2uURi5CXrEX1Mi4iIiIjInkX/FiQyikgE9t0X7rsPDj54cM0Yu2j97LPh+edHvtQtF4IpMN+3o34XXRR+TSZjA6vbbnNzhvGshCTHMY/+vVUeHWR5knoyZJ3urSokwfFUU0oRQVjWg+EVGljJ9tF/OJGAefOgtHT4Lfk9PdDc7OLYIiIiIiIi45bCKpE3EInYtUGXXhruoAomtW67Dbq7B68dcsEYKC6GL34RLrssXG9vh//6L1i+3O05xpsSkpzI/FBg9BqbeY1tRBzFVQaI4bGQqVRSDPgEnV3ttPMiW974TXx/5DHA1laoq8v9wUVERERERMYxhVUiu6CwEE47Db72tXCtqwv++Ee49lobVrnehe37thHnM5+Bww8P15ua4Mc/hqeecnuO8SRJjGrK+8IqGxgZDK20s5YdRBztrQIwGAqJcwgzYefYn0cHhufZumtvkh1hXDASGZulaCIiIiIiIuOIwiqRXVRWBh//OLznPeFaayv86lfwhz+4zxaMsdnG3nvD978PixeHX7N2LZx1Fjz3nNuzjCfFJHkXs+hfdO7RTpan2OT0uQbb2XUS84kR7/uORycZnqaOJrpGf4O8PDsKODSw8rz+qyddzZeKiIiIiIiMQwqrRHaR58H8+XDXXXDCCeF6bS1ceCE8/LD7/VXG2BVHCxfa8cShAZkxsG4d3Hwz9Pa6Ocd4U0oeS1lAnCT9gVGWJ6mjgTZijj7uDJBHjMOpYgZl2LDMIwvUs43H2TjyD3uebccrKRl+FDCbtWOAw+2zEhERERERmaQUVom8SVVVdl9UeXm41tAAt95qd2Ln5blfuB6NwqmnwrJl4dd0d8MDD9gwq7vbzTnGkwLiHMSMvrDKjgJmMGymmQ20EnX4cedjmE4hxzOH/s4uaCHFX1k/+g8bA+n08P+weJ79JUddrogXEREREREZXxRWibxJeXmwZAnccku4lkrBI4/A5z8PLS0Qj7s9izFQVARnnAHvfne43tYGv/41/OIXbs8xHnhAGUkOYToDA6MOUjzbNwrocpgujzjzKIMBy9xTGDbRRhfpkX8wGrVb82OxcGBljL0RsLPTzaFFRERERETGoeiyZcP1ZIjIaBIJqKyExkZ4+eXBtUzGfr+wEI4+euTd2blgjP0qL4djj7Vn2bBh8Gs6O+Gf/4QDDrC3Gk5WHh4esJ0uHqGGIIvP4BMlzqksJEHUSWDlYZe8g8evWEWm70bCDIY0KU5mb2ZQNPwPRyI2sFq50v7DE+n7/xCCnVWplG3nmzbNwclFRERERETGH3VWibxFs2bB8uXw4Q+Ha9u2wR132KXrY7G/Kp2257n0UntT4EDG2ADrppvseOJkVkSCw5gFxAj2VvViWMU2ttFFHDfjdAZ7K+ACyjmcmUAK+m4gbKXzjUcBfX/4VNPz+kcBRURERERE9hAKq0Tehhkz4OKLYfbscG3zZhtY1daOzf4qgBNPhO98x95cOFA6DStWwOc+Bzt2uDnHeBAjQhXF7EsF0B/+dNDFszQ4f/4U8lnKAuxHqw3LWsnyMDW00TPyD0ajI/9DYsyesXRMRERERESkj8IqkbchHocjjoD77rNjgQNls/Dcc3DOOXbxejLp9izG2Mzj3e+GM88M17u77U2FP/iB23PsTlEiTCWfeZQS3MoHhm56WE2T8+fnE2dvpjJ4bxXU0kLHSHurolGbLs6ZY1PFoVIpWLvWyXlFRERERETGI4VVIm9TMmkDq/PPD9dSKRtY3XVX/2oil4yxucfFF8OHPhSub99uu71+8hO359idSkmyhHkEY3gQoQPDP6ini15ieKP9+FtmsB+oi5jeF1ilCcKydtp4nLo3eIMRWu+CUUAREREREZE9hMIqkRyYMgXOOst+DdXcbDuvvvlNG1a5zh18v388cdascL2hAa67Dl55xe05dpciEhzNXKZTRnArYArDWrbyPFuIOP7Yq6SQE5gH+Du/10wvf6GG9IDvDWLMyDurgqVkw3VdiYiIiIiITEIKq0RyZPp02121aFG4tm0bfO97dm9UIuH2HMGu7iOOgHvvtRfJDVVbC5ddBvX1bs+yO8SJMpMSplGMDYxsd1MHnaxmR9+dge4UEGcR0wd8x6Mbw0q2448UViWTMH8+xGKDO6yCsKq+HrZudXpuERERERGR8UJhlUiORKNw4IF2J9Tee4frdXVw5ZWwapXb/VUDO7fe+U4477zwa1IpePppuPNOd+fYnUpIchxz6F+y7tGOz5PUA8ZZXGWABFEWM5NySnY+3wca2cHzbB7+B+Nx25432pyoRgFFRERERGQPobBKJIdiMdh/f7joonAtm4XXXoNvfct2P8Vibs9iDBQWwtlnw4UXhustLfCjH8Ftt7k9x+5QSpKTWUABBQTdVd34vEA9a9hBFHfLwyLAfMo5nFkEe6sMsJ0OHmLD8D9kDGQyw48CBnWNAYqIiIiIyB5CYZVIjpWUwP/9v3DDDeFGmY4OuP9+uOoqmz9EHP8v0Pdtw84XvwjHHhuub9sG3/kOPPKI23OMtXxi7E8FheQRhFU+0EQb62kh6nAU0GDDspOo7tuPZbCdXVlWsIHO4W4F9Dw7H5pMDr9ovasLVq92dmYREREREZHxRGGViANTpsAnPwnvf3+41tIC//mf8Lvf2ekv1zIZu7fqxhth333D9bo6uPxyePll92cZKwYoIMkRVMGAcKidNE+x0fnzC4hzJHNIUEAQVqWAdTSyku3hH4jF7NKzGTNG7qDyR9h3JSIiIiIiMskorBJxZPZsWL4cDjssXNu0Ca65Bp56auRmmlwxxn694x3DjwNms/DCC3DJJdDb6+4cY8nDYwp5LGUBEWL0dzdleJw6mugi6ujjL/hVlpPHAsro35sF3aRZNVxY9YZvamxY5fIfFBERERERkXFCYZWII5EILFgAl14KeXmDa8bAhg12X1Rnp627yiGCvdzJJJxxBnzta+HxxEwGnn/e1jIZN+cYa4XEWcxMDAmCCCkN1LKDBtqJOfz4MxhmUswS5jEwrGqhhz+zjvRwtwIGe6uGCm4ErK2F1lZnZxYRERERERkvFFaJOFRQAKedBnfcEb4BsLsbHnjALmPv7HS/cN337cL1M8+EU08N15ub4Sc/gd/+1u05xkqECBUU8A6mESw6B+igh2dpAPq7oFwoJcnxzAMSBHuzOoGn2UQDbeEfyMuD6uqR3zCT0Y2AIiIiIiKyR1BYJeJYcTF84AN26fpQHR3wxz/Cz3/uPqwCG1hVVsJ11w2/cL2hAb761cmxcD2CRyVFnMTgAKiVXh6mhi7Szu4EtEOHcADTOZgZ9IdlhhZaeZia8A/FYjB16shvmk7bRFFERERERGSSU1glMgZmzrQh0CmnhGtbtsD118Mvfxnuvsq1YPXRAQfATTdBefnguu/D66/b/VVNTW7PMhaKSHAks2HArXxdGF6ikTZ6iDuKq0zfVwl5zKGEgT1cPaRZTzNmaF+XMZBKhRepB2OA7e12FFBERERERGSSU1glMgY8z97Id+mlUFERrtfXw7XXQk2N24XrwRRZJgMHHmhDsvz8wa8xBlavhi9/2Y4nTmQJIsyllLlMAfr3QXXSyfNsIRgNzDWv76uMJCczn4FhWRs+j1JHF0Nu/YvH7W2ApaXh3VWeZ5egJRJOzisiIiIiIjKeKKwSGSPJJBx/PNx9t80jhqqthcsug+3bbW7hkjE29/jQh+ATnwjXOzrgv/7LBmgTWYwolRQxi2LsonM7itdJF2tw2zpmgCRRjmQ2lZQShGVZoJ7tPM2mwT8QjUJZmV0sNlxaaQy0tdnrG0VERERERCYxhVUiYyg/3wZWZ58drvX0wGOPwX332dwi4vh/ncbAlClw1VVw+unhemurHU38n/9xew7XSsljCdX0j+JFaMfwOPWkyTrbWwU2GptNKUcxm2DJOkAzXTzEhvAPGDN8GOV59vu1tXZUUEREREREZBJTWCUyxqZNszuhhgusmprg29+Ge+5x310FNhuZOxduuMH+dai6Ohtm1QyzD3yiKCbBCVRTtrO7CnrxeZ3NvEYjEYdxlQEKiXMoM7BhFdhbAX2eZ3P4B0Yb9fM8u4Q96jJeExERERER2f0UVonsBjNn2pG/gw4K17ZuhdtugxdeGJuF65kMzJ8PN99sg7ShgvHExka3Z3ElSYy5lFFKIUF3k8HQRgdraSbiaG9V//OjHEgl+RQQBFYZDFtoZhXbB784Lw/23ju8syqQSk38RWIiIiIiIiJvQGGVyG5SXQ233w6zZ4drtbW2+2r1avc7tY2xzTrvfz9cd1243t0NDz4IV17p9hwulZDkGGbTv2Tdo40M/6De6XMNECfKIipZRCXB3iwf2Ewzfx86ChgsUh/K8+wtgdu360ZAERERERGZ9BRWiewmiQQceihccEG4lk7DU0/ZEbxg+sulYOH6aafBmWeG652d8MAD8P3vuz2HK6XksZS9SJAkuJWvE5+nqaOeNmIOPwoNhlKSHEIlDLgBsJ00T9Mw5MXG/vKHW7AeBFkaAxQRERERkUlOYZXIblReDp/5jA2lhurthUcegeuvtzmF53ZaDd+H6dPtWQ4+OFzfsgW+/nV7S+BEU0CcRUwnTpJgFDCLYTMt1NJC1PFHYQFxDmQGkCAIy1JADU1so6v/hfG4bbUrLLS/kKGMsa1uIiIiIiIik5jCKpHdrKICzjoLTjwxXNuxA374Q3j4YffjgGAvnJs9G265BRYsCNe3bIFvfQvWrnV/llzygDLyOIwZDOxu6iC1s7tpmF6mnMknxpHMZiblBKOAaWA9jYMXrcfjdnFYXl64u8rzbNfV+vXDd16JiIiIiIhMEgqrRMaBuXPtUvXDDw/XNm6EK66wY4GuF64HzTzHHgs33hiuZzLw3HN24fpE4uFRQQFLWYD92LNhTxsp/k4NrfQSc7Ro3QA+hlkUczRV9O/Ngha6+QtrMUFUFowBptOjt9K5brMTERERERHZjRRWiYwD0SgccAAsXx7eT+X78Npr8JWvQFeXDaxcNdYEGUgkYju9Lr88/JreXnj8cfjGN9ycwZVCEhxCFRAjGMXrBdbQRBNdxHC7C6qUPE5mPv1hmUc7sIJ6mumxL/I8yM+385gj3QiYydgwS0REREREZJJSWCUyTiQScMQRNgQaGlgFHU1XXWVXFrnese37UFoKF18Mn/1suL59O9xxB9x9t9tz5FIMjyqK2Z9p2FE8q4MunmbTGDw/QhUlFJCH3ZtlO65a6GQL7fZFnmdHAKdNszOZA3meTSk3b7btdiIiIiIiIpOUwiqRcaSsDD7+cfiXfwnX2trg5z+344LxuPuzZLMwZQqcdx4sXhyub9sGd91lQ7SJIEqEKeQzjxLsKJ4HGLrpYQ1NTp9tgChwIJW8gxmDnt9MKw9RM+DFZuSuqqAuIiIiIiIyiSmsEhlnZs+Gm26CU04J15qa4N//HR54wP3+KmNsh9VBB8HNN9uGn4GC8cRzz4VVq9yeJVdKSXIi82HnfqoI7RieoJ5Oh3urwAZWpeT1PT8InCK04vM3avv3Vnmeba0baS/VG4VZIiIiIiIiE5zCKpFxxvOguhpuuMF2Ng21fj1ccw00No7N/irft4vfv/a14fdprVplu70mwhqlIhK8iznMoJxg0XkawzoaeZbNRB1/JBYQ5zjmUU4xwShiCp9VbOYFttgX5eXBPvvYX26w8X6gnh5Ys8bpOUVERERERHYnhVUi41A0CvvvD7ffDiUlg2vGwMqVcOmlsGOH+5FAY6CgAP7t34a/BbCjA371q+FvDxxv4kSppJgKirB7o+woXiedrGMHOO6siuExjzLKKNz5fIOhjQ7W0Wxf6Hn2H4DROquG7rMSERERERGZRBRWiYxTRUVw+unw1a+Ga11d8Pvfw/XXj55r5Irv29DszDPhpJPC9R074D/+A/78Z7fnyIUSkpzAXPqXrHu04/M49RiMw7gKDIYSEhzDLILOLvBoI8uj1Pa/MJu1f+ijBVbaXSUiIiIiIpNUdNmyZct29yFEZHjJJMydC1u2wKuvDq719kJ9PUyfDocc4rbZJshFpk2Do46CJ5+0l9IN1NwMTz1l67NmuTvL2xXFI4vPH1hLuq+7KYsBfJYwnwoK8XEXBMWJ0kmGB1nXF5d5ZPDxMLyXhZSQtDOVNTW2bW3o1Y/Bzqq99rItbyIiIiIiIpOMOqtExjHPswvXr7nG7rEaatMmu9tqzRq3C9c9z2YkqZQNzy6+GIqLw6+rr4dbb7UZy3iVT4x9mUYB+QSjeD7QRBs1tBB12lsFSaLsSwVxEjufnwUaaWEjbRCJQGGhXVg20iJ1LVgXEREREZFJTGGVyAQwfz7ceSdUVYVrGzbY8Kiuzu3+qmAiLRqFU08dfjyxuxv+8Ac4/3z7n8cjAxSS4CiqgP6t8O2keZJ65882wHQKOZyZQ56fYgV1fS/s20s10hhgOg0tLU7PKiIiIiIisrsorBKZAPLyYMkS20U1VG8vPPIIXHutDZKGTo3lmjGQnw8f/zh89KPhemen3V31s5+5Pcdb5eFRTh6nsBcRYtj4yKODLI9Ty3a6iDn8aDQYppLPEqqxH8F25LCVNI+wgQ5SNqQaevUi9IdXnZ12TFBERERERGQSUlglMkEUFcH73gcXXBCudXXBn/5kbw8cq4XrM2fCzTfD0qXh+pYtdvn7Aw+4PcdbVUicg6gEEgRhURpDHc000E7U8UdjEQnexVwKd94KGCEFrGILq9hu08B99rEjgUMXqRtjf8Gur4EUERERERHZTRRWiUwglZU2rDr00HBt2za47Tb4xS8gkXB/lmzWBlYXX2zPNdTmzfY8DQ3uz/JmRYhQSRGHMwM7imfTvXa6+QcbnT7bjgIa9qKcxUynfxTQ0EqHvRXQ80ZukQuSyI4O7a4SEREREZFJSWGVyARTXQ3f/jbsv3+4tnWr3W316qvuA6ug4efEE+F734OSksH1VAoefRTOPXf8rVeK4FFCkmrKsJ1NVg9p1rID4/A2wEA+cRYydcB3PHowrKWZDNhQargWOc+zrW11deN3MZiIiIiIiMjboLBKZIKJx+Gww2D58nAtk4EXXoCrr7ZhkutJMb8v5zn2WDjnnHC9txeefNKGWeNNKUlOYj4Q7Iby6MDwBPU00U3C8cdjKUmWshexAbcCduCzgjoa4yl7DeT06cN3TwWdV64XlImIiIiIiOwG0WXLli3b3YcQkTcnFoNp06CwEB57bPBao2zWjgR2dMAJJ9hcY+jao1wJGn/y8uCgg2DTJnjttcGv6eqCV16BZBKOOsrNOd6KGBEMHn+lhhY6gAgGg0eGg6hiXyrIDui6yrUoEZJEeZD17KAd+pa9x0iznzeDA3tK4PXXoa0tHEoZY//Q99nH/kMgIiIiIiIyiaizSmSCmjrVdjOde2641twM990Hd989Nnu4jbHh2YUXwsKF4Xpjox1PfPFF92fZVVEiTCWfKoqBLHZvlaGHHtaxw/nzDYYpFHAy1QwcRWwhzV9Yb/9QM9nwDwbpY3OzbgQUEREREZFJSWGVyAQ2bRp87nPwrneFa9u3wz33wOOP264ml3zffh1xhH1mVVX4NRs22DCrvt7tWd6MUvJYQjXs3FEVoR3DCupIk8X1kF2SKNWU4RHspvJIYaijhXQ8BtMrR26L8zx7W6CIiIiIiMgko3/TEZnAolHYbz+7vyovb3DN9+0U2Re+YP+aTLodBzTGjiAuXmyfOVQmAy+/DHfc4eYMb0UJSZYwn3JKsN1V0IvPSrbyMluJOIyrDJBPjHcxl7IB3V1pDDVs55lkB8yeP/wvLfgD7+1190sVERERERHZTRRWiUxw8Tgceijceivk5w+uGQPr19taZ6fddeVKsL8qPx/OPtsueR+qtRV++EO45prxkbEkiDKbUkopIFhybjC00c56mokwzG18OeUxhzKOYQ7Qv0h9B508aNZCJgXD3UzoeTYZXLdu+AXsIiIiIiIiE5jCKpFJoKQE/s//gcsvD9c6OuA3v4FbbnEbVgWMsef5t3+D444L15ub4ac/hYcfdn+WXVFCgmMHhUUe7WR5nI1j8HRDATEWUM7AvVU9ZFnPDvwI4L3Bx7TnOlATEREREREZWwqrRCaJKVPgzDPhtNPCteZm+I//gN/+1v3+KrBNP7Nmwe23w777hut1dfDFL9p9WrtbKXksZS+S5GG7mDw6yfIMG6mjlZjjj8kSEhzDPLwBz+/G56XkFjbML4OyCsikwz8YzF2mh6mJiIiIiIhMYAqrRCYJz4P5821AdOSR4XptLVx2GfzjH273V4F9b9+HffaBiy8Od3T5PqxaBddeu/uzlgLi7M904iQIRgGzwFZa2UgrUYcfkwaI4LEf0ziQ6UAaO4oI271WHk1shkgiPAkYdFNt3WqTPxERERERkUlEYZXIJDNrFlxxBZSXh2sNDfDNb8K2bXbXlStBlhKPwxln2GcODawyGXj6adthtTsDKw8oI8nhzMSGRVY7vTyJvbrQVa5nsPFYJYWcwLwBT/JoJcXDZh09pBj2ozpIBMfD8i8REREREZEcUlglMsnk58PSpbBsWbjW0wMPPQTXXWdvEow4/gQwxt5S+OEPw+mnh+vt7fC//wu//rXbc4zGw6OCApayAPuRaMOfdtL8nVpa6CHmaNG61/dVRIIjmcXAj+Quz+OFgh465k+DjD/MD/edKZt1cjYREREREZHdRWGVyCRUWgof/ajdYTVUezv893/bW/lcdlcFfB8qK+Hmm+F97wvXN22CK6+E3/3O/VlGUkiCxcwEYgR7o3qBdWyniS5iRJ092wBRPOZSxgxK6e/uMnRFUjyf18qIH9XpNKxZ4+xsIiIiIiIiu4PCKpFJqqrK7oR673vDtS1bbHfVH/7gfuF6sAd83jz4yleGH0/cuNGep6nJ7VlGEsOjihIWMZ3+WwEN7XTtHAV0bT7lfd1VWWy/laHTdLAmvRXMCGGZMXaeUkREREREZBJRWCUyiVVV2aXq8+aFa5s322XsNTVuF64H02qZDCxeDHfeCQUFg1/j+/Dqq3DeeXaf1liLEmEKecylhGDJOkAPvaxjh7OdVQOVkuQk5sPOLi6P3liEjVNjZOKMvjhLe6tERERERGQSUVglMoklEvCud8ENN4Rr6TSsWAGf+xw0N49Nh1U0CiefDJ/6VLje3Q1//jMsX+72HCMpJa8vLApEaMewgno66XW2twpsDpUkxlHM6RsFtN1S7Ul4Yh6k87EZ2kCeZ/9Q6+ttq5yIiIiIiMgkobBKZJIrKIB3v9veEDhUOg3PP2+7naC/C8oVY+wY4NVXw//7f+F6ayvcfz/86EduzzGcIuK8kznMZArB3qg0hhq28gybiDr+uLS3EuYxg2KCNirPQCJj/xr+gQEta+qsEhERERGRSURhlcgeYNo0uPBC+Nd/Ddd27IB774Wf/MR2YrlmjF24ftllUF0drm/ebJexr1vn/iwDxYgynSIqKCJYsg6GLnpYTws47KwCMBimkM/JVNO/N2sXZDI25RMREREREZkkFFaJ7CEqK21gddBB4VpjI3znO/Dii2MzDpjJwD77wPe+B3PmhF+zfr0dT6ytdXuWoUpJsoS52CXnAB5tZHmMegzGcVwFxcQ5nmryKAR8MhHYUAaPzab/ksChenrs4jEREREREZFJQmGVyB4iFoNDD4V77rGL1wfKZm1Qdd559mY+lwvXwS5UNwaOPRa++tVwPZWCJ54YvuaS3Vu1gKK+sAg8evB5mXpWsp0oI9zKlwMGiBChkiLKKbDP96A3Cm15jLxg3fPsL1dERERERGSSUFglsgeJxeCAA+Dyy8Mjf9ksrFwJt95qw6RYzP0NgfE4nH46XHRR+DVdXfDHP8JNN9nzjIU8oixkKgXkEYRVPtBMO7W0Eh2DUcBZlHAccwhaqSJAPDvaDxno7LQLyERERERERCaB6LJly5bt7kOIyNjJy4MFC6C3F558cnCttxdWrbJ7rN7zHpuDuOywMgYKC+1I4BNP2H1VA3V1weuvw+zZcOCB7s6x8zxAFxleYyur2AzEAUMEw3RKOYn5ZEPX8uWOB8SJ0k4vf2ANEMH3PIpS8P612ORqaF5mjA2q9tsP8vOdnU1ERERERGSsqLNKZA9UUQHnnANLloRrra3wy1/CAw/YzifXslm7t3Dc9tEAACAASURBVOrOO4cPpLZsgdtug5decn8WD48p5LOUvYj2BVXg0YHPP6ijkU5iDj82DZAgymKqmEcFkCEdgS1FjPxp7XkQidgvERERERGRSUD/diOyB4pEYN99bUC0//7h+saNdlTw5ZfHZn+V78PixXDtteF6NmuDqmuvHZtxwAJiHMh0IEGwKCqNoZ5mttBO1HFY5WOopJC9KAUyeAaSGRixoSvYWN/V5excIiIiIiIiY0lhlcgeKhKB6mq48ko7GjiQMbBhg91f1dVl91u53l/leXDSSbB8eXifVm8v/P3vcMUV9j+7FCw5P4IZ2L1R9oBt9PAYdU6f7fV9FZPkncwBPLIR2FEAzX071wf/QN8fXlsbrFvn9GwiIiIiIiJjRWGVyB6sqAg+8hHbYRUdctFdVxf8z//ABRfYjibXI4HB/qozz7RfQ7W2wk9/Cvfd5/YcETyKSTKPMgamQ72kqaEFf8Rr+XKnkDjHMpcSikjFsqyeCq9NBzIj/EAwCigiIiIiIjIJ6N9uRPZwRUXw3vfCxz4WrnV2wp//DPffHw6zXPB9mDIFvvAFOO64cH3bNrjrLttl5VIpeZzMAiDW9x2PdgyPs5Emukjg7g/DYAOzfahgEf0JVXS0jMwYSKXczmuKiIiIiIiMEYVVIsLs2XD99XD00eFaQ4PdF/Xoo+73VxljA6t994VrrgmPJ/q+vR3wggtgzRp35yggxmJmsoAKglFAH8NmmnicjXihK/lyy2AoIckJzAN8PCA20s4qz7N/MDU10NPj9FwiIiIiIiJjQWGViABQVWV3Qk2dGq41NMA3vwmNjTZAcr2/yvfhne+044nFxYNfY4zNZa6/3o4GuhAlwlTyqaIYyAZPpode1tPi5qFDJIhSTTlxkrTkGR7c+w1+wJj+P0AREREREZEJTGGViACQnw/vfjfce6/9zwP19sJf/wqf+5wdDRy6AD3XjLE7sj74QdtFNVRnJ/z+93D77e7OUEqSE6mGnTuqIrTh8xi1pMgQddhdZYA8YryTOcyinFQ0w+ai0X6gryUtM9JSKxERERERkYlDYZWI7JSfD8ccA2edFa719sITT8D3v293ebtu4jHGdlV99rPwoQ+F6zt2wI9+BL/8pZvnF5PkBOYzhRKCvVEpDKvZwktsJer449NgmEoBxzGHiMmQnyZ8GyD0/yK2b7ctZyIiIiIiIhOcwioRGaSyEi67DD7wgXBt2za4+Wa4+2733VVgm4XmzrXPPOywcL2uDr78ZXj66dw/O0GUWZRQRgG218nDYGinkw20ON9bBZBPjGrKSUeibC6GrjyGD6yCzip/pMVWIiIiIiIiE4fCKhEJmTEDLrkEFiwI17Zuhe9+1y46TybdnsMYSKdh1iy46iqYPj38mk2bYPlyG6TlWglJjmMuQWcVeLSR5THqcv+wYRST4Hjm4yeKeG6WT8MU+ldoDRR0V+k2QBERERERmQQUVolISCJhbwa8914oLw/X16yBL3zBTp65vCHQ8/rf+6ST4Morw6/p6YEHHoBzzrGjirlUSpKl7EWSoKXJo4ssz7KRDbQQc/gRagAfQzWlHMkMIiZFYqSVVJ5n91WtXavASkREREREJjyFVSIyrEQCDjkELrooXEun4aWX4I47bE4Si7k7R9A0lJ8PZ5xhd1gN1dsL//iH3aeVS/nE2ZdpJEgSjAJmgUbaqKfN+d4qgCnks5QFpKIRNheZ/n3vQwVtaLoRUEREREREJrjosmXLlu3uQ4jI+JSfD4sW2TBqxYrBtZ4e+Oc/bVC0ZIn7dUnBwvVDDrHPXb9+cL2z035/331h4cLcPbeHDK+whXVsBWKAIYqhijKOYx7ZYZdI5YYHRImwnU7+x6xkWofH8es8iI/wAxUV9hemwEpERERERCYwdVaJyKgqKuAzn4GjjgrXduyAH/8YHn98bBauZ7N2n9aVV0J1dbje0AA33QTr1uXmeR4ehSSopoyBLU29ZKihxWlQRd8TI3jsy3QqTQW9fnqUFxvYvBnq652eSURERERExDWFVSLyhubPhzvvtDfzDVVba/dXPfOM+4Xrvm8zmeOOsyN/JSWD6+m0Dc7OOgtaWnLzzFKSnMQCIEEwCtiB4Uk2UU8bSRzOQAJgqKCQo5mHlx0hHAs6qTIZm+iJiIiIiIhMYAqrROQNRaN2vO7KK8P7qXwfVq2yN/KlUrbucuF68MzFi+HCC+3ZBspk4OWX4fbbc/PMJDH2ZzoHMQNIY4fzYActPEJtbh7yBkpJcHyymper82grNIzY0JXNQlvbmJxJRERERETEFYVVIrJLSkrgX/8VbrklXOvthb//HS6/HCIRtwvXoX9/1bnnwsc+Fq7v2AHf/a4N0N6uCB4lJJhDCQNTol5S1NCMGXHjeW4YIEmEA6OV+KVFdCQyIy9Z7+mBmhqn5xEREREREXFNYZWI7LLSUvjQh+B97wvX2trgt7+F3//efVgFtruqogIuvth2WQ3V1AQ//CE8++zbf1YZeSxlwYDveLRheIyNdJAi5vij1GAoNXEOzU4ffczP9dWMIiIiIiIiY0BhlYi8KXPnwre/DSefHK5t3AiXXAIPPuh+f5Ux9uuww+Cee6CqKvyamho47zzYtOntPauQBEcxmyqmYkcBIYOhlkaeop4o7m/fm0I+R8bm01wQAX+Ubq7ubru8S0REREREZIJSWCUib4rnwbx5cNVVdhRvqLo6eyNfa6u9IdD1/qp02u7TuvzyN96n9VbFiDCNQqZRRLBkHQxd9FBDC4xBWBWNxCkrms2r8wogM8zSKs+zf9j19XYOUkREREREZIJSWCUib1o8DkcdBXfdFQ6IMhl4+mk4/3wbJMXjbs9ijO3i+vSn4brrwvX2dvjZz+BLX3p7zykljxOZBwRjeB5tZHmMjRiM07gqiMdmmDwWZcoHnGEYnmcXh4mIiIiIiExQ+jcaEXlLCgvhpJPs0vWhurvhb3+Dn/40fFufC8ZAURGccQacckq43toK//3f8Mc/vvVnlJDkROZTTCF20bpHDz6vsIl/so0Ybv9GIxhmR4o4sGAeREa6DhDbTtbd7fQsIiIiIiIiLimsEpG3rKoKrr/ehkRDbdkC115ru5pc768C29E1axbcfrsdCxyqrg4uvRRef/2tvX8eUfZiCgXkE4RVPtBCB3W0EhmDUcBsXpLevaohmWdDqYGCucj2dli71vlZREREREREXFFYJSJvy8yZNgSaOTNc27IF7rjDLl5PJt3trwL73pkMVFfD1VePvE/r61+3nVZv+v2BYhIcwyyCJesAbaR4jLq3fO43zduFUGxXXiMiIiIiIjJOKawSkbclGoWDDoJ777WjgQP5Prz6Kpx9tg2KEgl35wjymWgUPvhBuO22cGbT1QX/+79wwQXhxqQ3fH88yshnKXsRJU6wSaqDLE9SxxY6iI3FR6qftYcfLZBKpd7836CIiIiIiMg4obBKRN62ZBKOPBI+97lwLZWCJ5+EW26xe79d7/42xoZi733v8OOJXV3w0EN2n9abVUCM/ZmGRwIbVkEG2EQLW+kg6vojNeJhyqbiT59u28iGCm4E3LABOjvdnkVERERERMSR6LJly5bt7kOIyMRXWAgHHww9PfY2wIFSKZufxGJwzDGQHeUyu1wwBkpK4NBD7Vk2bRpcb2+HZ56xO64OPPDNvLNHL1meYxMbaQJigCGGYR5TOJLZZHHX0WQ8IAvR2g1Etm4d/qrFYNv8wQe7bWUTERERERFxRJ1VIpIz06fD5z8P++8frm3bBvfcAy+9NDYL17NZG0Z95Ssj79O67TZoaNj194zgUUSCeZTCgFCqhwzracHH4VKuQLCca7QxQN8fvvNKRERERERkAlBYJSI543mw997wgx/AfvuF6+vW2VHB115zv3A9WNl0yinw3e9CXt7gejYLL75o92l1d+/6+5aRx8ksAKL0763yeZyNbKeTBNEc/R2MIBLB5OfDcLcPBgFWc7P9wxYREREREZmAFFaJSE7F4/COd9iOpqGyWXjlFbjhBhtUxePuAquBjUdHHw3nnBN+TSplxwG/971df998YixmJnsxDbuxysMHtrCDFWzEGy5EyiGTn4e/cC+7/Gu4PzxjbFKnBesiIiIiIjJBKawSkZwrLIT3vx++9rVwrbsbHnwQvvxlSKft7X0uGQPl5fZ5554brm/bBjffDN/5zq69X5QI5eRTRTH9o4CGXnqpoWUsBgEZtqtqKIVVIiIiIiIyQSmsEhEnpkyBT34Sjj02XGtpsbfx3X//8DvCc833YepUO4K4zz7hemMj3H03rFy5a+9XunMUMAiEIrTh8xi1pMgQddldZQz42ZFb0iIR28K2bp32VomIiIiIyISksEpEnKmutiN2Rx0Vrm3dahecr1jhfuF6sG980SK75L28fHDdGBtUnXnmrgVWJSQ4nmqmUoodBYQUhjVs5QW2EHX00eoBXiyCmV6JmVI2ehiVTrtdCiYiIiIiIuKIwioRcSYSgYUL4eqrwwvOfR9Wr4ZvfAN6etwuXA/2V2Wzdp/WRReFX5PNwquvwk03vfE54kSZSTGlFBAsWTcY2umklla3e6uiEUxRCaaocPSDjnZboIiIiIiIyDgWXbZs2bLdfQgRmbxiMZg5E2bPhr//3S41D2SzsGUL1NXBkiU20HK9aimZhIMPtuOHjz02uJZO27N0d9vzjCZFlhqaeIGNQDDLaCilkFNZSBZXfyMeXlc30RdfwuvsHH7plzG266qqys5jioiIiIiITCDqrBIR54qL4YMfhLPOCtc6OuB3v4Pvf9/9snWwYVhpKXz60/DOd4brO3bAT35ixxNHU0YeJ7M3SfKwu6s8ujA8x0ZqaCbm6OPVYDDJJP7sWcN3Vnme/X4qpZ1VIiIiIiIyISmsEpExUVEB558Pp54arm3bZndb/fa37vdXBU1H8+fDvffCEUeEX1NTY28OfPLJkd8njxgLmUqCJMEoYBbDdtqpp83Z3ioAE49jpk8beQwwCKza252dQURERERExBWFVSIyJiIRu3D9yivDC87Bjt/deits3+5+f1UQWO29N1xxRXifljH2Mr0bb7QjgcO+DzCVfI5lNpDe+f1WeniEWjeHH3jAzBssUE+nYf16t+cQERERERFxQGGViIyZWAwOPxx+8AOYNm1wLZuF556zo4Jbt9qdUq4Eu8c9D045BZYvD7+mtxf+9je7jL2jY5j3wKOAOPMoG/xz+NTSQoasg5MHD/cgnoBozDZ1jfSasZirFBERERERyTEtWBeRMRWPQ2Wl7bT6298G1zIZaGy0fz3lFNs45KrDKpBIwJw5sGaN/RoolYL6ervj6sgjwz8bJUIGwy9ZSTAKmAZ6yHIq+1BBYc4XrXuAF41g4nGiq9fgdfdAdIT/36GsDPbdV6GViIiIiIhMKAqrRGTM5efbEbymJnjppcG1nh47gldSYvdJZR02KIENw0pL4Zhj4PXXw5NzXV2wejUsXGi/BoriYYAn2MhWWoAYYIiRYT4VHMJMR7cCenhdXcRefhWvpzccVgWzjr29djlXaamDM4iIiIiIiLihMUAR2S1mzIAvfhHmzg3XtmyBm26CRx91u78K+vdXzZ4Nl18e3qdlDGzYADffbG8KHCiCRzFJ5lACA0KpXtJsoAV/xBm9t31q8LNvnORFIuqqEhERERGRCUdhlYjsFpEILFoEP/6xXbw+1KZN8PWv204n1wvXAXwfjj4a7roLpk4d/JpMBp56Cs4+295cOFAZSZayADugZ0cB2/F5jFo66CXm4GPW4GHyCvBnzrQHH4nvj7whXkREREREZJzSGKCI7DbRKFRU2JG/P/xhcC2btTcDtrXB6afbUGm0XCYXIhHbYZVKwYoVg2uZjF38Ho3CCSf0fz9GBA+PB6ihnS4ggg94ZDiYKhYyNfejgB7ge0S2NxLdUDv8NvqgZSyYuRQREREREZkg1FklIrtVcTF85CNw5ZX9XU6Bjg749a/hhhts9jK0nmvG2ODsvPPgjDPC9R074O674Yc/7P9ejAgVFDKNQoLOKjB008MGWtwd1jfQmxr5NkCw5/H0MS8iIiIiIhOL/i1GRHa7adPg85+H004L15qa4J574He/szf3ueb7dp/WRRcNv09r82ZYvhyeeab/e6UkOYlqINgh5dFGlkeoxcfHw0HKFo/bgyYTI8xIeqSA+nQTbX5v7p8vIiIiIiLiiMIqERkXqqrg6qvhHe8I1zZvhhtvhOeft/urXPJ9Oz23eDHcd9/wgdXGjfClL9nF6xCEVfMppgj6hgB7MLzGZl6hMed7qzzAS8Twq2bYPxB/mLDK84gaQ1FtAz2t23P6fBEREREREZcUVonIuBCLwUEHwVVXhS+wy2bhhRds99X27e4XrhtjQ6sjjoALLgi/JpWCZ5+F22+3/z1JlPmUU0QeQVhlgFY62EgbERedVQbIZEdd5GWMocnvZAV1uX++iIiIiIiIIwqrRGTcyM+H97wHvvGNcAeV78Pq1XYEr7vbhluuBLux8vPhU5+Ciy8Ov6atDX7+c7j5ZpsbFZPkeOYB6f7XkObvbHB70OjIfxAeHr4xbMg20Z3rJe8iIiIiIiKOKKwSkXGlrAw+8Qn7NVRrK9x/P/zsZ27DqoDv2/NccAEsXRqub98Od90Ff37QI48Y8yiFAV1UvfhspJUU2ZzvrTIRg18+lezc2ZBOh1/gQRSP0jafwjUbWUtHTp8vIiIiIiLiisIqERl3KivhssvgxBPDta1b4bbb4K9/db+/CuwI4syZcN11sGhRuF5fD9dcAw0v5vEBFhCjgIF7q16kgZVsJ0E0/MNvh4e96S8aHWUm0iPrw6ZMM49Qm9vni4iIiIiIOKKwSkTGnWgU9t8fvv3t8IJzY2DVKjuaV1Pjdn9V8Dxj4MAD4dJLITLkUzObtYvfLzo/wuz2ck6iCkgRdFi10sFD1Lg7XCYz6ksiQA9pHma9mzOIiIiIiIjkmMIqERmXPA+qq21HU2lpuF5bC8uW2dHAeNztOcCOHX7wg3DDDeHnZbPwyj89bvl6nMpUad96dauXDBtoIetgZ5RJxPFnzghvpN95eCjzPU5Zb8j0tNHOMOOCIiIiIiIi44zCKhEZt4qK4H3vg3POCdc6O+E3v4ErrrBB0kh5Ta4YAwUF8MlPwoc/HK43tcDPfp7Hll/uRZIYdu26RzvwOHVso5NkDkcBPcBLJDBVMyEWGbG9LGY8CtOGf5qtPE1Dzp4vIiIiIiLiisIqERnXKirg/PPhox8N1zo64E9/gv/8z7FbuD5tGlx9NRx/fLjeujnGX26ZQc/qaUAG8DAYGmnhMeogx0vW8Q2kU5D1+1vAhvLA96CJLh7QKKCIiIiIiEwACqtEZFzzPJg3z47fHXhguL5pE1x7Lbz44tjsr/J9OOAAu+S9snLoCyLQlgebi2Hn2J+hl1420ELOjxb1MMWlmJKSEXdXRXyo2g7H1GZZSTPZ3J9CREREREQkpxRWiciEMHcuLF8OM2aEaxs39t3I1wCJhLszBM1LqRTss4/dp1VcPORFLXnw1wX0h1UR2vB5hFp6SRPNZXdVFEz5FMzUKcOHVZ7t5UpkPEpSsJ4GNtCcu+eLiIiIiIg4oLBKRCaEvDxYuhS+9a1wrbcXHn4YvvhF2/3kcuE69D/jAx+AT31qSLE9AY9WQ2MZdhQQ0hjW0chzbCaa649dg93wPsoYYMJ4zOiEHbTyN2pz+3wREREREZEcU1glIhNGfr7dFfX5z4drPT2wYgXcddfIuU0uGQPl5XDJJfChDw0oZKKwtQiaC7HdVfZuwA66qaMVL9d7qwC8UT7KPSjNwMk10GpS/JX1dOtWQBERERERGccUVonIhDJjBlx66fALzhsb+f/s3XeYXVW9//H32vu06SV10qakUUIgIDUBgyhgQ396FRGvqFdFUBBULJerBgQRQQgq4AULcvWKesXCvaj03kkCJJBCkmnJlGR6PWXv9ftjz5mSk5lMkgkwk8/reeZ5Mmfts3b545zkk/X9LlauDFZZRaMH/lqsDfppXXNNUBbYry0Gj5QCXv9L7STHfFWTBfysLLwF8xipebsFUq6hx8BaGulSWCUiIiIiIm9hCqtEZNyZNQuuugoWLswcq62FK66A9esPfGBlLSSTMHt2EFj199NqiwZ9q3qySK+u6sayhlpep4nQWH70OmaPN+oAWXHI64UuulhN3didX0REREREZIwprBKRcScSgRNOgJtvDnpZDZZKwbPPwhe/CJ2db0xg5Thwxhnwgx/0vdgbgi2TIB4jWNdk8LE008E2Osa2b5W1kEoG2xTujoGIhQV1hhO2QStdPMhW7QkoIiIiIiJvWQqrRGRcCofhqKPg618H1x06lkrByy/D9dcPhEkHkrUQCsHpp8NnP0uQTzVnweOzYFDJXRtxHqZybE/uOtjiYsjJHj6wAqyBlGPowPIk1XQSH9vrEBERERERGSMKq0Rk3Jo0KQiHPvCBzLHmZrj1VvjhDw/87oAQ5ESTJ8M3vgHHH2+gJwRVBUOOieNRQyvgjUmbdQOYsIs/dTq2ID/YFXAYroX8uMHDso2dPE3tGFyBiIiIiIjI2FNYJSLjWkkJXH45HHdc5lhTE/z61/DMM29Mw3XPg5kz4ftXw/y8GNwzF4iQ7lvVZeHxnm08u7OdCKGxO7H1RlxVBVDUA+/dFPy5hyRbaR2784uIiIiIiIwhhVUiMq6FQkE54C23BCutBrMWNm4M+lc1NASBlT2AzZrSedHSpfCjH7qEXp8ET5UQlAIawFLd1sGK+6voaYIxy88MYEb+ODeA6bv3VpI8wGasOleJiIiIiMhbkMIqERn3HAfmzYMVKzJXUFkLmzfDlVdCT08Qbh0oJl3bZ+DEkwxf/1wUqgsGEjIDSTfB85tb+MFVtm+91f6xWGwsB29uxYhlgAaI+BDyDXEsr1LHWnbs59lFRERERETGnrtixYoVb/ZFiIjsr1gM5s+HggJ44IGhY4kEbNoEra1w5pl7rJjbb9ZCLAuOPN6QyInzbPEGMC7B1nzQaw2vfmcRxgtxysk+w0dMo5TycepqcbdUDtugK2whmoQHKww7cixZGE6mgvlM2u3xIiIiIiIibxatrBKRCaOwED760SCQ2lVbG/zpT/C//wuRyIG/Ft+HIifMefNnMttMAlLBQMhC6U6ajqjmV3fAU0+PQTmgBbyRS/oM4HoDK7la6eWfbN7fM4uIiIiIiIw5hVUiMmEYA2VlcMMNUF6eOV5dDV/+Mjz00IHvXwVgfYe8eDaTbS7pJusYCzm92AWtbNxkOP/zIda8bIjCPnWQMoCJhbFzK7B5eSMuGzNA2Av+1InP09TQSNc+nFVEREREROTAUVglIhPOnDlw9dVQVJQ5tn07XH99sFPgMBVzY8ZaKPCjnOqVE4RVAAbyPVheibVQuRVu+JFDdy/7vj+gcbBZMQi5u0/g+pZTFXWmdwQ0+EA9zTxFzb6eVURERERE5IBQWCUiE05ODrz//XDddZljiQQ88QRcdlnQbN11D+CFGMgxMd7uV5Bn8wAveDHmw2Hb4fBGursM//c3w5VXOITY14brNmiu7nmDurxncnzITg68p5te1tG4T2cUERERERE5UBRWiciElJsb9K76xCcyx7q64L774I47DuzugBYI4zLLFpBHjP5SQAco6ILSVgBaWw1/+L3D/94L+9ROyxhsNIYtKBhxR8D0NQUcOrE8y3YS6X5aIiIiIiIibwEKq0Rkwpo5E77/ffjQhzLH6urg29+GP/7xwPavshYm2ygne6UwOBQqSMBplf2/Vm01fPlLIR55dO/7V1ljsdl5+DNmQGqY4MlAvoVTK2FKX5uqOJaN1LOOHXt7WyIiIiIiIgeMwioRmdBKSuArX4HZszPH6uth5UqoqgoCqwPBAlk2RKktZEiRX9SDWW0QHQiX6rYH/auaWyDGXjZctxb8kVdVuRby4uD69F2LpZl2HqJyxPeJiIiIiIi8kRRWiciEFgrBMcfAj3+c2c7J82D16mCHwFTqADVcN5BvorzdryBCDv19q7KAo7bBvOb+Q+Nxw0MPGi78oktbJ+z15ewh3bKA54Df/xwc2vF5nOq9PZOIiIiIiMgBo7BKRCa8WAxOOgkuuSRzLB6Hp5+Gm24CxxmxP/k+sYC1DvP8Ao73ZwJJ+ldYFXbA6ZuHHN/TbXjkQcOvfuUw2t7vBiAWw58/N1gi5vu7PcgAk1vgXVsGXk4BO+mgjo69vDMREREREZEDQ2GViBwUpk4NdgD8/Oczx3buhBtugFtvhcg+dTjfE0MOEeb4BQxZ/hT1+pqsD10StaPRcON1Dnf/eS/6VzkONisrSNyGuwoLoWRQCpi+Lg9LFY08odVVIiIiIiLyFqGwSkQOGlOnwgUXwOGHZ47t2AG33QavvHIA+lcZKCDKqf5cIEQQPxlMHmS9o5r8+d0Zb6mvg5U3OlTVBP2r9swGdY27W1U16DpCBib1BMFVWhsJHqZqr25JRERERETkQFFYJSIHDdeFRYvg5pshJ2fomO/DunXw2c/C+vVju0OgBUKEOdqfxgI7jaD4zoBjKV7Qwsdu2krFlKHvSaUMzz9rOP/zLnWNsKcFX9YFf9IU/BklI+4IWJCynLbFEk4N3FwCyzZa6SC++/eJiIiIiIi8gRRWichBJRSCI46Af//33TdcX78+2CEwlQrCrbFjKCBKic0DgtVPFvCiCeYd18yFX8xMxhIJwwvPGW692cGBkXtYGSASxWZnjbC6yga9q9wQUSe9wsshDqxjO6+yc99vT0REREREZIy4K1asWPFmX4SIyBspKwsOPTQIrh5/fOhYIgGVlZBMwqmnBgHWWDAWXAs7TQ8PuxtJ7/WXwMdkh/iPhYfS2uqwevXQBK23x/Daq8EqrKUnpWOuYc7Rk8B9dR1OU3Nwc7vhYCC3mDWH5LIl0koQvm7WoQAAIABJREFUgVkcPKZRyCmUjsn9ioiIiIiI7CutrBKRg9KkSXDeebBsWeZYczP85jfw6KNj17/KGsgyUZb6ZUyxRQSlgJAANtPIlqnb+eIX4bBFmSusdu4w/OxWl6eeMSOXA7ouNj9/+C0NjcFYS1FjO++qiRJ0wwr6Z7Xj8QiVtNK7X/cpIiIiIiKyvxRWichByRiYPx9uvx3e9rbM8ddfh/PPh2efHbv+VQ4O0202ReQQrJEKQqVOetnstrHoCLjt5ynKKzJPVl1p+NqlLhs3w3D5mY3F8CsqwDgjXnAUh3JTjMPA6qskhm20066+VSIiIiIi8iZTWCUiBy1jYM4c+NrXIDs7c7y2Fm64Abq7IRbb/8DKWiiyMZZ7ZcBAfWEbSR6minAIFh1iuOiSzGI/z4PXXoUfr3T6GrYHa6J2OQP4e6pbtMQsHJoo5BAmAUmC0MzSThuPUbnvNygiIiIiIjIGFFaJyEEtOxvOPBOuvjpzrKcH/vEP+PKXoatr2DZQeyVqXUptIU5frygwJPGpp51W4mQXwHnn+lx5tYezyyd0R7vhd791+Na/O1hvNw3XLX2J2sipmkkmmLSxnlOYweAuWK0keYiq/b5HERERERGR/aGwSkQOegUF8KEPwVlnZY51dsK998LvfjcGYZWBHBNlmV9Gns0nXQqYADZQxxrqcXHJLYZ/PdfnXWdmrrBqbTHc9VuHe/9h+lq090+NCTv4JTPxJ08KtjMcjrXk47KccrLJ7r+ObnxWU8tWWvbzRkVERERERPadwioREYJywJtugne9K3Osvh6uuSZYZbU//auChU+G2X4uy/zZBCV4gVZ6eYAtQFAgOH02/OBajyOXZAZWtTWGb3zN5eFHzdD+VY6BWNYoahYtWZ7P4d4kisntO6PBYmmilVdo3LcbFBERERERGQMKq0RE+syYEfSvmjw5c2zbtqB/VWPj/vavMmTZEKV+wZBX43hU00YSL+gg5cC8crj0az7R2NAZrIXNm+Dblzu0dgYN1/svx/ojr6pK1xbWbienoY3FzGKgf5ahC49V1O/rzYmIiIiIiOw3hVUiIn0iETj5ZPjZz6CwcOhYMglPPglf+AI0NUE4vPs59shAgYmx3J9LEDOlS/DgOWqppJVI3y59oRz4f++33HhTisguWwB6nuGVlwxf/4pLTy8D+/qFXGx+/shpmrUYz6PIj3Ea5YQG9c/qwOMJttJK7z7eoIiIiIiIyP5RWCUiMkhWFpxyCnzuc5ljvb3wxBNw++3gZnQ3Hx0LGOtymD+Jo/0SBu/G10o7Dw/ajc8C0Tw4632Wj3wssxyws9Pwf/9r+N1dhhBBIZ8fzcKvKNvj0i9rIMe3HMMMQmSRDs2SWCrZyes079sNioiIiIiI7CeFVSIiu5gyBS6+GM45J3OsqQluvhl+85v96V9lyCPCLD+fwTv3xUlRRRv+oNd8YPIM+N73PM76UGZgVV9nuOLbLv/zJ0OEILAildrzhXV1YTZuoogIhzCJgVJA6CbByzTsy42JiIiIiIjsN4VVIiK7MX16EFiVl2eONTQEgdXmzUH/qn1RYGOc5s8lvaoqKMGzPEYVbfQSHvTxbIE5s+Db3/GYVpI5V22t4corXWq2Q9Qx2OzsoE5xT6WAyQTTyWI5pQSxWKCVOA+whQQj9L4SERERERE5QBRWiYjsRigERx8NP/85zJw5dMzzYPXqoFSwujpYYbU3rIGoCXO8P5M5dhL0hUIePtvYyVPU4OwSViUNHLoAVv44RV5e5pybN8ElF7nUd0RwK0qxBQWQ8jIPTDPBTz4RTqYUiJEuBewBVrGdGtr37sZERERERETGgMIqEZFhRCKwZAlcdFHmWDIJa9bAT38Kxux9DyuDwySymGLzSIdEAD3EqaQt43gLuFlw6imWz3wuM4Tq7TE8cL/DFSsMLhbjjrCqyhiMtZiqapy2Dg5lCm9jOgP9s6CNdh5gy97dlIiIiIiIyBhwV6xYseLNvggRkbeqrCyYPz9orv7cc0PH4nHYuBESiaAp+171r7JgrKXOdPKUuxkIthf0sEQI8yEOZXfTZeXA0YstLe2GNavMkLFEAmqrLTmhTo7NeQm6E+AM838S1mIjEfwjDieRFeVpqllPA8G+gpYQMI+pvINyDGb3c4iIiIiIiBwAWlklIrIHU6bA+ecHZYG7amqCX/4SHn44WIk1agZyTJST/XLybR5Bg3NDHFhPPS9RT2g3H9E+MLUEvv5Vj0MOy4yzGhoMN/w4hzV1cyAyQs8pY8BxsMahkBinUUHwlRD0z2rH5xEq6SS+FzclIiIiIiKy/xRWiYjsgePAoYcG/asOPTRzvKYGvvlNeOWV0e8QaIEQLrNsPnlkkS4FtFja6aKGDpxhVjSlgNJy+PFPPcrn7noyQ3tXiMfWFEB4mAsxJmiw3t6B2bKVCGGOYxYzKSLdP8vHp4Fmnmbbnm9GRERERERkDCmsEhEZBdeFefPg0kszK+s8DzZsgJUrg15WkcjoAivfwmQb5e1eKQzaea+NJA+N0C/KB4jASSdYrrw6s3+VYyyxUBLMyLsBkkpCTy8WhxLyWMocBvpnGZrp4X427/lGRERERERExpDCKhGRUcrLg498BK69NtgtcLCuLvjzn+Eb34BUavQN12M2xBxbSBAQBeFSAp/ttNNDcrerq9KvhLLgjNMsl31raGCV9Fx2dOXge27/nJmTBLOYeC/4HtmEWcQU+qIwwNCNxzp2jO5GRERERERExojCKhGRvVBYCGefDWedlTnW1gb/8z/wl79AODyKyQzkmyin+BVEySG9qqkXy8ts5zV2Emb41MsHCifD+Z/1OWGZ3/96WzzKg6/PJd6dDY6/+zcbA56Ps7USE+8hRpijKCG7/zoghWE7TaylcRQ3IyIiIiIiMjYUVomI7KVZs+D734cTTsgc27YN/uM/4B//CPpXjcQC1jrM9Qs43p8JJEmvm2qlmwfZusdrSQEzS+GmH3scdczAKirHsYSGC6rSDP2N1l0cDmEKSyjpmzXon1VPOw+N4jpERERERETGisIqEZG9ZAzMmQNf+xrk5maOb9kSBFYNDaNpuG7IIcwcv5DBJXtxPKppJUVmT6rBLGBdOPJwuPIqD9P3qZ5IubTFY3voWwWkUth4LxbII8oRTIVB5+wixSrqR7wGERERERGRsaSwSkRkH2RlwRlnwE9+Evx5MGuDhuuXXQbt7XsoCTRQQIzT/LlAmCBBMnTi8wTVNNBFdIRSwHT/KhuBZSdYfnh9CjfsUtlayOPVsyCcHOaNBgM4TU24W6uwOOQQ5ihmAJH+6+gFNrGDejpH9VxERERERET2l8IqEZF9lJsLZ54J552XOdbdDfffD3feGTRbN5l90oEgEgoT4ih/KgvtNNKlgBbYSSuPUQW7abK+u3myC+GTn7BccHGwMmo0OxICfRdnieByNDOYQzHpUkAPSw07eY5to5xMRERERERk/yisEhHZD9Onw+WXw8c+ljnW2BjsHPib30AkMvwcFkMBMWb4eQwtBUxSSSv+cDv67cIHCibBZz7jc/QyS7JnDz2r6DtdMonF4mOZQS4nM4vBpYBt9PAAm/EYxXwiIiIiIiL7SWGViMh+mjULvvMdKC/PHNu+Ha6+GjZuHKF/lYUCP8o7/QoGwipDOz6PUEUvCUKjXF3lO7BgHnxzRZSt3hy8rhAMF3YZA8kk7uuvY2wKg0MBUZZTBv2lh4YODE9RSxvxPV6DiIiIiIjI/lJYJSIyBsrK4MYbobg4c6yqCr761aDh+u5WWFkDWSbKiX4ZU2wRQQkeJLFUsYPnqcMZxcd1Os7yQ3DEYSE+elExNjV8v6uBC7D9dYouhunkk0826dVVFksHPVTTtue5RERERERE9pPCKhGRMZCVBUuXwhe+kDkWj8Mzz8B//ic4TvCzKweHaTabYrIJCvqC8KirLyQyo1hZNZgbtVTMSRByvWEXVgUs+D54HhaLwXAYUziS6aT7VoGlhTYeYMteXYOIiIiIiMi+UFglIjJGJk+Giy+GL30pc6y5GW65BVauhFAos+G6tVDsRzk1VcbQflFJHqZqr6/FAgkbgXBk+E7rxmAsmO31ODXbsH2lfwXEOI1yBlIuh7a+kkT1rRIRERERkQNNYZWIyBiaNg2+/GV429syx3bsgJtvhuee2305YJQQpRTh4BIERYYkUEc7rfTi7s3qqpDBnzYDv2Q6JJMjH+t54AUhlAWycVnKHCZTQDo4S2J5nXqeZ/vor0FERERERGQfKKwSERljpaVwww1BH6tdVVfDV74Ca9cGDdf7GcgxEZb5ZRTYAtKlgAksG6lnDXWEGEX/qV0Nt6pqEMdAJGRJt2J3cJhJPoWDShItlk66qaR1769BRERERERkLyisEhEZY+EwLF4crLDaVSoFq1bB5ZcHC5pCoeB1C1hrmOXnsMyfBST639NGDw+wde8vxJjgYkY8BuLdvWz5++s0t0OEoKF6ATHezhzSzd7B0EaKh6jc++sQERERERHZCwqrREQOgIIC+OQn4YorMhuqJxLw5JPw3e8Gv6fHLYYsG6LUL4RBJX9xfGpoI4E36g9tC/hZMbwF84fMlcGBHs/y2H0pbv1pcKQD5BPhFMoJESVdktiD5SVqqaF9lFchIiIiIiKy9xRWiYgcIMXFQWD1zndmjrW0wG9/C//856DFTwbyTYzl/lwgRroErxvLc9RSSQthQntxBWb3Ww/uwg0Fba1+cSv84U+GMBDBZTHTqGAy6V0BPSzbaOYpqvc4ZyqVoqamhvvvv5+qqr1vEC8iIiIiIgcvhVUiIgfQ7Nnwox/BiSdmjtXWwje+AU88EfSvsoBjXQ71iznGLwGSpFdFtdGxDyV4FrwU+CPs4GcN2cZy7OxasrtbuOF6l3UbIIJlMtksYRoDpYDQQYKnqR1+OmupqqrinHPO4YgjjuDd7343Z599NuvXr9/LaxcRERERkYOVwioRkQPIdeGQQ+CaayAra+iY78OGDUH/qo6OILDyMeQSYbafTxBfBeKkqKIVnxGCp0EMYEIu/rRp2Py8oEHWcNcI5GT1khVOsuYFwwWfD1HXCNmEWcTUviOCUsBeYCNNtBPf7Vw1NTVceuml3HPPPSxcuJAPf/jDvPjii3z6059m7dq1o7p2ERERERE5uCmsEhE5wEIhWLIErrsus9+558FLL8HXvw6dncGxhTbGaf5cgo/oICTqwPIY1bTSS3i0H90hB1s0CXJzRl5dBVjfIek7pFKw9mW48UaXHMIspZRC8gGP9O6EG6hnLY0Zc6RSKaqrq3niiSc444wz+Pvf/87KlSs577zzWLduHTfffPPorltERERERA5qCqtERN4A+fnwwQ/CRz+aOdbRAX/8YxBmhUIQNWGO92cyx04iXYLn4VNHE09Si7M3H93WG3FVVbrMsCi3kzPmvg5Aa6vh57cZrlrhUEohi5lMUJIIYOmgiyepyZipq6uLVatWEYlE+PjHP05xcTHTp0/nC1/4QnAmM0KjdxERERERkT4Kq0RE3iAzZsDVV8P735851tIC//Vf8Je/QjTqUESMaX4e6SbrwW58CapoHVQcOAqOgUhk5GOMJRRKMSW7e+B6mg13/ZfDpifCHM8UBnYUDHYF3EATqV1KEq21pFIpUqkU9fX11NfXU1tby5YtW7DW0t3dTXNz895cvYiIiIiIHIQUVomIvEGMCRquX3klTJ2aOV5dDd9dAdXboCASY7lfDoMCoXZSPEoVPj6GPa9Sslj8WA6puRWQSo1woMG1htxIgpAzsAprayV87eIo07dUUESUdHDWic8z1LCN9v5jW1pa+MUvfsG1115LQ0MDl1xyCSUlJcyZM4ezzz6bzs5OfvOb33DqqafyyCOPjOJpiYiIiIjIwWpv9kAXEZH95DiwYAH85CdwwQUweKGRtfD6JvjqpXD9T0MsmFZEiAipvr5VKaCRdhrpZCq5fa/vgTHg7uH/Jawh3/FZXl7JlOxu6jrzAPB8qNoU5t5rSph6w2Ra8uqACGBpoZVHqOI8CkmlUrz22mtcc801hMNh3vve9+J5HtYOvb6amhoaGxvZuHEjy5cvByDR282W9WvZUrsDE3JxHQdrLcZEmFU2l8MWzBn1sxURERERkYlBYZWIyBssOxvOOANWrICLLx461tMD990HP7oywgW3zGEmRVTRBIRJ4VPFTp5lOx/kkIwyvN0xGFzcILQagbWQShm6eocGWx2d8OBfY7BgHlxW2/96K0keZCvncSTWWrq6ukgmk5xzzjn85Cc/yZi/o6ODu+66i+9+97tEBpUltu1s4JfXfJMb736cgsJ8ujs6sW6IvKw8snLzOP3sz3PFv1/EjILYHu9VREREREQmBpUBioi8CQoK4MMfhk99KnOsvQP+8md48PYYZ1JKusk6QCsJHmLrqM4RxFMp4rTi+YmRjzVQNM3j5ON6MwfjLtQUgueS3p0wiWU77XT3NV43xmCtxRummbvv+/T09GQOWEt2ThFnfvgLfP3CT3DoIUdx/InHccF3buCai8/h/l/9mBt++b9716dLRERERETGNYVVIiJvkhkz4JvfhIULM8e21cMPr3NpWVtIBAf64pokfn9I5Oyhb5XBoae9hfse/TsNvamgBnGYI40H5fkt/Ph7r3Pyu3cZ7ojC46XQVEAQnAVh1RbqeZba3cy3Nwxg6Wrexup1lSz/yL/yjsNKWP3yBk778L/yoVPmsvqZJ2gdoeWWiIiIiIhMLAqrRETeRGVlQf+q0tKhr/vA9pooD3ynAnpzSDc378XyMtt5lR2EcUee3E+yo/lVnnhhLdHwHsrojKWn11K7yTB7xi5j1kBTNjw5m6GrvHp5cJdVXs4wgZgxhlBoN5XnjoPveWx96Tm2thk+9LFzeN+Zp7Dj1Sd5tmoHkVhkjyWMIiIiIiIysSisEhF5E0WjsHQpXH115pjX69C8uoDEEzOBJOnCvja6eJAte548kaBtSzXr6zrYnIyAGaGYzjW0JeGun3n89y92M94agwfmQipMuhSwE4+nqaaFOJG+4Kyrq4uGhoaMn8bGRlpaWjKmNYC1KXZ2dVM4rZxpeR5OcRmFXgPfvfRS/raqhuWnn0mROiyKiIiIiBw09Nd/EZE3WXY2nH46XHYZXHfd4BED8RBUFQ45Po5PNe0k8fqK6DIZwKYsDc1JNu1s5bW2HRw3fTZ4w9TT+YZi1+MDi7byy1dOJL5r66nuMKydCjZCEJy5JLFso4VWEoStoaOjgzvuuIM77rhj2HudPn06icTQ/lmOMRibYt0Tf+bdS+/B9y2J7k7iJpdzL/gPLj73jGHnExERERGRiUdhlYjIW8CUKXD++fDEE/D004MGWmNw/zz4t1WkVzR14PMEVdTTyWzyibP7puaOA5GwJezFiSa6wbgMLuMbyuDgkx17hdycu4i3f2zosG9gRzasmQrHVkLfSqo2enjU3cp7F8zlkksuYf369cM2WTfGMHXqVCoqKgafFt9xSPT0UF9bi+f7fdceomRuGSeeegoF0T09PRERERERmUgUVomIvEWUlsJNN8HnPgcvvdT3Ym8I1k0JVjUtqgMigKWZNh6lik+wOGOe9Eor3w/TnphK0s/GsykYJtQaeJ8Bs53snL/SGZ9JPH7yoEEDO3LgwXI4tqr/5Tbi3O9s4dzSxdx44417eceWpBdnZ28LMxcfy/tPX0akb6SzrZkXn32SP//5L3xg2VdRXiUiIiIicvBQWCUi8hYRCsHixUH/qve9r+9Fa4Ld+LbnwaLt/cfGSVJNG/5uigAdwPUML25s5VvXPkxzspPHqhN8/BAz4v6BIeNQOmk6y2cX8PuOuyB+Egxu4t4ZgRdn9J0hWOXVg2UdO+kkTjbhvbpfP9VLS9U6XlpTxXFnXsTKH17WP9a+Yxu/ufFyVv79XlZXfo4TyvL3am4RERERERm/1GBdROQtJBqFk06Ca6+FcDr7aY3BffMYWDNlaMfnESrpIUFolwjKWKirM9z4o262bLSY0GH0puow1h/x3MbC5LwY7z1pMpPLXuHi6xv4xL9CVlbfAUkXqguhqoiBckJLNx28SN1e32t3RxvPP/4ga7f34AI9g8Zy8vM55sSTcFpe56//eGyv5xYRERERkfFLYZWIyFtMURF86lPwxS/2vdAZgSdLoX4gJEpiqWQHz7MdZ9BHuQHam+CWn8Ef/rsC6/2Ervbr2eFNZ4PTNSQQymQJE2JWcTmlBSGOPqmD22+3/N8/fU5e7oPnwLZ8eGoOQUmhAQwtdPMQW/fuJq1PR2sTjz/+PCYUIhJyhwy70RxmLzqJkxfN5tmHHqCxZ+QSRhERERERmTiMtXaEvcxFROTN4PuwcSNceCE8/DAwvwnuvquvFDAC+JQQ4fu8l09yJPG+EMvx4aWX4UPvD7GtNlhxlZvbwcmn3c8JJzzHO+JZLBvupH1fB9a4JFIpEtm55Cw7BnvySVRuj/K9b1v+6/cp/I++ArffDW6w9MukLIe0zOa/uz/BUaWx0d2g9Ukkuqnf1ojnOOTkFTJlUuGQNWK+l6KjtZnmzgTTZ8wgK6z/XxERERERORjob/4iIm9BjgPz5sH3vgd5eUBbFB4uY3CT9DaSPERl/+8GaGuCP/ze6Q+qwuEE8+Zt5oS3raM8lcWRI53UGJLAxh0N3LvldejsxNzzT8yvfku5W8v111q+cUkInpkFdcUEq7wM1oGN7U18dmUtLz8+yhs0DpFoLnMqKigvK2PqLkEVgOOGKJg0lfLSWQqqREREREQOIvrbv4jIW1S64frKlZDnhmBDEXgh0s3NU0A97bTSQwiDA7S0wL33BB/txvhMntzE0mWPEYm3cExPkjwzEAlZa0n6Pv6gBbYpYM2OHVyyrpKH33MW5qTjcda+hvn5rylq28gnP+2wbHEYXi0A+npgOeDFUqxrbeGq74OXQkREREREZJ8prBIReQvLy4MPfgC+eX7fyqqmdEhkSFjL8031XHtfPSFcUj3w0lrDlteDQCo7u5ujj15FaVktbjJF5daN4Az0hkpYy7aODrqSyf7XolgWTS/h5EUnMvvQw/Hf/R6SZ/8LxJM4Dz7G/KktrLwyxszKcvAGVZFPStB71mbuf9py+TffoIcjIiIiIiITksIqEZG3uKJiOPcT8OGjs+HeWUCif6zV9vK7LZX84ZfQ3g6PPWaIx4NVVcXFTSw6Yh1Tp1VwzCmHs65lJ3gDZYRRx6GsoIC8SKT/NcfC9MIpfOBDH2ROUZRkNETysMNJHX0kbKmEZ55jzrQQ55SWQUMO6eCMKHBIPa1zGvj9n+DBB9+wxyMiIiIiIhOMwioRkbc4Y6C03PDDm8IsO7QIkn0f3QaI+dSE2vjWVR7/93eHF18IxiKRBDNm1FJY1MGc8oXMmjKVd5WWgjt01z2s7W+snlacn8UHl84jx4CHhdxsUsuWYUum4Tz/IoU9O/mX03OZU5JD/66ABsjphfI2qqqCnQwfH23/KhERERERkUEUVomIjAcOTMuPcv68CiBG/4qmXAtLa6ky7VzyJZfnnwlKAKPRXioqtlBQkE1Z+VxmTj2M+RULIBEP5ksHVEVFMHMmDCoFpKcLNm5InwHwsbFsvLkV2EQcdu5klsniFDMHGNSgqrAXTt+MtbBlC1x1FXR1HeDnIiIiIiIiE47CKhGRcSIn5HLCpGKOC5cASdJREkXt+KdvobNrcJWfwVqHUDhMTl4eOZ5LTm8qWKaVZi10dkJTU9DNPS3lQUcHAzOBiUXwKyowjouztRJaYti/z4WOKOmG7+QCJ9bAjHaSSXjySbjwQmhrO4APRUREREREJhyFVSIi44YhSphS8gkCoj7RFJS2grEZ77AWfM/Dtz5Yf9BUJvhJJoPAanCIZczQ8ArAOBCLBmWErgtJF1uTB81RBnYFtJDfDSWdQLCq6t574bbbxubuRURERETk4KCwSkRkHCkii9OZS/Dx3beiKd/C8irIjY/85l16U2FtEErNnw+RCPh+EFRZi1O7DdPRDgzqceX7Az2uel14pRhems7AKi8L+R2wvLL/LTt3wi23wN13j8Xdi4iIiIjIwUBhlYjIOJJFmKOZSTmTCfpFmb4t/JrglOqM4w1gHAcck9lcPS2VCgIoY/p6pVtMRwck4/SXGhqCYMsYcPq+OnrCsG7KwDEYyLIwvwkiA72samrguuugsXFMHoGIiIiIiExwCqtERMYRF0MBUaaRS3/5nQFiCSgbaA5ljMV1PTwvRaI3ji0oxptZMrSRujFBUFVZCYlE36qqvgldF9ygFNACNpnCNDRgXRdv4QKMgXA8As/M6pusb5VXjg/H1EN4oOTQ82D1avjMZ6Cu7sA9GxERERERmRgUVomIjDMFxHgnFfSHVRgo9OAdW/uPicejVFfPpq21k6rNW3BM38f9QAf2vreagRVTadZCKoXp38rPYDq7CL2wGpNMYLLD7OyGF1a5UF8M24ro3xXQEJQCLtk25DTxeNBwfeXKMXoIIiIiIiIyYSmsEhEZZ2KEKKeIMBH6G627FiZ3wOQgYEokItTUzKGjPUpN9WZ6s2PYI4+EaCwzsBqsL7Qy7R04m7diMdAdJ7T6BUztNvwjFtERnsrf7vFZ96oLzbnQmEf/yipjCU/qZuqpzRlTt7bCnXfCz342ts9DREREREQmFoVVIiLjTC4RTmQ2Mymmv29V2EJZIyytAcD3XZp2TuXVVw+lbvt6nn/hRdz5C/GOOmLksAqCwMr3cbduwfR04tbWEHrqWez0qZjly2jcGePOn/etxGqLwUNlQHpOQ6jQY8ZZ1Swsy5y6vh5++EN47LExehgiIiIiIjLhKKwSERmHCojxduYQ7MTXpzAB79zS/2tXdzYvvvg2ttUW8PKap6nu7sRZdgo2vwCSqcxJ04zBAE5VDdE77iT6u7sglcQ/9RS2tE/l8u8YNm1Ih1VReKiE8jj5AAAgAElEQVQc2nMJAitDwvVxFm/jsl/t4PCKzOlra+Hb34ZNm8bgQYiIiIiIyISjsEpEZByKEaKCIsClvxQwbGFGO8SCAMv3XRoapvP008toaW7iV7c/yosvW0x+dOA9wzEGk0pharbhT5qEd+7H6Z13BI89voO7/9AzcFwiBFuLoSOLoIeWwcPSGulgztGt/PtXM6dOJuHFF+Haa/f/OYiIiIiIyMTjrlixYsWbfREiIrJ3wri4uPyRDSRJAg4mbJkyOcHxfgWVT+YB4Hkh2tsLKCpqZXrJS7S091KaZclpaQt2/BuOtWAtJhqFU5bRNX8hL7z4FBvW/hnrJ9haOT99IERTsGAnHLENCAPgW0tBJI/zyucScuGpp4Ip05JJqK6G3l5YuhQc/deJiIiIiIj00T8PRETGIRfDLPI5kZlAAjDBWqlJ3Rz2b5v58BkDx3Z25vL448vZVlNOU8eL/KGmkjXh8PCTp1OlSIRUKETlqjX88S9/5JEH7mFnY4SW1pIh1zGvIMRHj88n2AowEMenyraSX+DxhQvgfe/LPE1TE9x+O/z1r/vxIEREREREZMLRyioRkXHIYOglxSq2s5ptQAiwhIzl6OJivnXsXB573NDQYLDWob09n9dePQzPjxCe1sTGcJJWDFlAVt+7B0s6hu2FhTxfVMA/tm5l8/Z2qrYczd13f4StW8v7j6uYCz/9icPxx1p+ywZsXylgylhSpDgtNZ+K3GwWLITnnoOGhqHn6eoKelcdcwzMmHFAH5mIiIiIiIwTWlklIjJOFRLjdOYRlN5ZwNCO5WFTQ3R2B9/6piE3b+D4ru4cVj91EuGXF3NkNM5TwM3Az4BfDv4xhl/4cGtTMw/XVTI5z2Vxx0we+MsHaG4u7p+vuNjy8U/6vPN0yCKLmeQxsCsg9JBgs2km5MPhh8O3vgWhXVIxz4M1a+CCC2DnzgPznEREREREZHxRWCUiMk5FCXEYUzmcqQS7AgZleDtp5eGcKt53lmXlzan+gMhgmZHTxYXzN/HBVIhPA8cBPUANUNv3UwM0OT5lnkvb88eReP5tvLekjg8eur7/3NNLLJd/1+Mb3/KwWGZQwGKmAqn+6+gw3Tzj1OBbMA6ccUbQVD0WG3ofvg8bN8KVV0JPDyIiIiIicpBTWCUiMk45GHKJMJsCBu/uFydFNW1k5ficeZrl7HOD1U5FWT38y6K1lE2vJ5oKsQj4F+BS4Ou7/HzFWN7ju7RuWMidz5xAOBHmU8e8QE44zpFHW355h8elF1vC4SCeyiHMYqYx8LVi6AFec3bSaZKELGRlwcc+Bh//eOa9tLfDH/8Id955oJ6WiIiIiIiMFwqrRETGsUJivINywO97xdCBz2NUESdFyQzDFd/xOeFky9Scds5bsgbsQCN0B4gR9K2KDfpzFgYM+KEUVa15/OrJIzh6fiWP3LaWv90PZ5xu6SUo+jNALhFOpox8ckmXAsaNzzqznVfNTlyCFVSTJsFXvwqnnZZ5Lw0NcOONcN99B+hhiYiIiIjIuKCwSkRkHIviUk4hWWSRDqw8LC10UkMHFsO0GfC9FT187T2vkJXdwg2PLOdvGxdAJD78xBZixufIWc0se08Ws95/JDlZ2RwTfZGZRT3EB319BN2yLPMoZj7FDJQCWjpMJ88728AGmwz6PhxyCNx0E5SV7XJKCxs2wJe/DJs3j/GDEhERERGRcUNhlYjIOJZFmMWUMH9Qvygf2E4Lj1ONwSEUM7xzSTPnLVvD+k0zuOXZY2mLR8Hxh5/YN0x2k3zzE1X84U8+55w/iWTpYbCuCm/1q9hdvj4skE2YI5k+6FVDDz7rnAbi+Lh9C7oSCSgthRUroKgo89TV1fDtb0Nr6/49GxERERERGZ8UVomIjHMFRFlOKYN34msnySNUAQa6EyRXr6NrSzMv2SNI+A754dF0MjfYkIsP9GZn4R21GLJzcF9chenpZtevkIG+VQPv78bnFdNI0gzEW9YGuwK+5z3w2c9mnrW7G/72t6BcUEREREREDj4Kq0RExrkYISoowiFEuigvCTTQQZPtxm1rJbT6FfLnzOIDPzqKM/8ti7+8sgCS6eN3zwIWB58Q1nGxk6biLV6EU1WNu/61IaurLBDBYTHTmUohwSov8A3sMC284NTiDDqVtZCfDxdeCB/9aOa5u7rgn/+E3/52/5+PiIiIiIiMLwqrRETGuTyinEwpkygg3fI8iWUTDazq2U741U3Q3Ip/2GFMnxzhkk8lmbMgQrLb3cPMFtraMDvqMb3dGGPxFiyA3BxCL67G9HQy+GvEwaGEPCaRTdA/y2CxdJoeqk0bZvDMff2rZs2Cq66CI4/MPPu2bUGp4KpV+/uERERERERkPHFXrFix4s2+CBER2R+GFD6v0chrbAfCgMVan+yWTt59fzWmoxVTV4f75JNM2fo8b5+xCcdajDHDTGkwgNPeQWj1S4SffIrQU08RenU9JpmC7h7stMn4U0v6umQNXEsVLbxAVd91gI9PNjE+6B/SX6iYPm16hVVZGTz6KHR0DL2Mri7YsgWWLw+OExERERGRiU8rq0RExjkDZPWVAg58rDuEejyKX3kd27gDf/ZM7MzZ2OkzsOEITncXjjN8CWAwsQFjsKkU/uRJ+LNm40+fjo1EwE9BMpXxliguZRTi4JIuSUwBdaadVuLsupbL2uA0p50GP/oROLt8K8Xj8PDDcNFFwUosERERERGZ+LSySkRkAgj3xUC/YwMWD2MNC3fCtfdDfnEJ8fM+TuqEE/HmzcVpaMCpq4dQeORJfR9rHLwlRxE/91xSRy/Bnz2b0GvrsdnZpE45GbJipPteGYKwKoTLX3idHuKAg2csPnGO9cuYawvxdrOYy3Vh+nTo6YHnnx865nnQ3AyRCJxwwn4/KhEREREReYvTyioRkQkgjEMFxRzHdCBJUQ/8v1cts5tdkkcdCnlFkEribKvCXb8Bb/48vBklkEyOPHHIxU6eBMaB7h7cl9ZA4w5SS5bgF02CQSWAQUN2ywzyWcosINE/1mp6ecDZPOxpfB+Ki4MdAJcvzxxvbIRrr4XbbturxyIiIiIiIuOQwioRkQnAYMghTCmFGGspa4XPrIHNJfCzxSkcfJzOLkIvrMK6Lt6xx0A4vMfaOpNKEWrZQdj6OK3NhNa8hC2Zhrd4EWY3OwlagpLEUgoZ/BWTwKfGaaXXpIb94vF9KCmBK6+EQw/NHG9shFtugbVrR/9cRERERERk/FFYJSIyQRQS43QqKOp1eN9rlkiz4T+XeNyWv5XWZA/R2lqc17dgFy7Emzsff9ZMYJgG6wRDSQv1jS6t7b1EXn8VmltILTkKm18I/e3Sh8rv250w3egdDN0GXnS2s910MVzxoe8HPayOPx5uugmyszPH166FL34xaLwuIiIiIiITk8IqEZEJIoswx9gZvL1lMueuTlE73fDfR0K7beaJzg2YVWuxrkPqmCVY14W8vJEndKAL+POfw3zlU13EX3gZO3M63pGLYTerqiAdTRmmk8tsCoBU/0gPvbxmdgx7uvQOgb4PRx8NX/ta5jGeB6+8Aj/4QRBsiYiIiIjIxKOwSkRkgjAYSnqjfPa1PIrrff60BOryDAkvQU3dK9jXNmAXHoJXVh4kPcnEyGWA1hAzhkXFDRzW9AxZqR2w9ChsXgFmmFVV6b5Vs8hnPsUEYZUBLJ2mi9Wmbrica2AOC7m58KUvwWWXZY63tMCtt8I114zywYiIiIiIyLiisEpEZIJwgEInxvzicv54vM/PlwSvt5kUj2Y3wOIF+EtPxLguJuziz5yFLSqE1O6DJzBEgflTmsjKcvnTuhP4++ajiDF8wGX6fvKIcgKzAJcgnXLoBlY522k3SUJ7uBffh4IC+PSnd78DYFMT/PrX8OSTe5hIRERERETGnT39e0FERMaRRDTEo0uKuXBJlGCnPkPKhcaySdSUnUUJ2UAKXAeblw9ZMejoIAiVdmUxjqXdC3Hb6mN5bccU5j9nmX1YikWHQi/Dd7yKEWIexQz+P5E4PpWmlS6S5A3buarvzDYo+Zs/P+hf9b73wY5dKgg3bYLPfQ7uvBPe9rbRPiEREREREXmr08oqEZEJJJcIS5lNOcUEDdANHpYqGniarUMjKetBKrX7iQYfZg0pP/i6qKmC7/6HS2MjRIY7HgjjsIQZVDCJdCmgNdBsWnjSqcLsoRQw3b8qlYKFC+E734FYbNfrgspKuO466O7e422IiIiIiMg4obBKRGSCKSDKcuYAyf7X2kjyMJV9v/UlQa6Lzc4ZoYdUcFx+djcnz64GoLfH8MjDhpU3OTiM/CWST5SZ5MOgssFek6TKtO6pbVU/ayEahXPPhSuuyBzv6YF//AMuv3yUE4qIiIiIyFuewioRkQkmRogKiggqvYP9+ZJY6mingzgOQRN0P5aNN7cMvJFXV2VH4xwyZaAGr7XF8OtfOfz8l2bYYj6LpZAY76KcgTTM0IbHQ+5W4sbutvBwt3NZyMmBj3wE3v3uzPH2drj7brjnnlFOKCIiIiIib2kKq0REJph8orydCvLIgb5d++JY1lLHOhoJp2Miyx535gPwrSGeGtrisL7O8IOrXR57KmjCvus0FsgixEnMoYh8glJASBjLFlPPKrMNd5TLq9L9q2bPhptvhlNPzTymuhouugjuu290c4qIiIiIyFuXwioRkQnGxTCTPE5gJkEpYFDO10Y3D/WXAgL0pUAjMRYLJP3Mr4tttfC97zpsrYQYmYGVg2EKOUwih/QKL4Au00uN0zZsc/aMSxjUv6qkBL7yFSguzjyurg6uvz7YKVBERERERMYvhVUiIhOMwZBFmHKKGLxfXxyfKtpI4OFgMJEItnQ2NicHfH/3k/kOucZy3IxaovQMGUokDI8/avjC+S7dvUFgNZjl/7N33/FxVXf+/19nimYkWd225CpXTIeld0xCNqF9k5CQbCBlQ4BAKAnNoYcAoWNCL6GksmFDCpsQ8lsIHZYWQzA1xrZkW5Kt3tvM3PP742jUriRbsq6xrffz8Zg4nnNnzpH9eHDH7zmfz7FMJptDmUl6ZxW4/lnPhFYPf5TgMGxPGrZ4Mdxwg3+8uxteeglOPx0aGkb33iIiIiIisvVQWCUish3KJ8aRzMed2ed2NbXi8TJrqKCZDEIQCWHz8yEj2pcEDWYhZmDffZo468xuzKC7RiJheGuZ4dZbQyQ9f/4UJ8ICigj365/VjaXCNFFPxyb3repdjoWMDNe76pvf9I93dMBzz8EDD4zyjUVEREREZKuhsEpEZDsUI8LOTGFXptK/FLCRJl5gjfu9ta65emqYXVVpHkzNDXP2Evjc5/3DdbWG++8J8T9/NmQMGptElL2ZgQvN3DzdxrLCVLPGtBAZ/GabIJWCqVPhmmvgy1/2j9fWwm23wW9/O4Y3FxERERGRT5zCKhGR7VAIwyQymE0e/btJdZGkjEY8LAYD4Sg2Mz78zioAa7FdSaZN6uCKiy277eG/tqrScMNPwix7G2Lpl+HiqRImsQdTcc3eXWjWajp5M1SxSQ3eh5IOrM45B2bP9o+vXw+33gqrV4/t/UVERERE5JMzli+1RURkG5BHnE8xl7/ybs8zhmY8XmIN3SSIhCKkcvLwSmcT2lANkSFuCcaAZ6G+gdCKMvbep5g7703y+aMjNDb0Ff2lUrDsH4YzvhvhL08mmVIInQBYCslkLvks69fcvYNuPjQ1Y/7ZPM8tbb/94P774eSTobKybzyVgrfegu98B375S5g5c8xTiYiIbDO6OtpZ+d4/KVtfD6G++7Tt+VKqoGQWe+25O/HR1uGLiGxhCqtERLZTMcLMpYAssmjv2dXkYWmklXKaWUgRKcvGywDBvTZkSIVh1x1hySUprrwsQndX3xWeBys+guuuDXP9dSkiUbezKpcYh1DK7/uFZq1YXg9VUm86ySdOYpQ/W/qEQGth333hjDPg8ssHXpNIuMDqjjuGbsguIiKyvWmoruSuK87l/qeWUVhY0Pu856WAEPsefRIP33erwioR2eoprBIR2U5lEmU3ilnIVP7JWiADD0slDbzIGhYxBRsy2HisL/0ZjgFCYSyQnQ/fPNHywfsev3p4YDV5U5PhFw9BZjzET67xSOBCs32ZwSwKWEsDECFlPNaaGl4NVXB0av6oTwZMsxays90OqrVr3S6r/hob4aGHoKgILrxw4z+miIjINs1CLLuAL377Mm6/9nu9/9hL76yKxuLkxoZ/uYjI1kI9q0REtmN5xDmCUly/KKeJJM9TDkAoHsdbOB/icbc1aigGsB6mtRWshwdMLoYLz09x6OH+1zQ2GH77SIinnjVEe54rYRIzyKV/36oO07FZpYBpnufCqDPOgN1284/X1sK998Lzz2/2VCIiIls9gyEzO4eSyZOZ3POYMmUKU6ZMIT83p391oIjIVks7q0REtmMxIsynkDARUljAkMSygWZqaKOADKzZyPcWxkAyRWj1asxB+2OjUbywZZed4Y47Uhx7rGHdmoGffMtWG847O8zjTyRZUOpKAQ+nlFdJdzw3tODxf6G1dJj9iBLqF6eNjrWuR9Wuu8LPfgbf+hZ89NHAa9asgSVL4Be/gJ12GuNEIiIiW1hHB7zzDqxa5R8zBiZPhkMPhVjPbilrwWIIR6L+F4iIbEMUVomIbMdyyOBgZjOZAjbQCERI4LGCDfyDSj7HHBJeqq9j+XCM6W3Umr6q28C8ufCjq1Kcd3aElpaBLykrgysvD3PnXSliORHmUECYcG9olsBSaZpooZsi4mP+GY1xH84TCRdEnXMOnHXWwAMOUyn44ANYutTtsgqrV4eIiGylurrg3Xfhscfgr3+FDz+E7u6hr41GYccd4aij4HOfg10XGLLiCZ5/+Umuvb6VEK4E0FrL5FkL+cLxX2ZqtrZWicjWT2GViMh2zGAoIotDmcFj1JD+z34TXTzLaj4Xmo/NK8SbMpnQ+g3uU+9wQiEI9+3CskB0EpxwvKWjM8k5pw+8pbS3GR7/I2RmhrnvPsMBzKCYfCppAKKkjKUyVMfr4XUcm1xAcjM+O6dztowM+NrXoLnZNVxPJvuuaW2F3/0O8vLguutG/lFFRES2tO5uWL4c7rzT3a/a2jb+mkTCvWb5crj7bjhwH0NGc4rGpnd5/E8VdHWC9TwsMP/fFvOpY76ksEpEtgkKq0REtmMGyCTCPArp36awG4+1NNMeShHNysbm5cG6iuETHGuhvQNaWiEvHxdVuf/NzIEvHGN57isef/jvgSWFra2GJ5+A3z4aYv+vxphLHpXU9453kGQl9VjGh7WQlQUnngivvgqPPz5wvKkJHn0UDjgAvvzlcZpURERkM1VWwhVXwH//N76dypuqtRWees4jIzPGoYddyD23n8vCHcZ3nSIiW4oarIuIbOfyiPMp5hEhE/AAQweWZaxjJXVkWOu2IA1XBmgMxoKprSO0rgrLwN1VKWDaTLju6hS77O6PnSoqDJdeGOKt/4lzFDOAvu1OLSR4JbQGY8Z8IKCP50FxMVxzDey/v3+8ogIuvRT+/vdxmlBERGSMOjvdASCnnQYPPjj2oCotFIZYBrzxouXEk1wZoYjItkhhlYjIdi5KiLkUsA8lQDfpWKiJFp6jDEIhbDzGiHGRwYVZYeN7Glz8NHM2XHVNiuISf2BVWQW33Rwlc/1U8olDb7N3qDSNrKWF8Dhtr7LWBVbz5sEPfuB2Wg0eX7ECLroI6uuHfg8REZGgJZPw5pvwla/AE08Mf10oBPn5MGdO36O0FKZNG/76SIblzTfh1FPd4SIiItsahVUiIts5gyGbKPMoGPB8Fx5lNJKIZ2AXLnSfbu0IiZExEB66etwCoTh87kjLLbf7z/XrTsLrr0e5/ZRZpNYW4uItQ9JYyk0Nr4bWMV49z9MbxEIhOOYY+OlPIT6of7u1rmHtBRe4k5ZERES2JGth7Vq46Saorh76mngcjjgCfvUr15Nq9eq+x6pV8Pbb8Mtfwpe+5Ho29rwzkALrAbB+Pdxxh/+UXBGRrZ3CKhGRCSCXGIsp7fmd29XUgscrVNBqIEoYNtI5yiRTmPr6Ya+zQDgTPnWo5bTveb7x7i5D+VtxWp4bVApoungpVD6WH2tE1roWXMceCyed5B9vbYUnn3Qf9EVERLak6mq47Tb4n/8ZenzOHHjkEXjmGbfzKpVy96urr4Z77ukr7/vGN+DXv3Y7s/bdF7AGLxUl3ZrY8+Cdd9wpua2tW+RHExEZF2qwLiIyAWQQZhb5FDCJBjqBMBZooY2PqWe/SMTtmrJ2+N5VyW5CZeWY/fcbdh4PmFwCV1yaor3d8uufD9ov1R6F96eCjYBxoVkXsMo0UG86yCOzX4y1+ayFwkJ3MmBDA/zhDwPH1693H/zz8+GrXx3HiUVERIaRSrmdUb/+tX8sKwuOPBIuvhh23dUFVj/+sduFNXgncGamK3n/1rfcTuHf/x4uuqiU//qvn2HI7L0ukYD333eHjgz15Y2IyNZIO6tERCaAGBF2YDK7Mx3XEt1gsdTQyLPRcrwZM/CmTnENNIZlILLxYr0UMKUYzjnbY8EOg3ZhtWXA29PApHdyGboMfByqptZ0jFspYH/WwowZcOWVMHu2f7yiwo2tXh3A5CIiIoPU1MBvfgN1dQOfz8iAww5zIVZJCZx+uguXyspgxx3daYG//jU89pgrHzzmGFfed9ll8JnPuD6MS5dGOefsaXg23zfnL3+5+Q3cRUS2FIVVIiITRB4xDqcUt/8JIEQLHi+btaRChlBoI7cEY1wjqI3cOjwgFYY9doMHHkoyd16/wCoZgopcF1j17qGytJh2Xg6t2Vgl4pikDzucPx9uucXttBqsrAy+/313dLiIiEiQGhrgL38Z+Jwx7j518cXuS5Qjj4RHH4W99nLXvvaa22F10kmuR9UFF7jg6rnn4HOfcyfcfuELruTvzLN6SgL7SSTgX/+CV1/dcj+niMjmUFglIjJBxImwgCIyiJEOrJJADS1U2BZIbqS5urWYxmZobWak24ehp71rFPbcDc4+t1/DdWugMQ5rcukLzaCTblbREERW5aa1Lmc7/HA45RT/eGen6wtyySUBLUBERARoa4N//MP/5UhJCSxZAgsWwA03QG0tnHkm/O1v8OlPu95THR0DH9bCwQe70/5uugmqquDGG11p+113weTJA+dobISnntpyP6uIyOYIX3nllVd+0osQEZHgZRAmRoS/spJ6WnF9qyyWBDslS9it2kDVOogM0c7QGIy10J3Amz8Xm1+Iwd9Evffynl+jMdhhrgvFXn2lX8CV0wVHr8CFXoYkYE2IL3i7kEl4hHfePPE47LEHNDfDsmUDxxIJ18MqK8v/jbSIiMh4qK2Fhx5ygVVaNAr77ee+MHnqKRdW7bkn3HyzC7G6uoY/rDeZdPe2uXOhvBxeftlde+SRbgfX668PvDYcdgePZGUF+3OKiGwu7awSEZlAcolxGLOARO9zTXTzfMYGKCke/tNwWjjkPuluIg8oKIJTvu2x9749790ddqWAbTHSdX8pLPW0scG0BHpj8jz3TfOFF7rQarANG+DWW/1BloiIyOZKpdx95oUXBj4/dSp8/esuXLrtNigqgvPOg5kzXVC1Mcmke48f/hAmTXLlg3V17qTA4uKB15WV6R4nItsGhVUiIhNInAjzKcIdBusanCeACttIc7IF7Cb0rRpFWGVxbaoWLYKfPZRkjz0tdEbhvamwphC358pgjaU+1MDroQp3SGCAUin3D4ClS2HhQv94eTn84Aeuaa2IiMh46epyp/J9/HHfc8a4L1GOPNI1SK+pcb0VDzvMfcGyqTzPBVOLF7sSwY8+cruyDjpo4HVNTa6/lYjI1k5hlYjIBJJLjMOZQy45uHP7oAuP96nk3XAdhDNGfL3p7ia0YcMmz5fuX5UIwcK58IMLUkSjQHsU3p9MX98qQzseH5ranggtOOkP/wceCNdc4x9PJFzZxEUXBbgIERGZcIxxJ/71Z637EiWZdCFWczMcfTTk5bn70Wjk58OnPuUCqfTuraECr42dpyIisjXQf6pERCaQMIbp5HAA03GlgC5Oaox38vR8A/kFkEgO/wZdXZiK0R2Zlw6eItnwhWMtN9ySIqM1Dn9dAIkw6R1eLSbJy5HVtMS62PS9W6NnehYUCrkP9Zdc0vdcWleX+6B/1VXuHxEiIiKbK5l05Xn9hcMuZAqH+zYv5+SMLVAKhyE3171PNOqeG1zdb4z/nicisjVSWCUiMoEYDJlEmUcBfTGSoRtLebiZrlCSEfc1jbIMsD8LxPPghC96fOmoDHhtJjTnkC4FTAEfd9Xyx/IqwtExTTEqnuc+1J9yiiubGKy+Hu6+G+69N/i1iIjI9q+hwZ3u119uLhx6qAusurv7dlqNRf/XjqaEUERka6SwSkRkgsknzmeYT4h0g3NDKx5veOtoTTbDSPuaLBAa+74nC0ydDj/6UYrDd4/C/xVBv7P/qhoSXP2LWv7yKMRiY55mk6VSMG2aO/J7qBMAa2pcWPXqq8GvRUREJrZQyD3SpYIbO/NkqNdnZAzcWSUisq1SWCUiMsHECLMTU9iVqfSdCmhoi4d4u9j0z44GMq5kMFRTg+loZyy3EAukQlA603LeyTHy15eQ7p0FwKQEq6et46JrYG25C6xG+2F9VOux7rHbbq5/1eCAzPPggw9c/6qOjuDWISIiE8PgErz0fSgrC/baC6ZPh9dec/2qIpHRvXd7O7z3HhQUuL5XIiLbMoVVIiITjMGQRQazycPFR4CBlgx4p5gRwyoDmNpaaG9jLLeQ3s/o2XDEkRGuP6WECPGeSQ3EgV1qKe9s5ocXuFK8IL8dTv+jwfNgv/3g2mv9gVUqBW+95Y4E7+wMbi0iIjJxpXdDeR4sWwYvv+zCqk39wiYchqoqePBB9/+zsoJdr4hI0BRWiYhMQHnEOII59AgKmusAACAASURBVE+mwh7kdNGbX/mkPzGnu8BuphgRFlJIhIy+SaMelDTRXtjG31+Ahx8et+lGZC1kZsI3vwnnnecfb26G3/wGbrwx2HWIiMjEZC1Mngzf+AZs2AC33up6XMXjG39tOOy+3LnnHqiuhk9/GhYtCn7NIiJBUlglIjIBxYkwj0KyySJdhtcRhfemQrJfdjQkYyCyeef1WVxMNos8DhxwMqGB/A749Cpqa92H9V/8wn/UdxA8z53A9J//Cf/+7/7x+nq3lr/+Nfi1iIjIxGItZGfDV77iwqZXX4X773e7e4fr4WiMG0sk4O9/d1/w7LQTXHCBu5+JiGzLFFaJiExAcSLsSjE7Ukw6rGrNgDdnQiJdlTeYMe7TdFsboXWVI+ZZm8aS3VuO2E8sBXMaIexRVeVK8955Z8s0XLcW5s+Hq65y33APtmoVnHOOGq6LiMj4s9Yd+nHxxe4LlKuvhi99yfVOzMz0P6JRd1+64AI46SR3ouD3vw/z5qlsXUS2fQqrREQmqFxiHMpsIAlAyEI8CaGRjru2FtPRiampGZc1uHLEeUCU9MmE5Hhw8FqY3AbAmjWwZAmsXh386UbWum+od9kFbrkF8vL811RWutMD6+uDXYuIiEws1rqdVLvvDo8+CgceCH/+MxxwAJxwgts59eST8MQT8Kc/wWWXweLFbgfWDjvAXXfB8cdDd/cn/ZOIiGw+hVUiIhNUnAgLKSLc0zPK4vZYJUeq8DMGQgbCozyiaAgWiGDYkxJ26j2Z0LhqwKIGOKIMcB+6X3zRfdMcDo/+dKRRr8u6Of7f/4PLL/ePd3TAU0/BFVcEuw4REZmYIhFXCvjII253lTHw2GNw8snulL9jj4UvfhGuvx5aW+H0010Z4HHHuWu9kb50EhHZRgT8kV9ERLZWk8jgYGZTTAGVNJAMRSgrgOdnwdHvA0OFVta6lCk8Pt91WCCXODPI4QMq+56NJ2BuI+ndVp2d8OyzbkfT+ef3VSQGJd1w/StfcacyPfLIwPGWFvjDH2CffVyPKxERkfFirSvjKyx0J9F+4xvw8cfw/PN91+TkwBFHuLLBoiLX27Gry40FfSiJiMiWoLBKRGSCCmEoJJODmcHvqAYTIRGCjgjDN1jv+co2VFGBSXRBdKSLN00+MT7FHJ7mw96VkevB4nK48WBIuU/dtbXupKN994XDD+/7UB4Uz4OSErjmGne60tNPDxyvqoIrr4TiYjjqqGDXIiIiE08y6W67s2ZBaanbbdWftX3l60HfE0VEtjSVAYqITGCZRFlAIenbQchCZnKEF/R8XWvqGyCZPsFv80QIMZt8ssikt7N72EJBK8xqHnDt2rXuW+Z//nPLNFxPpdy31uedBzNm+Merqlxvq3Xrgl+LiIhMPNa6IKqjw//o7HRjKvsTke2RwioRkQkslxiLmUeULCBFexSWFzN0CWB/kQiENv8WYoEYYfZgGpPJwXXNMi6sKq6D3dcPuD6Vgrffdg3XOztd2UOQPM/9Q+HQQ90JgYOl+2mddho0NAS7FhERERGRiUJhlYjIBBYlxDwK2JcSIEFLDF6biSsSH666b5xrDjwsk4iyFyX07qzCYHI8Mg+pIjIoOEsk4M034cc/diUS45CZDSvd9yMahWOOgbPO8l/T3Q2vvw533x3cOkREREREJhKFVSIiE5jBkEmEeRQAhrAHWQl6Nzj5X2AwQKiujvDqcuw43UYmEWMnJtMXVkF2QZLDv1rN54/1X9/YCA89BEuXuiApaJ4HBQWuBPE//sM/Xlfnwqpf/Sr4tYiIiIiIbO8UVomITHB5xDmcUsCSCFs25EB1DjBS7yrLuB7Hl0WUfZhBBlm4wMrQjqF6ZjXfva6Oow7zv6auDn7+c3juuS3Tv8rzYMoUOOcc2Hln//iGDXD77bB8efBrERERERHZnimsEhGZ4DIIU0o+BeSQCKdYWQAfTWbksMoYfPV5Y2SBMIadmMKeTOuZ2OBhWR9qonKH1dxwE+TnDXqdhRUr4MwzYdkyF1iNY37m43nusc8+cO+9MH36wPFUCt56y/WvUsN1EREREZGxU1glIjLBZRBmAUXsyXQgRchCdLgywDTPg7Y2hm9sNToWSy4xFlGIq0F0WkjwangDc3aCG2+EzMxBr7OwZg3ceiu0tLi+70Exxs2XTMJuu8G55/rnS6Xggw9ceWKQwZmIiIiIyPZMYZWIiJDbWwrouQq/kYIqYyCZJLxqNca6XVDjIYcYBzAbyMCFYK4U8B3W05bTwpdPgCuu8L+uvR2eeAKuucaFR2Z8ljOk9HvH4/CNb8Dpp/uvaWqChx+GSy4Jbh0iIiIiItszhVUiIkK8Z3dVjBgNmR5PLtiEF41zKuTKEfOIEiXdtyoF1NBCLR3k58PXvgZf/KL/tU1N8Oij8PvfQ0bGuC5rSNZCfr4r+Tv4YP94YyP89rfw9NPBr0VEREREZHujsEpERMgmg32YzhymkAylqM/c+GswIfcYB7bnfxdSxN6UAInekSZaeIZVGAOlpXDzzXDYEA3X166FJUvgmWeC719lrauE3HlnuOsuWLTIf015OZx3Hrz3XnDrEBERERHZHimsEhERAHKJcQgzCdkEmUnc5qZhWehod49xKgMEyCbKPAoGvGcXllU0kujpZTV9Olx4oTuZb7CqKte/qqbGleoFFVil+1d1d8O8eW49g08ktBZWrYKbboKOjmDWISIiIiKyPVJYJSIiAMSJsIAiusMRygosLdkMHVgZg7FgNlQTqqjCjuOtJIcYhzAbF1a5vlUtpPg/1tHds5h4HBYvhmuv9b++q8vtrDr9dGhuhmh03Jbmk66CjEbhhBNcU/XBDdfb2lxp4jnnQCLhfw8REREREfFTWCUiIoDbWXUYc4hEc1lenGJ9Hv0P5vMzZtzKANOihJhDAQVk905ugRba+ICa3usmTYJjjoFTT/W/R2cnvPwyPPAAhMPjurwhWet2VR133ND9tFpb4ckn4bHHgl+LiIiIiMj2QGGViIgAECLENHI4gGmEbIL4xnYCGQOR8UuDLO6mtCOT2ZPpuLDKYIEamvk7qwdcP20aXH45HH+8/71qauCnP4Xf/c5fnhcEz4PiYvjJT+CAA/zjFRXwwx/CH/4Q/FpERERERLZ1CqtERARwhXeZRFhIEZ2REGX5pDufD319MolpaBzXNVj6emf11SAamknxMmt915eUwA9+AHPn+t9rwwa4/Xb4+OPgAytrIZWCmTPhggugoMB/TUUF3HAD1NUFuxYRERERkW2dwioREemVR4zDmU1TLMSzpYxcBtjZTaisbBzbqztRwsyniCwySQdWKSy1NFPOwHAsGoX994f77/c3XE8m4Y03XP+qqirIyBjnhfaTbrgOcNRRcM89kDnoREXPg3fege9+F9rbg1uLiIiIiMi2TmGViIj0ihCihFzybR7W20gdoAFC49sUygJxwuxGMdlkkS4FTGGppI6P8G9LysiAvfaCs8/2v18iAW+/DXfdBaGQ62EV5AmB4OY5/HD41rf813R2wosvwoMPBrMGEREREZHtgcIqERHpFSXMTPLZg5mk7EjbqgAMhMf/NuIBecTZn2n0be0ytJDklSFKAQEKC+GUU+C00/xjDQ1u59U117jT+oJuum6tKwO8/HL4z//0j1dXu5MMH3gg2HWIiIiIiGyrFFaJiMgABcQ4IDabp+daWnLoax3VnzGAxTQ1Q0cHjGsxoGUSGcynkP5NszpIsYI67DCNtKZOhe99z+2yGqyuDh5+2O1qikbHcanDsNY1XD/3XJg3zz++fj3ceqvrpyUiIiIiIgMprBIRkQHiRFgYKsJmZ9MRSQ3dZN2AsRZTtR7T1ACM73alXDI4mFLCvX2rDJ1YllPFxzQM+ZpwGHbdFe67b+iAaM0aOP98+Ne/XMP1oMoBwfWn6u6GRYvg7ruHbri+YgWceiqsXBncOkREREREtkUKq0REZIBMIvwbU9k/VeKOuBtKOugJhyA03i3WIUSIYiZRSBbprV0WaKGTdTQN+7pwGHbYwYVSoUF3uFQKPvrI7WhKJt0Oq6D7V1kL++wDZ53lvyaRgNdfh6uuCmYNIiIiIiLbKoVVIiLik02MnaIzWZGTHLoMMM0YCEfGdW4LWCyl5LEPJUCCdJlhM208S9mIr8/NhZNOgptv9gdWra3w29/CBRe430fGd+k+1sKkSa75+4UX+sfb2+GJJ1wPKxERERERcRRWiYiITzgUITxpMstnZkBy+O1HpqubUHV1IGvIJMoiJtP/VtUJrKSBTkY+qTAvD44/Ho4+2j/W3Ax/+hP8+c/Bh1XgSgLz813z97339o/X1cFDD8FrrwW/FhERERGRbYHCKhER8ckhgyPsbHb0Cug7ka+fdJ1bRwdmbcUwLc83fw2LmUu8X9+qdjzeZB3lI5QCps2eDTfeOHTD9bVrYckS+N//df2rgpZKufXccw/svrt/vKwMzjgD3nor+LWIiIiIiGztFFaJiIhPFMM8MjnYm4kdaReTwTWKGmcWd4PamSnsyGT6SgEtzTTzAuUbfQ9joLTUlfxlZfnHy8rgmmugsXHLNFxPpVwD+Msv9/+RpVLw/vtw5ZWun5aIiIiIyESmsEpERIbUFY9QvqCIrlgYvGGSHAuExj+sSsskyg4U9XvG0EmKf1FPcsRmWk5WFhx3nDuRb/AOqlTK7WQ6+2xoaHAN14OS3ohmDHz60/CTn/iv6eqC5593zeE7OoJbi4iIiIjI1k5hlYiIDCkejrFgUinxUAyGK/SzFlNbg+nqJN0EfbxYXCngAczsN7+hBY/X2fTSw0mT4DOfgRNP9I+1t8Nf/+qasYfDfaFSUKyF7Gz46lfhs5/1jzc1waOPwoMPBrsOEREREZGtmcIqEREZmrWQTIA3RM8qAGMw4Bqsd3UA47vDygIRQixiMkXkAq4+zgPqaOafrN/k95o+Ha66yoVEgzU2wq9/DY88AhkZ47L0EaVSbj233QaLF/vHq6vhzjvh6aeDX4uIiIiIyNZIYZWIiAwtHIbCQpg2bfhGStYGuiUpSoi5FJBPNi6+MlgsjbSwkvpRvdf06XDxxe7XwSoq4KaboLw8+P5V1rrAau5cuPRSt9Nq8PjKla5UsKUluHWIiIiIiGytFFaJiMjQjHHJTXa26xA+3DUmBOFIIEuwWPKIsZjZpHdWgaGJJM9SNqr3CoVg0SK47z5/YGUtfPQRnHkmrFsX7A6rdK7neXDAAW4XVV7ewGuSSXj9dXdCYENDcGsREREREdkaKawSEZHhWTvy8XTWQmsLoaqqTe4hNarpgThRZpOH6b1lGbqxVNBEJ6M7Oi8eh8MPdyfyDdbVBS++6E4IDIcDOeRwAGshEoFjj4Xvfc8/3t4OTz4Jt98e7DpERERERLY2CqtERGR44bDrUD5UmZ8xrsF6azumuiawJWQR4RDmMIlJQIp0WPUhVbzDhlG/X04OfOELbhfVYK2t8Pjjrp/Ulmq4npMDp54Kxx/vH6+vh4ceck3XRUREREQmCoVVIiIyvHgc5s/vDab8DIRMYNuQbM8cpeRxELOARO9YAx38f6wc0/uWlMA558Auu/jHqqth6VIXWm2JhuvWwuzZcOGFMHWqf3zdOtdPa/2m95MXEREREdmmKawSEZGRbbTbuAmsZ1XPAsgig1IGNnbqJEUZDSQZpp/WRsydC/fe6/pYDVZVBbfcAu+/79p2BcnzoLsb9tgDHnjA30/L8+Ddd+E733GN4EVEREREtncKq0REZHjWurRkuMDKAF6KUMU6TCrR88T4yyPGYcwBMkifCtgGvE4F6xnbkXnRKOy1F1x5pX8smYRly+Dqq92mskgkuBMC+29aO/RQOP98/zXpflrXXRfMGkREREREtiYKq0REZHjRKEybBpMnD91o3RiwHqa2DrwkQYVVIQwlTGIy2bi+VQCWNjpZTeOY3zcrC/793+Gqq1wg1V9nJzz1FFx6KaRSwTZcT/fGysyEE0+E00/3X9PSAr/7HdxxR3DrEBERERHZGiisEhGR4YVCLkHJzBxha1HP1qNQMGmOB1gscylgFybj+lYZwNJCK6+wdrPev7DQldh9/ev+sYYGePhh+NWvXG4XNGtdLnjWWUOXJ1ZXu/LEJ58Mfi0iIiIiIp8UhVUiIjIyayGRGPmaZBK6uwKZ3vQ8somyJyVAuHekHct71NDBRta3EcXF8P3vw/77+8eqq+HOO+GVV7ZM/6pEAhYsgPvvh4UL/ddUVsK118JHHwW7FhERERGRT4rCKhERGVksBqWlQ++sMgZjLaEN1YTL12IDvK1kk8FuFPf8zvWt6sDjPWro7i0NHJtwGHbe2fWvGlwO6HmwfDmcfTaUlbk/jqD7V3me66d18cX+axIJ+Mc/XOmiiIiIiMj2SGGViIiMLBqFoqKNJzReQAkOLpqKYNiFqcygAEj2Pt9IM6+x+cfkZWTAQQfB7be7XlYD5rfw8cduR1Nrqz/QGk/p/lWRCBx3HFx+uX++jg7429/c2MY2vYmIiIiIbGsUVomIyMjSZYAbC6vCwd5SDDCTXA5mFq6TlUt16mjjKVYxHlFZbi58+ctw5pn+sdZW+NOfXElgkGFVmrWQkwOnnQZf+pJ/vL4eHnoIHn00+LWIiIiIiGxJCqtERGRkxrgG65HI8IGVtW67z7hERsNMAWSRwW5MxYVV4PpWebxL9bidQ1hU5AKio4/2j9XXw4MPwuOPB9+/Clw54JQpcOGFsM8+/vH16+Hmm+HVV4Nfi4iIiIjIlqKwSkRERhaLwdy5kJ/vGqkPpbub0IqVmN4QKRhxwuzJdPLIhZ4+VUkMFdTxNlXjMkcoBPPnw9KlsMsuA8eshVWrYMkSWLYs2P5V6fk8z63jssv8JxJ6HrzzDpxxBlRsfiWkiIiIiMhWQWGViIhsXJCJzKYuAQgTYia55JFJuhTQ4tFIK2toHre5jIFZs+BHP4LJk/3jFRVw3XVup1XQDdfTFi92AVp29sBrrIWVK13D9dbWYNYhIiIiIrIlKawSEZGNsxZSI5y4Z3BbkgK+rVgsk8niMGaRbrIOhiYSPMWqcZ0rKwuOPNKV4A3W0QFPPgnf+55r5zV4x9N4s9aFYiecAN/+tn+8pQX++Ef42c+CXYeIiIiIyJagsEpERDYuMxNmzhw6sDLGpSmdHdDVCePWPWpocaKUko8hTLpHVjeWCpppY3yPxisogJNOgm9+0z/W0QEvvgg//zmEw+M67ZCsdZWYZ54Jn/2sf7y2Fu6+G554Ivi1iIiIiIgESWGViIiMzBi3daiwcOh6N2MwFkKVVZgNG7AEm9zkkMGBzMYQI10K2InlPapYQ9O4zzdjhisHPOww/9j69XD99fD001uuf9UOO8Ctt8KiRf7xjz+G88+HDz8Mbh0iIiIiIkFTWCUiIhtnLXR3j5jGGBMiYoIuA3SlgFPJZgcK6TsV0NJGF++wPpB5Z8yASy5xm8sGq6qCG2+E8nKIx4PvX9XdDbNnwxVXuJMLB1uzxo3V1wezDhERERGRoCmsEhGRjTPGlQKGw0OmMRboNh7rw52BLsP2PIqZxCIKcX2rDGBoo4Nl43Qi4GCxGBxxhOsJlZU1cKy7G154AU47zfWOisUCWUIva91fw2c/C2ed5R/v6HClgOecE+w6RERERESCorBKREQ2Lh6HBQtcUuN5Q17SkWhnZdOqQIsATc9jEhnsx0zonc3QBrxNNa10BzJ3RgbsvTecffbAU/rANVl/6y244w43Fgr47motTJoEJ5/semoN1t4OzzwDDz8c7DpERERERIKgsEpERDbdMDVuBkNWJ8xb1UQtnYQDbrKeRYQDmc0U8kifCpjA8jHreTug3VUAU6a4BufHH+8fq6uD22+HW24J/nRAcJnhtGlw5ZWw//7+8aoquOYaeOWV4NciIiIiIjKeFFaJiMimCYddCjNMYNWOZVloA1W0EQlwf1V69lnkMod8+koBLa208hYbApsbXEB04YWw667+sZoaeOABWLYs+HJAcIczphvAD9VPa906F2aVlwe/FhERERGR8aKwSkRENi4chvx819k7kRjiAoMHbAh38GaAO5v6yyGD/ZkBvbu4DG1Y/kElCVKBzRuJuHLA++93O60GW7kSvvtdWL48+BMC0xWZRxzhShAHB2Td3fD883D66dAZbDsxEREREZFxo7BKREQ23eBmTf1EgUlNnbzVvZp2kgEXAkImURZRRP+wqhNYQT0Jhu6rNV4iEdhpJ1iyxN+fKpWCDz6A66+HZDLYksD0X4cxcNBB8L3v+a/p7oY333RhloiIiIjItkBhlYiIbBprXfoylBDkYNi30tLcsp4GuokEeIuxQAYh9mY60ygA3G6vFB4bqOMV1gY2d1p+vmtwfvXV/rGODvjb3+Dyy92mtBEyvnHheW493/8+HHWUf7y2Fm6+WYGViIiIiGwbFFaJiMimicVg1iyXvgyubbMuQEqEoMK08T61hAK+xRgMhWRRzCS3gJ6zAtvopozGQOdOKyyEr33NleEN1tgIjz4KTz/tThIMmudBcTFceinssot/vKbGlS4uXx78WkRERERENofCKhER2TTRKEyd6mrghmAwpEKwOtzCM6zGI8BmTYDFkk+cw5lN+kRAgCaSPMPqQOfur7QU7rkHDjnEP7ZmDZx1lusbFXTDdc9zGeJ++8Hdd7udVv1Z68oTTzsN6uuDXYuIiIiIyOZQWCUiIpsmXQboDdMPykJ2p2F+rcfLVGKxhAPuXBUjzDwKCJNBendVEo8NNFNLe6Bzp4VCMGcOXHwxZGcPHLPWncR3443Q1hZsw/V0qWEq5U4qvPDCoftpffghXHfd8BWdIiIiIiKfNIVVIiKy6SIR9xicuBjAQm4rHLIWmmhiNQ2BlgJaIIsoBzKbYgqAFGBIACvZwBtUBjb3YLEYHHooLF3qH+vuhhdfhDPPhKamYBuug/uryc52JxJeeql/vLERHnwQfvzjYNchIiIiIjJWCqtERGTTRCKuKdK0aZBI+McNYAxe2FJHPS+zllDAO6s8LMVM4kCmk26yDtBIJ8+wKtC5B8vJcc3NTzjBP9bW5hquP/iga/kVNM+D3Fz4+tfh4IP94w0N8Mgj8MILwa9FRERERGS0FFaJiMimMWbkY+0seEBnBJpJ8tIWOJEPIJMI8ykEwm4RQDdQThOtdG+RNaTNmuVO3TvuOP9YTQ3cdRf88Y/B969KV2zOmwd33gkzZ/qvWb3a9a965ZVg1yIiIiIiMloKq0REZNMZM2yDdQxkWti5xmCSlnU0Ukc7kYBvNTnE2J+ZQIR036oOLMupom4L9a3qb/p0WLIEpkzxj61dC7feCtXVW6Z/VTqwuuwyyMoaeI21UFYGN9wAra3BrENEREREZCwUVomIyKaLx2HhwqHHDGR7sHeVIZqwfMR63mI94YD7VoFlBnkspIh03yqAVjp5cwv2rUqLRGDvveGBB9zhif2lUvDmm/Cd70BVFWRkBLsWa90c//EfcO21/vGuLnj2WReuiYiIiIhsLRRWiYjIphtpZxUuPOoKu1+b6eBF1vQ+HwTb8ygmmznkA8nekXY6eI+agGYeWWYmHHIInH22f6yry5Xe3XGHO61v8Il9481at6vqi1+Ez3/eP97SAn/+M/z+98GuQ0RERERkUymsEhGR0UmlXAfvoRjwQtAVgS5gJQ200kU4oEbrpueRS4zDKaWvb1WIViz/xzraGKIZ/BZQWAgnn+wegzU2ws9/DvfcM2L2Ny6sdf3wp02Dn/4UPvc5/zXr1sF558Ff/hLsWkRERERENoXCKhER2XSRiKtty811odUgxkJBM+yxwdCOx9usp4kuogR7BF4GYWaTR6S3bxUksKynhSY6A517JMXFcNZZrm/UYBs2wC23wIsvBttwPd0XP5Vy/bTOO2/oflqVla45fHV1cGsREREREdkUCqtERGTTRSJuy9CkSf7dVQZCFvJbYbcN7ql22nib9YEuyQJRQuzNDOYzGVcKaLBADfU8T3mg848kHIZdd4Vf/ALmz/ePr1sHl18OK1YE23Ad3Ht7Hhx0kAvJBksm4bXX4NRTFViJiIiIyCdLYZWIiIxOOvUYigFroDvsyv4aaecZykiQCqgQsGdJWArJ5FPMAfrW1kiCp1kV4MwbF43C7rvD+ef7xxIJePttWLrU7X6KRoNdi7UubzzySNfkfbDOTnjpJbj33mDXISIiIiIyEoVVIiIyOsa4LUPD8IzrWQWGVjz+QRUJUoGeCggQJ8xc8jG9sZihG8saGunqbbz+ycjNhRNOgEsvdX98/bW2wmOPwY9/7DLAwePjzfNg8mQ334kn+sfr6+G++9xuMBERERGRT4LCKhERGZ3MTFiwwNWNDWFSCvatAKzb49RAC/+irl+INP4sECfCAcwmn1zSpYAJLGVU8wYVgc29qSZPdiV2xxzjH6uvh4cegieegIyM4NeSSrm+Vd//Psyd6x9fv96dVrhyZfBrEREREREZTGGViIiMjjHDH2FnICsJu9SA6ekbtYFGnqMs0DLAnqkpIM5Mckk3WQdop5tVNAQ8+6aZMQOuvBL+7d/8Y5WVcPXV8PrrwTZcB7e7KpWCPfeEBx6A0lL/+D//Cd/+Nqz6ZKsoRURERGQCUlglIiJjM0y9mu0pA7Q9wy2keJUKTKB7q1w8VUQWBzAd+pX9NZHgedYEOPOmi0Rg553hoov8eV8qBe+8A2efDbW1wTZcN8a9dyoFe+3l5hwsmXSB1a23BrMGEREREZHhKKwSEZHRicVcGWBOjks7BjFARhLiCfe7JFBJI+toDrxvVRZRdmYqETJw8ZXrW1VOPRtoDXTuTZWZCZ/9LNx8M8TjA8c8D/71L7jqKmhvH7E12GZLZ42ZmfD1r7uSwMGam+G//svt+Bqup76IiIiIyHhTWCUiIqNjjGusNFSSYiBqYYdKOGiNeyKJpZwaXmNtmlN+ewAAIABJREFU4GFVJhF2oRhDlPSpgAk81lDHetoCnXs08vJcw/Wvfc0/1twMv/89PPJI8KcDgguhCgvhlFNcWeBgdXWuVPBvfwt+LSIiIiIioLBKRETGIpVydWJDlAIaIORBpF8JWzPdvMjaQJdkcfHUdHLZk2Ig0bMaQzNdvBLw/KNVUgI//CF85jP+sQ0b3M6rv/0t+P5V1rq/yh13hAcfhF139V+zbp07yfDtt4Ndi4iIiIgIKKwSEZHRMsYlKEVFQ5YBgutXlei9wxi6gDIaaaCDcMCdq6aSxRHMof8trplunmE1bXQHOPfohEKwww7w05/CrFkDx6yFFSvg/POhrGzL9K9KJNx6zj3X308rXZ54003uOhERERGRICmsEhGR0TEGsrLc1qBkcshLIh4UdPb9vgvLR1RTSxsRAmzEBGSTwe6U4G5xrm9VB5b3qd2qwipwf5SlpXDttZCf7x9fswYuuwzq64MtCUxvkItE4ItfdOsZPF97O/zlL3DBBdDVFdxaREREREQUVomIyOila8eGUdANR3+c/p1LQlpp502q3MuDWhbuxraAQuZTRN+pgJY2mvk/1gU089hlZ7uG66ee6h9rb4c//7nv9MAgG66D+2vNynK9tI4/3j/e3AyPPQb//d/BrkNEREREJjaFVSIiMnrGuDq24VgwgxKpJrp4mtV0kAx4bxVMIZtp5OK6WLmwrJ1OVlAf8MxjM3kynHPO0A3XW1vhySfhl7/0l+cFwfNgyhT40Y/gkEP841VV7nRANVwXERERkaAorBIRkdGLx2HhQver5/mGrbEkQpa+PVSGdizvsIEOugM/FTCPGJ9mTr/5QzRheZ5yEvjX+0kzBmbOhCuvHLrBeWWlKwf84x+D7V8F7r09D+bOdSV/OTn+8XQ/rcrK4NYhIiIiIhOXwioRERm9dJP1IU4DBEvcGnbszGVqIg494ZAFWmhlOdWEAr79ZBBmFvlkECMdWKWw1NBKHe2Bzr05Zs+GG290wdVg69e7Zuxr1gR7QmD/v9JPfxruvBNyc/3XlZXBkiXQ1BTcWkRERERkYlJYJSIiY5NMui04gwMrA1FrmbOuk/3qYu6JnlK8Olp4jtV4Ae5uskCMMPswnank4vpWGVJYqqjlDSoCm3tzxeOweDEsXeofSybhjTfgvPPc7qagSwLTc3z2s/Ctb/nH29vhf/8XHnww2HWIiIiIyMSjsEpEREbPGJg0CfLyhmm0bsgxmRxgZgCp3uda8XidKiwQZqhdWePDApPIYEeKoDcYM7ST5H1qApt3PGRmwmGHwdln+8e6uuCll+COO4Jvtg4usMrPd+WAX/mKf7ymxgVrv/lN8GsRERERkYlDYZWIiIxeOOxqw6ZMGSassmQSYqdQCXGySAdGKaCGJlZSH2gpoMWSS4x/o4S+sAxaSfE6W3+jpeJidwLgt7/tH6upcaWCDzwQbDlgmufB9Olw1VWwaJF/vKLCjb3/fvBrEREREZGJQWGViIiMjbWQSAzbtyozlWK3ljwWUUxfKR5U0MBLrCEU4M4qgEwi7E4JETJxe60MCWAt9ZTRGOjc46G4GM46C3be2T9WXQ333APvvbdlAqtkEmbNghtucOsarLzcNVxfuzb4tYiIiIjI9k9hlYiIjE0kAkVFQ/Ss6vl9azs5K6s5kJn0393UQpJXAu4bZXFN1veghEVMpX/fqgrqeYHyQOcfD+Ew7LYb3Hab62XVn+fB8uVw6qnuZL6gAytrIRSCQw6BM87wj3d1wfPPw4UXBrsOEREREZkYFFaJiMjYxGJQWurCKWv948aSGQqxC1OJkEF6d1M3ljXUs55WIgHehjwshWSyR29Y5bTQxetbcZP1/qJR2GsvuPRS/1gq5Urvbr/d7XwKBXxHt9a1Kfvud+HMM/3jHR3w7LMuXBMRERER2RwKq0REZOxSqRGHs0NR9qAEQ5R036oEHmXUUUkL4YBvQ9lksCfTgCjpsKwTw4fUUENboHOPl8JCFxAtWeIfa2mBRx+Fm292wVbQPM9tpjv3XDjgAP94dbULz156Kfi1iIiIiMj2S2GViIgEw3qEmpuZnIiyFyVAAjC4UwE7eZV17rIAl5BJhEVMBiL071u1jkYa6Qxw5vFVVAQnnwwHH+wfq6+HX/wCXnxxy/SvSqVgxgy46aah+2mtWeNOD3z33eDXIiIiIiLbJ4VVIiIyNtGoSy2GOhHQGPA8QhVrmdIR4VMspP8tp4kEz1FGK11EAmq0bnse8ylgn96wzI000cozrA5k3iCEQrBwIdx3H+y558Axa13fqtNPh3/8wwVWQ1VljhfPc++/775w/fWudVl/ySQsW+YaricSQ7+HiIiIiMhIFFaJiMjYGOMCq5HSkVCIbBNhb6bjbjnpUjzL+9TSRBcRwgEu0pJDjFnk0n8PVydJymgkFei+rvEVCsGcOS4EGtxw3Vp3It/SpdDZGWxg1b+f/kEHuX5ag/tlJRLwxhtw1VUu3BIRERERGQ2FVSIiMnbWDr99xhgwhoxwiFlMopQC+jc6b6eVt1gf+BLziHEEc+kflrVgeYG1dJLcyKu3LtnZcOyxLgQarKMD/vIX+MEPXGA1eMfTePM8yMmBb38bjjrKP97Q4HaCLV0a7DpEREREZPujsEpERMYuEnEdwIfaxmMtdHYQbqhnBpM4lFIgBT1lfw108DSrSJAKqBDQiRJmJnnkkEm6ybuHpZk2ymkMcOZg5OXBCSfAccf5x1pbXWD16KPBh1Xg+leVlMBPfgIHHugfr62FBx5w/bRERERERDaVwioRERm7eBzmzvWHVca45xobYc0acoixPzPoK8UztOHxFuvpJhXYqYAWCGPYjWJ2phi3s8tgsVTTwN+3ob5Vaca4csDbboMjjvCPV1XBNdfA008H37/KWrfDapdd4MYbITfXP75ihWu43rjt5YIiIiIi8glRWCUiImNnLXR3j9izinCYOBF2YAp55OB2V7k9Tg208CG1hALcW2WxPaWApaR3VoGhmRTPURbYvEGbPt2FQIWF/rGKCrj1VrezKR4Pvn9VMgm77eZ2WA3up+V58MEHcNFFrlRRRERERGRjFFaJiMjYhUJuO81IW3jCYTIIs4BC9mAGfbuboJomnqM88GVmEKaUfGLESPetSgI1tFBNW+DzByEWg8WL4Z57XO+o/rq74fnn4YwzXO+oaDTYtVjr1nPiiXDJJf7xlhZXmvjjHwe7DhERERHZPiisEhGRscvIgFmzXGCVHNSsPF0KWFsLnkcOGRzAdNI7qwBaSPE6FRhMYHurLJBJhH2YwSSySIdlSTzWUsO7bAho5uBlZbnA6jvf8Y91dMALL8BDD0E4PPAUvyBY6xrAn3SSawI/WGMj/Pa38Pjjwa5DRERERLZ9CqtERGTzeN7QzxvjxioqIJUiiyi7MJUIcVw5niGJpZIG1tIUWN8qcIFVLjF2p5j+pYBtpFi2BU4kDNLUqXDeefClL/nHamvdaXwPPuhyxaBZC6WlrmfWjBn+8fJyOPdct+tLRERERGQ4CqtERGTzDRdYgdvWA2QRZR+mU0oR6VMBk0A5tbzKuoDDKksucXamiL6wCtpI8M9teGdVWkmJC4FKS/1j69fDTTfB8uWuVC9I1kIiAfPnuzmLivzXVFbCzTdDTU2waxERERH5/9m77zgpy3P/45/nmbazvcAWWJaOKAqoiBob1sRjoonnHBNjEn+m2D05lhhL9NgSo7GXRKPGxBNTzDGJiSYmFrBHxQKIYoFll4Vll+11dqfcvz/uHbbMgizMs7Tv+/UaCHPPzHMvTBz24rq+t+y8VKwSEZFtEw7b4+mGjgEm+Xzg9+PgkEdG3yhg/2Pb6eVlqj3fZjYBDmTCoM6uCLCCOipp9vz6XgoE4IAD4IEHbOFqqKoquPhiqKnxvsPKGPD74YQT4LrrUtd7emDRouGzrUREREREQMUqERHZFo5jKxPZ2cOvGwOtrRvbaJKjgOAnGXTeA6yihSa68Ht4KmAAH+XkkUmIZHdVAkMTnazfSUPWBwoGYf/94fzzU9d6e+Gtt+CnP914QKOnjLGnAp50Epx+eup6Rwc89ZQdTxQRERERGUrFKhER2TbG2GrI0NMAkwHrzc1QXw9AFkHmUgb4GFis+oR6GujChzdVFIMdBZxIPgcxHohCX2GshS6eYaUn1x1thYVw5plw6aWpay0t8OCD8KMfjU7gejxu87Suuw5OPDF1vbbWng74xz96uw8RERER2fmoWCUiItvG54O8PNthNVzByufb2Mrjx2UcuexFMf2jgIYOunmdtX2/8k4hYY5hKgM7u9qJ8wJVNNPt4ZVHz9ixtmB1yCGpa42NtpvpxRdHJ3A9WbD67nftpOhQtbVwxx1QWen9XkRERERk56FilYiIbJtQCKZMgczM4YPWkwUrwMWhlCyOYhIDy1Kt9PA8q+km6lFvVd9W8TGRfFz8G++LAutop40eD688uiZOtKcAzpiRulZdDZdcYscCvQ5cTyRs/fKgg2xH11CxGPzrX7a41td8JyIiIiKiYpWIiGwjY2wLzdCuqqRo1B4B1yebIPMYhx3Ds91NXRiWUU8XUc9OBTTYD729Ke7LzUqOAhpaaWEhqz257vbg98Oee9oTAoeKx+3JgFdeacPOg8FN/9Ftq+Sooc8HRx9tQ96HikZt4eyee7zZg4iIiIjsfFSsEhGRbWfM8F1VYNtn6uo2/jKIjykUUkIuyVFAA7TTzjLqcD3+aMoiSAV5DOzs6iHOalpIeDqEOLpycuDLX4abbkoNVI9G4Y034Ac/sHFjXgeuJxKQnw8XXQT/7/+lrjc325MMH3jA232IiIiIyM5BxSoREdk2rmszqyZMsIWpoZInBvYJ9I3iHUgF9lQ+237TSAfPU0mcTRS90sAAeYQ4gon0F6sc2kjwItUeXnn7KCiAr3wFTjghda21FR55BO66CwIB7/cSj0NREZx3HsyenbpeXw/33gvvvuv9XkRERERkx6ZilYiIbBvHsdWOrKxNd1fF4/bWJ5sgBzIONpaHHDpI8BbrAfDh3VF1fhymUEAe2YDdUwJDE+18SINn191eysvhJz+BI49MXUsGrj/zjPf5Vcnmu7lz4b77YPLkweuJBLz3ns2vWrlrHM4oIiIiIltJxSoREdl2xtjZsqHcvo+ZmhpYv37j3ZkEmEUxYTJJFoziQD0tfEyjZ6OABjuGuCfF5JNFsrMrgaGRFlawwZPrbk+uC1Onwg9/CLm5g9eMsYWhq6+2hatQyNv8quTbZK+97AmBAxruAFvPXLHChsNvqu4pIiIiIrs+FatERGTbhUK2VSYQSK12JAPYB3RWZeBnL0qYSQm2TOWQANbRzEtU43rYWWUw5BDkEMpJFsrAoZ04r7DGs+tuTz4f7LMP3HGHzbIaKJGA5cvtCYEtLakFpHRKBq6HQvDVrw4fAN/eDo8+CpdeOugtIyIiIiK7ERWrRERk2/n9NiBpU0ndjpOylrNxFLC/I6udGK+x1sON2u6qTAJMpWDgBomQYCXNxHehkPWBsrPhi1+EK65IXevshCeegBtvtH+Ujne1QsDWL3Nz4YwzYMGC1PXWVvjDH+Bvf/N2HyIiIiKyY1KxSkREtp0xNlx9U60wxkAkMuiuTALMphQ/GSTH8XqBKppYRzt+Dz+isghwMBVkbBwFhB4MH7Oe5dR7dt3tLT8fTjsNTjklda21FX73O3sLBr3dRzK/asYMuOcemDMn9TFr1tjuqsWLvd2LiIiIiOx4VKwSEZFt5zi2wpGRMXzYUFcXfPzxoLsyCbA3JbgESJ7MFyXBGpqopQOfh7lVDg5TKORAxmM7u2wrUQMdPMMqT667I3AcG7h+9dX256FqauDKK2HRotHJr+rthYkT4aKL7FtnIGOgutrmV3V1ebMPEREREdkxqVglIiLbzu+HsWOhpMR2WA2VbKUZwMVhLJnsRwn9BSOHdiK81pcd5dVAXjK3ajL59J9ICN3E+IhGj666Y3AcmDLFdjSVlKSu19bCLbfA2rU2gszLfYB963zpS3DXXakdXV1d8Je/wPnnQ0+Pd3sRERERkR2LilUiIpI+m2rFGSazKlmsOpapDPw4aiPKIlbTTg9+D4PWcwlxOJOAEMl+qy5gMWtZR7tn190RhMNw1FFw3XWpaz098OKLcO21tpC0qRiydDHGFsX+7d+GH0/s7ISnn4bf/MbbfYiIiIjIjkPFKhERSZ/hRgDBViR6elK6rrIIMpcy7MeRLRhFMKyggVYi+PGuUhLApYwcsgmR7K5KYGiji9pdvFgF9lTAE0+Ec85JXevshL/+1XZfjVbg+tixtkB25JGp67W1dnTxsce83YeIiIiI7BhUrBIRkfQIhWDy5NT7k5WOqipoaxu0FMBlAvlMphDoL2R10sliaj3bqsGOAs6giLmDxhANrbSziNWeXXtHUloKl11mTwkcqr4ebrrJnsrndeA62DrnuHFw4YW2cDXU2rXwwx/CunXe70VEREREti8Vq0REJD38figoGNFTfLiMJ4fDmQjESQadt9DF81QSJe7hICCE8bMHYzZeN9nZ9TFN9DBM9tYuqKzMBpzPmJG6VlcHd94JH3xga5FeSk6QHnMM3Hef7fwauv7RR3DuuSk1TxERERHZxahYJSIi6ZE83m1To4COA27qx042QeYxjv44dYdODEuoo5e4Z6cCJq89n3Eku6rAoYMEi6klyia+jl1MIADz5sENN6SuxWLw5ptw9tmwfv3oFKwcBw49FL71rdT1SAReeQXuv9/bfYiIiIjI9qVilYiIpEcgYNt0CgpSTwQ0xt7X2ZnytAz87Ekx+eSQHAVMAE208j4bcD3qrTKAH5cZjKGY3I3XNkA77bzj4RjijiYZuH711an1xFgM3nsP7rjD/u9h6o1pZQzk5cGll8KZZ6auNzTArbfCvfd6uw8RERER2X5UrBIRkfTw+SA3FzIzB58KmMysamuDVatSnhbExxQK2JfxJEcBDVBPOy94nB3lApMpYB7jsSUyu9cGOniOSjZxtuEuqajIdlCdcUbqWksLPPIIPPCArUl6LZGwuVX//d8wc2bqel0d3HUXLF/u/V5EREREZPSpWCUiIuljDMTjI35aNqG+cbz+53YQ5w3W4eB4lltlGDgKmBz7s6OA9tq7l+JiOP98OOCA1LUNG2yW1GuveT8OCLaLa/JkuPtuu6+hKivtSYYffeT9XkRERERkdKlYJSIi6eO6kJExuLMqyXFs99UwMvEzm1IyyCTZ4RTFUEMzK2n0NLcqhI89GUsOWSSLZTEM9bTwIQ2eXXdH5PPBPvvAz34GkyYNXksk4P334bzz4OOPbcFquD/mdEkk7Ovvtx9ccEHqejQKixfb0UURERER2bWoWCUiIukTDsPUqcN3VxkD7e3DroUJMJOxhAiRLFbFgTpaqKHNs2KVwY4hTmcMWQMKZQkMDbSyimZPrrsj8/lg+nT4/vdt3XGgRAJWroRbbrFZ+oGAdwWr5PRoZqYdT7z88tTHdHfDM8/Atdd6swcRERER2T5UrBIRkfRyhhmecxxbpKqutlWOoctAPhkczDgguvH+Nnp5iTXe7RVIYCgkzGGUkwxZB4dWoiz0ODNrR5WbC//xH3DhhalrHR3w+9/3r/n93u4lGbj+rW/BIYekrjc1wa9+BS++6O0+RERERGT0qFglIiLpkzz1b1OGK2QBDg6FhDmGqYAf2/Pk0E6Ml6iigS78Hn5kZRJgEvkwIKWqhwRVtBBl5Blcu4KiIlsgOv741LX2dnjySfjzn70vVoF9S5WX21D1efNS16uqbNbW6697vxcRERER8Z6KVSIikj7BIEyYYGe3ho77OY7NtNpkblWAWZQwsFgVxaGaJhrp9DS3KocghzIRH2GSo4DdGJZSyypaPLvujsxxYMoUuPNOmxs1VE0NXHGFLRB5nV9ljB1BnDXLZlQNLZAlErBiBVxzjc2yEhEREZGdm4pVIiKSPn6/bckZLmTdGBsy1No6/FNxGU8OsyimfxzP0E43r7Ou71fpZ1/ToYhMygaErAN007Nb5lYlOQ6MHw+XXgo5Oanra9fCrbdCc7O3BatkQ54xcNhhcPPNqTXPaBRefdWOJ3Z1ebMPERERERkdKlaJiEj6GGMzqYa2tziOXWtuhjXDZ1C5OBSTzTFMZmBZqpUIz1FJN1GG78naxi0DBsNE8jmUCmyhzFZHmuniH3xCwpMy2c4hMxO+8AW47z7bODdQdzf87W/2hMCeHhu47iVjbIb/v/87nHBC6npbGzz2GNx7r7f7EBERERFvqVglIiLp4zi2ulFaamezhq4lRwE3IZsA+1KKLRbZUcBuYDkb6CLqySig03fLI8SRTGbgGGIHCV6hhma6037dnUlmJhx5JHz966lr3d2waBE88ojtdtpELFnaJBL27XXLLXDssanrDQ3w85/D3//u7T5ERERExDsqVomISPo4jp0HGzMmNbMqub6ZRO4QfqZRRBl5JEcBDdBGG++yHtfDjy0/LmXkkkMmNrfK/thKJ2to8+y6O4uyMrjySjjmmNS1ujq47jpbsBrafZVuxti31qRJdj9DxxONgcpKuP76TU6cioiIiMgOTsUqERFJL2M2nXIdj0Nj4yaf6selgjwOpoJk0DlAE10sZDVxEpt87rYw2A/EmYxhOoX0jwIa2mjjX9R4ct2dzbhxcMkl9ueh1q+H22+3haLRyK+Kx+3JgD/7GRQUDH5MPA5LlsDZZ2/27SYiIiIiOygVq0REJL1c17bXDJ0HcxyIxWxm1WYqGdkEmcc42FiYcuggztvUYgAf3syZGSCLAHMoHbhpukjwHvVEPSqU7UxCIViwAB54YPiOphUr4KyzoKpqdDqsfD44/ni46KLU9a4uePppuOkmb/chIiIiIumnYpWIiKRXRgbMmGF/Hi63augxbkOECbA3JYTJJHkyXxyoo4WPaPB0FNAWq0oGbpguEiyhbrcOWR8oFIL58+H881PXenvh9dfhxhttzXIz8WRpYQxkZdksrVNPTV1vaYFHH7XjiSIiIiKy81CxSkRE0m9zVQrX3WwKdwZ+9mQssyjFlqkcEkAtLbxENa6HnVVBXGZTSjH5JDOzEkA9zbyhUcCNxoyB//5vexuqowP+/Ge49VZ7OqDXgevGwPjxdjyxvDx1fd06uOYaeOEFb/chIiIiIumjYpWIiKRfImFvQysVxtjU65aWzT49myAHUAb0Z191EON11nmw2X4uLmXkULQxZN3BYOigmyqU1j1QcTGccw7ss0/q2oYN9kS+t98enXHAWAz23BPuu88WroZau9Z2e61Z4+1eRERERCQ9VKwSEZH0cl3IzbXtN7FY//2OYysLjY1QX7/Zl7DjeGX4ySBZNOrFsJpGamjD79HHl8GQTwYLqCA5gggOrUR5lkpPrrkzmzLFFqX22it1rbISzj0Xli61o4NeSk6bHnaYPSFwqN5eeOUVuPZab/chIiIiIumhYpWIiKSX60Jmpj2ibWCxCmzBynW3KLdqFsX4CEJfVlQUQw1NrKcDn4cfXzkEOYIphMkiWSjrxrCUtXyEjpYbyO+H2bPhqqtSm+jicVi2DH70I1ujDAS8PyEwFIKTT4YLLkh9TEcH/OUvcNtt3u1DRGRH4fRN3Pv923snIiJbR8UqERFJv+Rs1nCBRVsQsu7DYSyZzKMUOwroAA5tRHiFanuJtG/aCuBSQR6ZZPRdxWZmtdDBWto9uurOKzMTjjsObrghdS0SgWeege9/33Y3fcof+zZLJGyN9JJL4MQTU9c3bIDbb4c//tHbfYiIbBd9H4z+ABDrZPX7i6iv/xUZoccJBlZs162JiIyUilUiIpJ+rrvpsKJoFGprN/t0B4cxZHIMUxn4UdVGjEVU0UoEvwdB6wZIYCglh0MYD/RuXGshwnOsSvs1dwWFhfY0viOPTF1Lnsj36KO2u8priYTN07rkEptjNdT69XDLLbB8ufd7EREZVQ64bpR1H73JBad/gS+f/h+sXPUDcvMvorDoBAoKvo0x69RdKiI7BRWrREQk/TIyYMYM20oz9G/FW1CsAsgiyGxKAB/JDqceDB/RSBs9+PGuTScTPxPJY+DHZA9xqmihh9imn7gbmzgR7r0XDjkkda2+Hu68057INxr5VcbA/vvD1Venrsdi8OabcOaZttNKRGRX4TiGjqZ1PHL3T3hptct19z7NvP0+YkP9OzQ3/xhjXifgu46AL/rpLyYisp2pWCUiIunnOP2B6sOtbUGIRgCXiRQwhULYWCAydNLBmx6fCphLiMOYBARIFsq6cHiLddTT6em1d1auC1On2vyqjIzBa4kEfPSRPZEvErEFK6/zq1zXjidef31qR1c8Du+/DzffbMcTRUR2VH4gbDZ9yzD2kwoAN0FbUz2LV9Rw3CkX8Nn58wgGwxhTSE/P52jr+C6u/01Cwert+BWJiGwZRe6JiIg3fL7hQ4qMsdWLRMJWFDb1dFzKyGYBk1hFPcncqhYiPE8ln2cGDunPrrKlKYcSsiknjxqasB+Xhi4iLGcDE8hL81V3DcEgfOYzcM89cOGF0D4g4isahVdftScE3n47ZGen5u+nkzGQlQXf/CasWgUPPzx4vaUFfv1rmD7ddlmJiOwoHGwRKo6hwYmw2LeWj90NDP7WzeAYKDbZHJ2YTDFhMC6hcC7FuT7eeO43vD9vf+Kx8r7H55CIfY3e6JFEeseN/hclIjJCKlaJiEj6BQIwfrwND6qt7c+vSra9rFkDDQ12fTOyCbIvZdhT+cB2OCVYSj1R4mTgJ7ZxLT1M348TyGU6hdRQj/136wQddLKYdXyOaWm95q4kJ8eGm69YYbOhBurshKeegj32sKHrXharwNZDCwvhv/7L7ue11wav19fD3XfbbKvDDvN2LyIin8YBMoBOovzTXcv/+ZfxrLuSSrcRiDB4KMZ+WvlMgHJTxLGmSUgpAAAgAElEQVSJKRyf2IN/K6ng4rMv4pyLLuQ/v7Af4awDycvdl97eg4j2HopJTCUWH/2vTURkpDQGKCIi6ec4tmtqU51VsZitJHyKMH5mUUwBuSRHARNAE628Rz2uBx9jTt8thxAHMZ7+zCyXTuBtaulEs2ObM2YMnHPO8CfyNTTAz38Ojz/ufX6VMfY2e7bN05o4cfB6ImGD1s8/Hyorvd2LiMjmuIAhyjNuJV8N/h8nZPyCB/wvU+k2YD+HsoHMAbcsIIu4E6DKbeJB/784LfAbPp/5f6w4dha/ferv/OyGqxg/Pobj+xX5BSdTULgAn/MkvvSfTyIiknYqVomIiDeSRanhJItZnyKAj0kUsD/lQBxwMEA97SxkNekfAuyXgZ/pFDE4ZD3BKprpROG0m+M4UFEBl15qO5uGWr0arrgC3n13dPKrenttntYVV9jxw4GMsWOC118/eGxRRGQ0+IDMOFQ7rXwt+DgnhH7BX3xLiOFgi1IB2Ozpt07fY8JEcHku/gGn8mvOmrKcGV86g7mlT9HS/C6NjY/TFZlEIHg5gYx3R+ErExHZNipWiYiIN4JBKC0dvhJhjA0x2gLZBJlHKbZYZXUS5y1qcXA2+1f4rWWwAe/7UsakjQHvtlDWTAuvsMaDq+5a/H7Ybz946KHhpz1rauDaa2H9+v4pUa8YY6/xpS/Zjq+hOjrgL3+xI4EiIqOp243yTPgjvu38nj/63iGKA4RJHfmLAr3D3JKfsQ50Q/DJjwif9BR/W/kaJ2f/L6/Nex8ooLf3BDo7fkSPyaUjNGQmWkRkB6RilYiIeCMYhHHjBherkq0u7e32eLgtkEWAOYwjgyzsEKBDFFhDEx/TiM+zjzJDMdkcwSQGFsqa6eEZVmI87OraVYTDcMQRcNFFqWuRCLzwAtx2m22y24JGu21iDOTm2jD1z38+db2xER54AP74R2/3ISKyUSBO1+xqXjrv9zzDKmwnVXJ83mA/eyL4iVJOEXOpYA4TmMMEZjOBaZRg/zElYh8bdEkUZeL/YB05D6+mpmgDKy54Er63BOgFZy0+p52suALWRWTHp4B1ERHxRrJ7alOdVfEtS3jNwM8MiggTIkIH4CdOgg20UkMb0ylKe8g62G8TwvjZg4FzbA7dJPiYJgzGo76uXUtBAXzjG/DJJ/Dgg4PXWlvtiXxTp9oiUq/HUWDGwOTJcOutUF0NS5cOXl+92ga/T5wI++/v7V5EZDfnGJjcDFe8DMWd2G6qgeJk4ec49uIs9mM+EygY8pgOenmR1fyJD3iMpbT5e4jPqqDzW9PJu3kRRR+up/tLU0mU1eEbGyLY9SfcxHycyFGj9mWKiGwt3zXXXHPN9t6EiIjsgmIxO+O1cqWdCUsyxrbRTJpkKwdboIc4y1jPx6zHZnMYXAwl5LGAScQ9KFYB+HGJY3iST4jQA7h9I4JxDqCCcnI9ue6uJicH9t4b3n7bFokG6uy0IeezZ8O0afZt43hUAzTGhqrn5tqmv0WLoKtr8GO6umDdOjj6aMjK8mYfIrJ7am2Fp5+2p5NS2gmXvwCnLMaGpSclcOhlJiX8mv/gMg6ngjxW0syjLOX3LGMxa1lNM2PJYj/KOIEZfJbpfEIjleEGYnMnEZuaSeDNajIffZ+M194hmLeGaOQMEvEfMHe/fI45Zjv9JoiIbCF1VomIiDdCIZgyxbbWtLZCINC/Zgz09NjKwafMfzk4FJLBsUzhb6zA9jw5tBPnZarZQCeFhD3prnJxKCaLIrJophObW2XoJEI1rRxEedqvuasqL7cZVd/5jg00H2jtWrjhBtvRNGWKHRH0omDlOPat5zi2GHXxxXDZZYMfE4nYbybPOQd++9vBb1sRkbTwxWFaA5zyPpAxYCFBNg4nMZfLWUA5ufyM17meRdTSBnRg/8HGBXpxyWM8WXyD/bmCw/kNp3Ati3gg9126v34A3afOxW2NQDyBacrD3PTvFDxR6Nk/CIiIpJMyq0RExBuOYzuqhhajkhWDqirbVrMFwgSYSTH231hssSoK1NBMA12e5VYZDGPI4jDKsbkgVgtRnmXVpp8oKYJBmD8fLr88dS0ahVdegbPOsm+JjIzUx6RL8pu0zEw47TQ4/fTUx0Qi8PLLNhxeRCTtxnbB6UugoJX+3oEEIRIczQwe4GQMcDp/4Fz+QAudHMk0buMr/JUzeYazeIiv8y32p5VubuJpFvAwn9DM9RzNpRwItIHfJVGUTaI4BzM1Bl97GTK70YG2IrIzULFKRES8M1xeVfL+xJZ3QvlxKSeX2ZTQ/7dsQxtdvEZN36+8kYGfqRThDiiU9WJYSyvNdHt01V1TdjacdJLtZhpaw4xG4d13beC6l6OASYkElJTA//wPLFiQul5XBzfdBM884+0+RGQ3kzBQ0A3HraS/UGXwAXtSypUsoJJmPssv+TtLOJxZPM+ZPM8ZXMjBfJ4ZHMNUvsn+3MsJvMhZnMIBvMnHnMaveJU1fIcDWMAeQA82pD0BgThMWg+z1kDXpjYnIrLjULFKRES84Tg29GfKFFt9GLrmultckUiO4x3D4IyrNnpZSCVd9G48Pyndsgkwj/E4BKFv1LCXBB9Tz1raPbrqrmvsWDtid9JJqWtNTfZEvj/9yXZieS0eh9JS2+1VUZG6vnYt3HgjVFZ6vxcR2Q3EgXgUZtZAWRMDi1WlZHAZR1BGNtfyPN00cwmf4ylOYz7jiRCle8gtToI5lHIfJ3Efp7CBKLfwAiH83MkJlJJH/z/wOJAfhWMr0dkgIrIzULFKRES84zg2u2qo5EmB3VvemZRFgDmUYv+WbTucujG8TwNdRD0ZBTTY8lQxWexJEXYU0AEcOuhhMevSfs3dwbhxcMUVMHdu6tr69XDzzbB48fBvnXRKNvcdcQTcd5/t/BooGrXjgN/+NrS1ebsXEdlNZEVgQSUEkp8nCYLAXCo4lik8xYf8lWXsz3Qu4EAyCdBDbNjuYQN0EyUDH19gJqeyL0up5DZeZSyZfJ3Z9I+wO5CdgMPWwOQtG8EXEdmeVKwSERHvJItSA8cBk5lVzc2pSdubEcLPdIoYRz7Jv3wboI023mE9rkfFKoNhHDksYNKgtVZ6eJaVdCv8Y8T8fth3X7j/fhgzZvBaPG7HAc89147ihUKbnibdVsnGPmNg3jw4/3zwDWnRS44n3nGHN3sQkd2IPwHTOuDwavozGKGELL7BXBqJcD+LKSbIRRxOMdlEiG32JQFiGMYS5rscTBHF/JV3aKSbrzCHcoqx3VUOBA3s2QifWevlVykikhYqVomIiHcCATv3FQwOX3EYQTBRMrfqECqw/U72uU108RyVxEmkfbLB6btlE2Q+5fR/bDp0YXiHetrpTfNVdw8+H8yYAVdemRqonkjAxx/Dj35kD430e3x2sTGQm2sLZCefnLre1AR3320zrEREtlo4DnMbYI9GkiOA9sTbPA6jgg100EAXYynjYMaTGMHnWhzDWLI4kkl00sN71DOWTOYzjo3dVQ6QG4GDV3vwxYmIpJeKVSIi4p1gEMrLbTViaKB6MrdqBLIJsi9lJLOjwKGTBEupw2BwPQjiMNjMrAryKKeAgccoddPJu6xP+zV3F/n58OUvw9e/nrrW1ga//rUNQPf7RydwfexYuPhimD07db2hAX7xC3jnHW/3ISK7MAN0+yDmDrjLECNBlDiraaKTFo5nGtmEiLLlB5EA5JHBkUyhHcOrrMEAsZTXcMCzlEcRkfRRsUpERLxjjJ3rGq5QZQx0do5oxiuTAHMpJY8cbFKt/bGWZt6j3pNRQLB/tS8nl3Jy+65oc7M66GI59Z5cc3dRUgIXXghHHZW61tICjz0G//iH94Hrxtjb/vvb/KqSktTHfPIJnH021NZ6uxcR2UUFElDWYccB+/hxGEsmAXw4ODj4yMC/Vf/44uIQxo+DS0gFKRHZyalYJSIi3hvaQeU49oTAysrUkwI3I4SfiRSQQ5jkKGACaKaDalo96axKyiXE4Uyk/xglh3YSvMoaon2FMxk514WZM+Guu2DSpNT1qiq44AJ44YXRya+KxWDPPeF730sdP0wkYMUKe0JgVFFlIjJS+RE49hMIJ8PVDTm4HEIFOYToIQYYEsPGqX86M+C58a18DRGRHYWKVSIi4h3Xhbw8qKhI/e7ecUY822VIFo0mwIDQ2VaivED1tu93M0L4mUx+36mD9jTCXgw1tNKh3Kpt4jgwcSJcdx3k5KSur1ljTwhsbbUxaF4yxk6tnnEGXHtt6npbGzzyiD3NUERk5FI/9xIkcIEgPnz4CfR9izbScpOLQ7CvKysTj/9jKSLiMRWrRETEO45jk7Q3FbDuuqnHr23u5YB8MjiGafgJkeyu6iTB61Szhjb8Hp0KGMLlAMopoQBbKLNdXbU08Ro1ab/m7iY7G774Rbj11tS13l546SW45BLb7TSCt8xWMcYWzU49FY4+OnW9tRX+8Af45z+93YeI7PpM3y1MgH0pZxxjeZk1RIjhH2G3cAe9vM06Cgjyb0zzZL8iIqNFxSoREfGWMcPPTBkD3d3Q3j6ilwvjZwZF+AnCxnGHBPW0sp72vs4nLzjkEKKCXBgQWNtNjJU0e3TN3UtODhx/vA1dH6qzE55+2oauj8bpgLEYTJgAt98OU6emPqaqCs47DxYu9HYvIrJ7cHDw42CIs5SPWEQVfnxb3F3lw6GGNh7mHVzihPD4P5QiIh5TsUpERLwVCNhj1ga2wyQD1hsaoGZkXUkuDsVkcQCl2JP5HMChjQgvswYY+ejEljAYighzHFMGXMGhlSjPspL4CE9tkuGVl9uRv5NOSl1bt86O3z3+uM2v8srA/KrJk+Gqq4YfT6yqsvlVbW3e7UVEdg8Gw1iy+A7z2ECU23mRejrI2IKikx+HDXRzF6/RSgMnsh97MXYUdi0i4h0Vq0RExFuhkM2sCgQGjwImM6uGhq9/CgeHIjI5lqkMPH67jSgLWU0rkY15H+mWRYDPMIksskmeRtiD4SPWs4w6T665OyorsyN/ZWWpa7W1cMcdtnDlZeA62Nf2++Hkk+EnP0ldj0bh1Vfhu9/1bg8isnuwo4B+TmJPvsA+vMXH3M3rdBMjtImBQAc7PhghzpOs4Le8wz5M4rscTFiZVSKyk1OxSkREvJUcA4zFUgPVk5lWI5RJgFkUw4Cw8x5gJU20EfFkFNBgu7qKCFNCNsm8LIBOellNa9qvubsKBGD//eHuu1NrmfE4vPUWfOc7tmAVDHq7F2NsUeyEE+CUU1LXOzvhmWfg0Ue93YeI7PoSGIrJ4nscRph8buFpPs+jLGYdGQQID7n5cFnKes7hCc7iMcYQ4EKOoJxcIujIUhHZualYJSIi3nJdyMqyCdrx+OC1WAyamkb8kgFcJlHANIpIhp0DdNDBv1i37XvehASGUrKZzzgGn0bYzfNUenbd3VE4DIceCueem7rW0wOvvw4//emIG/O2SjwOJSW2u+rEE1PX166Fyy6z44kiItsiToI9GcPjnMbnmMMi3mMBP+cYfsntvMZvWcajLOVh3uEC/sYR/Jzf8yb7M41f8jU+zzR6B3w+iYjsrJS8JyIi3vL5oLAQiovhk08Gd1JFozb456CDRvaSuJSRzQIm8cmA8bsWIjxPJSexBw7eZFdlEmAvirEfof1dXatoppluCgh7cNXdU0mJzajq7oaHHhq81twMDz9sJ0zPPNMWsLySDFxPjie+/jrUDZn6rK21Jxl+5jPDjy+KiGwpHw4HUs4v+U9+zXR+yAs8xyc8xzt9jzDYT8IcxpHNWRzM9ziEAsL0Euv7ZBIR2bmpWCUiIt4zJrWrCrZ6DBAgiyBzKaX/ZD6HbhIsp54ocTLwE/Mg9DyLAHMoBQJ913bpwfAJ9TSpWJV2xcX21L2XX4YPPxy8Vl8P998Phx8OM2dCJJI6aZoOyfMAYjGYNw/uuQdOOw16e/sfkxxPPOMM+MUvYNy49O9DRHYPBogQJRs/5zKfU9mHVTTzat8hImDIJshhTKKYTHLIwAF61FElIrsQFatERGT7SYasb4UwfvamhALyaKYL8JEAGmllKXUcxARIc7HK9P1YQR5zKGYJNUAQMLTRzUtUM5XCtF5zd+fzwT772C6qr38dVq7sX0skYNkyWyD61a9gxgxvC1Zgxw4PPdRmZt177+DH9Pbarqs774SbboJoT4Q1lStYuWaDfYAx4EAop5AZM/emND8j/RsVkV2G7ZGKk08G8xnPfMoHrBoMhhiGGHFPOolFRLYnZVaJiIj3wmGYNm3wfcl2lbY26OgY8UsG8DGRfA5gAvZkPgcDbKCDhazGiyFA03crIMwEchlYDIvQy0qa9A2DB/x+mDULLrwwdS0eh/ffh9tvt2+ngMcHYCUSdqr1yivhW99KXW9pgV89AvfdB+3N9fz6zqs5/vjjOe200zjttNP46ldP4+QvnsTnTjqF3y1c5u1mRWSXECVBNzG6iQ64xYgQJ0ZCnzsisktSsUpERLyXDFkfKFms2rABGhu36mWzCbI/JdhildVJnHeoxSH9mR3J18wjxJFMYuBphO0keIlqOujd7GvI1snNtafxXXZZ6lpHB/zhD3D11fYt5XXoeiIBY8bY8PehNViA+jpbrFq7xlA0NouDv3gOry1bxrL33mPp0iU89+dHObSkmxuuupJ317R7u1kRERGRnZCKVSIi4j1jbJh6YpixPNfd6upCFgH2ZRwZZGG7nByiQDVNfEgjPrYuD+vTBHApJ48MQiQ7uOJAE53UM/IuMdkyY8bA6afD/Pmpa83N8L//C0895V13levaLq+MDHuNuXPhz3+G/fYb/Dhj4IMP4Bunw5vLXAoKsxlfUkJJSQllZeOYM+9Azv3u2WT0VPHastXebFZERERkJ6ZilYiIeM/ns60xmZmpBattCFkP4WcqRYTJIFmsimNooI21tOHz4DwkA/hx2Zcy9mAsEMOOIBo20Nw3gihecBybS/XQQ6kFIoC1a+Gaa2DxYgiFbNEoHfx+O8kaCNip1b/9DX7zG3jsMViyZPjuqt5eePcDw2PPG7Iz/QxMp4r19tC8bh1+XwHTJpakZ5MiIiIiuxAFrIuIiPcCASgrg4ICqKsb3EnV22uPdduK49McoJAMDmU8f2UZyY+1Vnp5gWqOYkp69j+EwZBHBkczmSVUbdxNKzGeo5JvM0wlRdLCdWHKFPje92yX1cAT+RIJ+PhjuOUW+OUvbcGqp2frAtcdp79Da+1a+OMf4dlnbaB7dfWWvoiL4xiqVrzKbffeBj2QiMdoWFvFW2+v4Ivn/A/Hzioe+eZEREREdnEqVomIyOgwBmLDHKvd0wM1NXamaoQcHArI4Bim8ldWkMyP6iDOy1RRTydFhIml+VRAgCA+JpKHH3/fiU0OUQzraaeNCLnopDevZGbC8cfDrbfCJZfYt1BSdzc8/TRcdJEtWgWDNoR9JBzHFsWWLoWf/hSefx5WrRr5Ph3HwSXBR28s4+a36yivgEh3gt5IhM7eAFOrlrOu8xDGZQVH/uIiIiIiuzCNAYqIyOjw+SAnJ3U2y3HsnNVWChNgBmOx//6SLBrBWlpooAufBx91Bgjj50AmkE8OyVHAGFBFPW+xPu3XlMHy8uDkk+ErX0lda2+HJ56A3/1uy99aybdlIGALXvfeC1/6Ejz44NYVqqwEBh8J803GT3iPn933Hu+99x5L3n6d+64/k5cevokf//QPDFPCFREREdmtqVglIiKjIyMDJk9ObXMxxs5vbWXAkB+XCeQwl2IgmnxR2unkVar7fuWNXEJMo2jQFbqI8gENHl1RBiorgyuvhKOPTl1bvx5+9CP461/tOOCncRx7q6yEq66ynVlVVZ/+vC15XddxeP99uPkmiMZcwnljOfDoEzn+oKm8sfBlmlStEhERERlExSoRERk9w4WrG2OrAi0tW/WSLg7FZHEsU2FAoHorUZ5nNZ304vckaN1QQJj9KIYBvTHtRPkXa9J+PUnlODBxIlx6qY1DG6qyEi67DFav/vTAddeFxka44QbbVbU5gQBUVMCECf23srLhHmn6fnTpicA//gEXXADdEUM0GqOhuYPc0rFke3NopYiIiMhOS5lVIiIyOpIdVMOJRje9tgUyCbA3yaBqOwoYwfAhjXQRJYyfuAf9VZkEmMt4/BtzsRx6gVU0sIZWJpCX9mvKYMEgHHqozZY6+2xobR28XlVlC1b33gv5+cPHpjkOdHbaUPbf/W746/h8MH0anP4NOOYomDcbklFoxoH2LnjpX/akwN/+HpqbwRZP47hODcHAW3R3wxN/jlNRtoauhvv5x/utXHHW8WSmv5YqIiIislNTZ5WIiIyOUAgmTYLs7MGjgMk06605sq1PBn72YAzjKSDZ5WSANtp4m1pcjz7uMvAxlUICBEl20cRIUEcrdXR6ck1JlZkJRx0F3/526lp3NyxcCA89ZAtOA99myU6reNwWma66avDpgklFRXD1VfDKi3DZFYY95sX4a2cjdzXXcGdzDX/vamBDuJsTvgB33gUvPQ+nngrGuPT2gD/0BwrHHMeYMceSMJ/j1rv+i7+9CZffcCvfPvFgb35TRERERHZi6qwSEZHR4fNBbq6doRp4fFuy42q4lpctfWlcxpPLoUzk9zRhO1oMjXTxHJUczZS+e9LHYBtrysnlAEp5kY+AMODQSoSFrGYe49J4Rdmc4mK48ELYsAEeeWTwWkMD3HUXjB0LZ5zR//ZzXfu2fP99m281dEzQ54eZe8D3L4FTT0+wtKuDU96u5L3ONuoi3ZCI2wfF4wRCGUwOZXBEQSE37j2JO+8IMrGilPsfuJ26uutxXfsONAaysjI59KAS/usbgVH5vRERERHZ2aizSkRERocxtiA1sCiVbHNpa4NPPtmml88iwFxK2TibhUMXCZZRj8HgepBbBYYxZHIMUwAfyRHEVmIspJJWIh5cUzZl/HgbuD5rVupabS38+MewZEl/4Lrj2Jyq++6DDz5Ifc64Urj+WsPnT4tye1UNC958m4WNdQR8Pk4fX8G9e87hsb3245Y99uabJeNZH43yUHUlhy1+hzdo5Ac/8HP7LeNIJGYQi00nFptBPD6DtrZy/vl0gKVLvf39EBEREdlZqVglIiKjw3FsV1VOTmoLSyKRekrgCGURZF/KyCMXsK8VB9bRxFLqPBsFDPeNIA5sVu4FVtNCx8bTCWW0TJwIt94K44Zpaquuhu99D1atsgWreByef94Wq4YaMwbOOx8OOKGX8z78hEs//IAsn497ZsxiyZwD+OW0mZxbNo7/HFPExePLuWfqNN6YPY9zK6bwQWc7py9fwh2N1RxzHHz9tNTXr62FBx7YpoZCERERkV2WilUiIjI6HAeysuzRaUO/Q0/mVm2DID4mkEcuYegLO08ArXSyhjZPOqsM9oN0D8ayF2OBKMkRxHbaeIHVab+mbF4oBPPn21P3hurthVdesYHrrgtr1sC116Y+LjsbTjoJzr04zpMNjfypvpZDxhTz97334+yy8eT5AnTHoTvGxp9jcYfp4TA/njSF3+05m1AgxC9ralid1cb3L7KnBw7U1gYvvmg7u0RERERkMBWrRERk9CRHAYe7v7c3teNqJC8N5BLiCCpgQEdTK70s8rBoZIA8Qownl/5ULEM3vVTSjPHgFELZvIIC+OY34aKLUtciEXjpJbjiCvjJT+Cjjwav+3yw555w6eWG9zo7uXVNNcX+AJeVT2R2dhaROPQO80dqgJ4E+PBxXGEhF5RNYE0kwo/XVFEwPcr114B/SFJoUxMsWpS2L1tERERkl6FilYiIjB6fz7atDOyichw7Brhqla0kbCUHKCCDY5mKnwyS3VWdJHiDNVTRih/ftn4Fw8ojxJFMpL9Y5dKGYRFVxDZmaMloKi6G886Dww9PXauvhxtvtCcEDlVSYruy8idEeby2nobODr4ybjz/VlhIzxaM7BkDmcbPqSXFHF00lrcaNvDP9iYOOgT22GPwYyMRqKzcphqtiIiIyC5JxSoRERk9oRBMnWp/Tgwo4iRPBNxGGfiZSiEBgiQLR3EMG2hjPR34PAlZBz8uFeSTuXEE0V63uW8EUbaPigq45RbYZ58te3xWFhx3HHzta9AVNazqiVAQDHJ8XtGIjpI0QIEb4Pj8IiI4rOqOkJ8Pxx07+HGtrTYzS7lVIiIiIoOpWCUiIqNruDaSZGbVNuZWuTgUk8V8yrAx5w7g0EaEl6myl9+mK6QyQAgfcxnHmI3h7g4JDPU08i7r03xF2VJ+P8yZYwPXh47gDeU4MGUK/M//QMIY6rqjvNjRxuTsPOZmZhMbQf6/AYK4HJCTR2YozHNtTYSChgnDhL5v41teREREZJekvyKJiMjoGq6LyhiIRqGnZ5te2sGhiEyOYyrgw5YNHNqIsZAqWugm4MFHn8GQRYA5jCV5EmFyBFHFqu0rGIR58+C66+wU6qaMG2dzrCZWQKwHXAcCjkPI5yPL5xtxkdN1HHJ8LiGfi89xSCSgd5jDIR1vmv1EREREdmoqVomIyOhxXcjPh7Ky/tmn5HfrjY02t2obZRJgJsVAfytNL1BJM2304POkWGXzso5icl8uVn+R7GWqaGXrs7hk2xUUwJlnwlVXDb8eDsNhh8GXv8ygDioDGGNIbEU7ngHixtZhFUklIqPJhx8/gU2uO/oWUER2AvovlYiIjB7XhYwMG7Kehoyq4QTxMYUCZlCEPRXQAQwdtPMaaz25Jti8rP0YT4gwyVHAGFBNAx/S6Nl1ZcsYs+nGvd5e+PBDezKff0D3lQ/wOQ6Brex+8ju2Q8tP36SrN/n+IiIbGZMg0ttJV28XxqR+s2eAWKKXnp4IsfgI5ptFREaZilUiIjK6kiN/QznO5ue0tpCLQynZHMVkBva0tBDhOVbRQyztMevJqxQQZhZjYcAJgJ308g61ab6ijER3ty1E3Xjj8OvxOLzzDpxzDtR6L74AACAASURBVLzxJgRDDuNCAY7LK6Q20kVNb++IsqUcIEGCqkgP8ViU4/PHEI87tHcMftzmCmgiIiPl4NC05gMu/NqJHLjfofzknr8AWbDxU8+lo6aFR06/nEMOXsDP/u+F7bhbEZHNU7FKRERGl89nO6uGhvUkEtDZmZZLZBJgH0roLyM5dGP4gAaixD0aBTQUEWZPxtCfWwUd9PKOcqu2G2OgqgquvvrTH1tdDbfdBi1t4PM7ZOFQ1d7KrxvX4xvhW6YxEeWRDbV0R7rJ8floboGn/zH4MTk5cPDBaanRiogAEI/1UFdXR+26dfxr4bNUdkTY+C1f1MCq9URfWU9TQz0NLR2bfS0Rke1JxSoRERldGRkwdaodCUyeDOg4NsNq1arhTwscoUwCzKGUEgoAm42VADbQwmJqcT36+MshyEFUACGSuVXdwFLWs452T64pm1dXB3ffDR988OmP7e6Gp5+G666F/ICfz44pwh8K8+vatSxubye0BUUlB4g5cZ5tauYvDfVMyy9kQW4+y5fB++8Pfmw4DDNm6ERAEUkfYxzCWUXMOeAAnLYqPny/CggCDrRHCb+7gf0m78u+syowxptxfBGRdNBfj0REZMeRpqPR/LiMIYsisrBlKgcDdNBNNa1pHwNMCuKjgjyCBEiOAsYxNNBOE90eXVU2pbsbXn0VHnggdS0rC2bNSr2/rQ0efxye+D+XzxTkclZZOau7OrlpbTXNsSgh36b/8uR3wO8zLO/q4pZ1VRS4Dv9VXkFWa5hf/DK1cTAvDw49dJu/TBGRfiaB4/qYOHMOswoceha9Dcmw9Y4IoeVtzJw7nsJMl1hcxz+IyI5LxSoRERldxtiRv+E6qFw3bQWrfEIcxSQGjuS1EmUhq9Py+kMZ7CjgdAqZRyn94e7QSgfPsu0nHcqWM8aO9V19dWpEWnY2fOUr8Kc/wRFHpD53zRq4+GJ49k8B/t/4Ug4sHMNfams47r0lLGppIeSD8DC3rkSM+2tr+fx771Ld3sZJZeM5yjeGBx+Ep54afI3MTNh3X6io8O73QER2PwbAccgrrWD/vaYTfn01ThyIGahrwFcXxzm0FF80rpNKRWSHpmKViIiMrkAASkqgsNCO/iUZA11dth0mDfLI4GimECaT5Ol8EQxLqWEFGwjgTVBQJgEmkT/ovggJVtNCDI1cjJa6OrjjDli+fPD9rgvTp8OVV0J5OVx4IYwdm/r8tWvhe5fA20+FuH/WdE4fP5G325r5wvK3+dzyJdy2robnWlr4Z0sLzzQ3c//6dRy5fAnnf7wc1yS4dvpMbpw0kXfehJtvtiHuA5WUwJln2v87iIikj8EYgy8jl33n70fxuibcj9qhEwLvroe8PCJ75kCvTgIUkR2bf3tvQEREdjOua9tKsrKgqcne5zi2WFVXBzU1tpqwjYL4mEg+mWTQTTvgkMDQTCc1tDOTYSoUaZAskv2GJSRzq9pJ8BJVNNPNWLI8ua706+yE55+HX/0qda201HZNTZxoO66OOgquu86eBDjU2nXwk584PHlIFnfsMZ0FhQVcsWoV/2jcwD82JEPz+3oTfH6Cro/DCsdy27SpzHRyeOK3cN2NqSf+ZWbCYYdpBFBEvJFIGMBPxbT5zAlnsPq1Otzjyggsaya+x1Tirg9/7FNfRkRku1KxSkRERp8xqbNZYItWaUqbdoACwhxKOU+wlORHXhs9LGI1xzAlLdcZyAABXOYxjqmMYSUbgAAGwwaaeIEq/oO90n5d6ZdI2Jz+W29NbdLLyoLPfha+/GXb6ZRIQCgEJ54IixfDQw+lvta7S+CU0+Cy7/s47ehi/r2kkA87Izy5oZnOuP1uL+y4zMvNY/+CMIWBAK0NPn58O/zwR8PvccwYuwedAigi3jAkEgl8WQXkTZ2M++Zq3ANCBKoiJL5aTvLgERGRHZmKVSIiMvpCIRvWU1s7+H7HSdt38A4OhYQ5lmk8wQcM7HJ6hWrq6GAMmZ6M5mUTopxcVlK38b4IMVbT0rcL8cqGDfDgg/D224Pvdxx7COVVV9l6aCRi74vH7Rjg9dfbxw0tWPX0wMKF8PrrcNSRDud8J8D8AwL8YErOoMdFe6H6E/jTc/CzB2Dp0uH3FwrBPvvAvHlp+oJFRFLYFMVEXpiuz0zC99DfCS0M4+bnw775UKWRdBHZ8alYJSIioy8QsO0lQ0PW43FoaUnbZTLwM40iHAIY4oBLDEMtrTTSRQnZaS9WGQx5hDiCCl7gw757HVqJs4gqLuEzab2e9OvuhpdegvvvT10bNw4uv9yO//X0DM7xj8Xs2/G662w31cMPpz6/qwuefAr+/jSUlcHMmfaxSb29Nh+ruXnze5wwAS67jP/P3p3Hx1mW+x//3M8s2ZdJ2qRpkqbpDi2I7IssZRc4Hs9RERUU0OMCRwUUEA9aNjkICgKioIK4HY/IoqAc/cm+W7aWfemSpluaNm32zPo8vz/uTJrJpJS083Ta9PueV140c8/M/aTNi2m/ua7rpqZm275GEdldGey4YUM6jGIr719ecZjkB2vxYl2U/HoJ0X/bm0BBEKP5iSKyC1BYJSIiO166DXBkWBWLwfLlsM8+OdkmiEMj5XyQWl5iBVAAeHTTx1OsZE9qfKl0ChNgGtUUU0Q/LmBI4dFBDyvopGnEAHbZfun2vyuuyJ4RVVYGp5wCH/3o6N2nYHPSmhr42tfg2Wfhrbe2/LhVq+zHWFVXw1lnaVaViLx/Hg4QwLguDPRienugqAivwH4AGDzSrX1uKklPVxd9/TEIBHAjEUxtgMAbvcQPq6cIFy+VpLerk/BAPH9fmIjIViisEhGRHc8Y2w8VDNrAKl3mksM2QAAHw0SKOY5pvEQr6WHY3SR4hOV8mnkUEiSXB3h7QAEB9qaWUkropxMIkcJlLR28TYfCKh+sXw8//zm8+mrm/YGArYI67zwIhze3/43kurY6as894aGH4M477WmCGzbk5vrCYTjwwNEHuYuIjOQBeAFMzyaCC1/CaV9PYMlSiMcgGMQrKiI1YzpeZYTUnJm49Y1AioqaqXzxgosoaxr8oU9NGalvH0nn8gCxAyooJElZbTOnXvhtimbum8evUETkvSmsEhGRHa+gAJqbIRKxfVOh0Oa1HA1YTysmxNyMk/8MUTzeZSMDJCghlNOwCmxjRgWFHEwd99MBhLDzspI8zUqOZ3pO99vdRaPwzDNw003ZazU1cM45MGtWdvvfcOn70xVW3/gGHHEE/OQn8Oc/Zw9rH6spU2z7XySyfa8jIuOfh4FYisBbrxN6+GGcZS14JcW4UxrxqqogFMK0byDw5luYdesI1teTPOoIEgcdSEmkkY9/7DMAtNIFRQHcQ2fRf2ghEMXDpbBqMsefenR+v0gRka1QWCUiIvkxMjUwxlZZdXXZZKCoKCfbFBJkDhNpIMIqOoEgHh5ddPECa/gws9ja3I+x8yglxDQiMCwIGyDFu2zAw8NozHrOrFgBl16a3VVaUgIf/jCcfrqtmnq/kkn77Xj44XDAAbBwIfzqV3Ye1vLldn0sqqrsNRxxxNieJyK7I4Pp6Sf0j4cILlyIFwqRPOUkknvNxa2thWCBfZjrYro6Cbz4IqHn/knwj/dgli0j8eEP0x+pwhk68c8DYth5V/bwEZPjH9CIiPhBYZWIiOSH52X/q991oa3NDlnPUVgVwGEyZRxBM//Di9gJVYaNDPAQyzmO6UPjanOpjDAfookfU0wSA4SJEuNV1vIuG5lFdY533D21tdmKqjfeyLzfcWz73yWXbM5Bx8LzbGZqjA2ZDjvMFgGuWAEPPwwdHZl79fXBffdlz7IKhezJf5dcsm1fn4jsPjyAWIrQm68TeH4h7tQmEvOPJjV7NgYPQwoYHLzngBepJDl/Pu6c2YQefpjAK6/jRSpJnHAiOPqBiIjs2hRWiYhIfhQWQn29PUIt3QaYnlnlQyvg3tTwP0MVVIZ+XF5nPS52tlWuWwEdHGooIzJQQMfCVyh+to+BL82jNxJjNd02rPKStK9+lz/89gFmHPGvfPjQ2Tm9hvGuvx8ef3z00/tqa+E//xOmTcseuD4W6dAKoLLSnhq4336Zj+npgd//Hm6/Pfv5U6bA5ZfbmVUiIu/FeAazsZ3gI4/jlVcQ/5eTcOunYBj9ZAhDCgLgNkwhfspHKOj+HcHnnsdrbiY1Z+4OvnoRkdzK7b8GRERE3g9jbEBVXZ1d8pLjIesAJYTZj8lUUg6kAEhiWMNGXqGNQI7fDu2h4h5NVHJYfDLOyy0U//ptgj0unQzwd5YMPjBF57oV/PHXv+HZV1fk9BrGO9e1LXlXX509T6qkBE44AT772S2f/rctEgm7V/ojGrUfzz9vTyHs7898fHU1nH02HHxw7q5BRMYrg+nuI/TIY9DbQ/LIwweDqpF9xw4j/wlnSEBFGcnjjwEnQPCRx3A6N+6wKxcR8YPCKhERyY/08Wsjw6pYDNrbc7pVmAD1lFNOMXY+lRmcW9XPSrp9mx9VSSHHmOlQVIRbEcYLGHpweZKVdDAAGJxgiPKKCooLQlt9Pdls/Xq49VZ45ZXsteZmWLDA/trN9TiyYYyBdetsG+Lq1Zlr4bCtwPrqV/3bX0TGEc+DRAKzqQtvwgRSe83NmC3lAZ4XgGQcYlFsg8zmf8p5QUOqth532lTYuAnT37vDvwQRkVxSWCUiIvkRDsPkybYd0HU3D1wfGMge/JMDFRQyn0YY1k7RRZxHaRnT6wQIUECIwvf4KCBEkBAhAtRTSiFh22ZoHFLABvrYwGAZzpaOp5Mteq/2v8mT7al7U6ZsX/vf1hhjq6ruvdeeFjhSQwNcdhmUlfl3DSIyjiQTOG2rMB0bcKc1Q0kZ6UpgADOQIPT0UxTeeAsFN/+E4N8eHCwrHRZYFRbgTpuKSSQIvLN0x38NIiI5pJlVIiKSH6GQHSwUDmemCsZAMPdvTxUUcCwz+R2vkBysrurH5XlW0kInjVSQHPYPg+EMECIEpOigkxaWs5xl2J91bw6bPDyCBJjGdJpooooIe1HNPGp52bTgBQNAgC56eYRWZjvzMKEQjgKr9y3d/nfddXao+XClpfb0v49/fOwn9r1fnme/RR0HFi+G730v+zETJsAXvgCHHOLPNYjIOJVMgevhTpyI5wQ2twCmwFmzitBDj0AshnEczLML8aqqSR54EAbXvhOFQrg1NRAMjO0IVBGRnZDCKhERyQ/Pg1Qqu0/L83zp3SokSDMRwhSQJAqDQ9U30MM6eplKZdZkEIAgATySvM1bvMjzrGY1nXS+514v8yKVRGimmSYznRlOOa+8s5byU36PF7JHh9/GvfzWCxId6KOrJ8jRhXpLfj82bIA77oAXXsi833Fg1iy4+GKbg0aj/hStpbPUNWvg+9/PPBUQoKDAzqj60pdyv7eIjHPG2I/k5h+ceIDpHyCw+FX7P7aiIvse6TiYzq7M53sepJL2SToNUER2cfqbsYiI5E/6X/7pnwAbY/+y3dICvb22VCZHHAy1lHAQdTzK20ARYOhmgMdZwUE0ZNRJBQng4LGeDl7keRbyT2JECRGmiKL33MvDo5suXuYl3uAViryVlJSWM3BQPV6pQxCPKOWc7M2hY/1K/vncO7ip3J5GOB5Fo/D003D99dlrkybBeefB9Om2UM+vYjVjbEXX3XfDgw9mrzc0wAUXQFWVP/uLyDjlYUMo14XAiEktKRfT38/wSl4M2YeRpMs+GfxhkIjILkxhlYiI5IfjQGUlNDXZKdnp1j/Ps+FVjqurDIZqijieGTzKEtItfN2keJwV/Af7Uk4BycF2ig46eIkXeIXFdNJJmDBFFL/vvYKEAIPrxRnweok0VtN09dEsKiugnxRN1HAmn8F5802+8R9fJZbQPyzei+fBihXwne9kr5WWwkknwSc+kdvT/0ZjDLz+uq2qGqmqCk4/HebP9/caRGQcCgbwqibgVVdhekf0OA+FUFvhuphoDMKFuI2N/lyniMgOogHrIiKSH+l2h9H+Au44vpTGFBFiNhMY/rOaONDCJrqIEsAhgMMAfTzIX3mYh+illyKKCGB/gu3h4eISJ07/KLc4cVw2B232pEGHQNLl4O4oZzFAA/100MZL7lK8eD/JlOfTeYTjR3s73HKLDYqGCwRg9mxbzRQO+1tM4Diwdi1cdZU9jXC4cBgOPBC++U3/9heRccwJ4JWWQbiAwGuv43RuZCx1BR4G+voJvLwYz03hTaj271pFRHYAVVaJiEj+eN7ok7Bd15fUIUyA6VQxmwm8TRsQBlx66OFZVtFMFQP08RAPs5R3KKNsMGwavCxcEiQIE6aRRhposF/G4PHiKVKsYQ1ttBElSgEFQ892sbVcswEw/J4UD9HK/hQrqNqKaBSefRZuuy17raYGzjnHBlZ+zalKD1Xv74c//AH+3//Lfkxjo636ymHnqojsZrxwCHfiBAIvvUzghZdIHHs0vM93CBN3CbQsxVmyFHdqE17Re7eri4js7BRWiYhI/oTDUF8Pb765ORHwPNi0CZYuhf32y+l2DoYaSjiGZt5m7dD9XcR5hBWcyBQe5xFe5HkKKcwIquLYuVp7szcf4kNMYhLBUd5GEyRYyUqe4zne5V2SXhI3niLRlyTp2kquOgwfwmUxrbS6Edy+OHG/+9d2Ya2tNggaebhVSQkcfzyceaZd82tOVbr4b/FiuOmm7A7VdPvfoYf6s7+I7A48KCshedSRBFauJPDMM7jNTaSmz9rK8wweQZyudoL/eASvIEzymPm4ZZVA11aeKyKy81JYJSIi+RMO28nYodDm+9KnAY5WcZUDxYSYRw2QHmhuiOLxOu28xKss4oXBiiibfHiDt8lM5mAOZt/EvsRWx1j3xjraHmij550eUn0pSmaWENk3woRDJjBp4iQ+Pv3jvMVbPBD8E05jIXUH11BYaHCBIIb98fin6WRt2UQOPOQQptWrZWM0bW1w443w2muZ9xsDM2faEMvz7IdfjIF16+CGG+wpgMOFQvDBD8JFF/m3v4jsLly8ikoSx84n/Ps/Ev7T/SSOmk9q5ozBuY4j/kcXCOAl4gSXLiH0j4cwHRtJnnAcqanNOKOebysisutQWCUiIvmTbgMcPIY7w/sZJrsNigmxD3VMIkIbPUCAFIZVrONvtBMhRGpwpKOHR5IkESJ8lI9S01XDst8u49UrXqW7vRsHh4JgAQWVBWz45wZafttCihTlDeXs/f29mfvJuUwomcBDH21myUffJUCA5OA/Nhw8mk2clTMmsOC2G335Wnd1/f3w+OPwq19lr9XV2dP/mpvt6X9+SBf7DQzAXXfB/fdnP6axEa68Eorf3+x9EZH3FnJITZtF/Oj5hJ58ktBddxHYey9MX9/mg0gAMDhtbRT87W8E/7kQL5UkddihJA/Yf+hHLSIiuzKFVSIikl+BgP1w3c1D18G3yqogDtUUU00pbXQBQYJ4TCRGBR7usEHqSZJUUMHJ8ZMpfa2Uhd9fyPK7llNcUczss2Yz6bhJRA6NECwPkuhMEFsdo+VnLbT+oZWnv/w0Mx6awdzz5/LhvU7kN6xnPesppBCwU0gmkqSEjSTwCGlyVQbXheXL4Qc/gL4RB2OVlMBxx8FnPuP/QHVj7GGVP/pR9np1NXz+83DIIf5dg4jsbjy8kjDJo47CbW4m9PDDBJ5/wSbiBQX2IY6DcV0CLy/Ci8Vwp08jcfTRpObOxeABOl1WRHZ9CqtERCR/gkGorbVlMi0t9i/ixtgEYulS2H//zBbBHKmgkGNp5nVaASjFcCCGMBBj84l/ESKczMk0rmnkhW+9wMonVlJ/dD17XbMXEw6YMPQ4gMJIIeXN5VQfUM2Uz0/h1YtfZcnvlhBrj3HgfQdybOhYHuABokQJEsRgCADtrGYNPTRRnvOvc1e2YQPcfju88ELm/cbYaqrvfMeGSX4NVYfNp//98IewenXmWkEBHHywHe4uIpJLBiAI3vTpxCdPJvDyIoIvv4yzdq19T/Q8PGNw580jueeeeM1TcKsmYNT6JyLjiD89FiIiIu9HupJqZNqwpVMCc6SCAo5mGkUU45CiCqgB0iPOPTwCBNiLvZi2aRotv29h9ZOrmfYv0zjir0dQfUA1CRIkSeIO3lKk7OcFLjVH1nDYHw+j4ZQGVj23imXXLWM609mf/UkwfJC6RzED9LDJt691VzQwAE8/DT/9afZaXR1861ub2//8CqrS7X/33Td6+19Dg51TVVnpz/4iIpDEKwqTnDcXb2L15vdFzwMDbmMDyf32w1NQJSLjkMIqERHJL2NsG+DI+xxni3OrPM8jlUzQ19c34qOXgYH+rW4ZJkAj5ZRSRBiXyUAp4GKDKoAIEfaJ7kPHsx0s+fESKmdUMufSOTiFDsmt/KMgRYrwpDCzvz6bkpISlty5hN5He5nLXKqpHgysDB4e/fSxZrDCSza3/11+ua2aGq60FE4+Gf7938HPwxPT336vvgpXXZW9Xl0Nn/scHHGEf9cgImJ5GA9IpmBku3gqNdj2p6BKRMYfhVUiIpJfhYX2WLfh0pVV8fioT0nFenn5H7/n+P32Zs4ec5gzZw6zZ89m9uw57Dl3L076989w10MvjPpcsH/dr6aID9FAmCR1MNjMt7mqai5zqRyoZMPiDfTH+pn6yalEPhDZalA19CWEPCrnVdL8pWb6OvpY/+R6IkT4AB8YOmHQtgJ69LN+RMXV7ivd/rd4ceb9gQDMmWOHqhcU+D+rau1auPpq6OjIXAuHbXfquef6t7+IiIjI7k4zq0REJL8cxyYAacbYsGrdOlixwiYUI3ieS39vF72xMKed8w0+OGWwF8tz6Wlfw/13/Y5vfPkcAr/6HR87bGbW8w2GSoo4lhk8zhtMGIyOgKEQqYoqEt0JNj29ieLKYibMnzDmLy1QGqD6wGoKTSFdL3YR6A1QU1qDGdzLYHBxaaOdBAlC5H4+164kGoVnnx19mHlNDXz5y/bbwe/2v/5+uPtu+L//y16fMgUuvhiqqvzZX0REREQUVomISL6lq6hcN3tttPsGGSdAxYQGTvrEGcyfXjbs9ZIcd8IhfOX0L/CHu//ERw67cNQIqJAg06mihBAhUniDbXkGQzHFlFJKqj9F31t9lFWXUbF/BakxnrDkhT3Km8spm1lG79Je3KiLW5r9NQUIDAVYu7PWVrj00uw/9pISOP54OOMMf9v/wIZVr79uTyEcKRKBT30K5s/39xpEREREdndqAxQRkfwKBu0QoLKy7N6ukbOsRhqcXZXBOASCZRQXBYkN9LOluCuIw0wqOIk6ikgMa+4zVFFJAw0Yx+CEHdu053pj/9qw87VwbRWV3nW3bN06+PGP4bXXMu93HJg9G779bfut4nf7X1ubbf9ra8tcC4Vgv/3sdYiIiIiIv1RZJSIi+RUMwoQJUF5uE4t0QOV59ji295CI9bH0rdeodycOPidFx9q3+Z9bf8qzKz0WXHwSBVt4roOhikIOYzKvs3zYikcfHglcezx4YttCquE8Y2dUsf0vNS4NDMCTT9pZVSPV1sI558CMGf61/3ne5va///3f0dv/Ghvt0PfCwtzvLyIiIiKZFFaJiMjOYWTJTDwOS5bAPvuM8mBDIOCwae2bXHjWRwni4bouyZRLSVk5U2fO46Jrr+XMjxzwnlsaUoToxBlMkQz2TKVlQA9QEXYoaiwi2ZvEBLYtJTEYjDEUTizEhLf++N2N50FLC3zvezYsGq64GI47Ds46y9/2v/Shk4sWwU9+Yq9puKoqe/rfoYf6dw0iIiIispkaEkREZOcwWsvfyNRg8wKplEtk0hz+++d389ijj/LAH3/D5045mIrqaVx09W1ccNopFG1lSw+PJB7usLAKPJaxkWdZRSgSouq4Krrau+h4tIMAW2lLHMFEDRvf2EhPaw/V86txygIkSarAapj2drj1VhsUjdTcDN/9rv31e4wv227G2KK+m26yc7OGS7f/nXeef/uLiIiISCaFVSIikn9FRbbPK7l5chTGbC552YJQYSmz9/oge39gHw4/7hQu/e/rObIxyXcu/DrPLd34ns91cemllw46CA4VGhsGMLzJAI/RgnEMwcIgsfYYK+5YQcob28CkeHucFXeuIJqIEi4NsYEB/sBbpHAzBqq7uLZNcDeTbv+7447stcmT4aKLbGAVi/l3DcbYUwjvvRf+9Kfs9cZGuOwy26UqIiIiIjuGwioREck/Y2wJy/DPPc+mCO+RVHhuingsOviZw6SGGZz/7QspWvdPvnvl9XS+R+tYOqzayMZhYRXEMKzB5WHeZGl5J1M+MoW6I+tofayVZTcty3jse/G6PFrvbWXVg6toOLCeus9P4UlaeYqlFI84n7CEEpzd7C3ZdWH5crj2WujtzVxLn/536qn+DlQ3xhb0vfIK/Pd/Z69XV8PZZ6v9T0RERGRH273+ZiwiIjsvz8M24hkwDngG1qyF9vXv+yVMsIimuYfx9S+dyqKH/4fb73vyvR+PwcHJqGoyGELASjq5xjyF1xBk7vl7ECbM2ze+zeo/rSZAYIuhVYAA9MCq+1bxzvXvUNJYwpz/mkN7RZQ7eZHJxAkPvv16eAQI0EQThexek7s7OuDOO+H55zPvdxyYORO+9S0Ih/2fVbV2LVx3Hawf8W0WDsOBB8KXvuTf/iIiIiIyOoVVIiKSf4WFMGdPvPII0WSCVcR5hyjdpEiM1nrneSTiA3T2dJFIZbbPlVRO4JiPn8XxMwu55TuX8MTb7aNuGSXKEpYQI4aDg8Ee1tcKdOHQh8c9LOKrBQ9SsH85887dg94VvTx51pO8/J8v0/laJyQgNOzmxB02vbyJF7/6Is+e9Szx/jizzppF/JBCruRRnuMdSigcagD0Bm9JkqNe43gVjcIzz8APf5i9VlsLX/+6Daz8Ov0P7OsODMA998ADD2SvNzTAN75hD6oUERERkR1LpwGKiEje9cVjkRcIhAAAIABJREFUPLv6LZ6Jt/KGM0ALSTzjUdTfRtODP+cDDTNpmjiZjx5wDAHHIRAuYs4Bx3PZlc3s01iR+WImwKTGPfjezb/koadfpTAVHXVPD48YMVwyJ3cnYfAehz5S3M1LOFWGmy78MMceUMkLF7/MG7e8wZLblzBx74lE9o/YyiwXBtYMsPovq4kH4kw6aBJ7X7M3xUdVcg+v8XsWM5EQEwf38PAwGEoooYGG3P+m7sRaW+3g9JFD00tL4cQTbfufnxVVYMOq118fvf0vEoFPfxqOOcbfaxARERGR0SmsEhGRvPE8j7bODdz60F088NIT9OEyvbCcwyimjiAbSLJuw0Z+0/JX4vEYz769iC8c8zHm1E9j8oy9+NiMvUZ93UCokKa5B/H5uQeNvi8effSxhjUZ7XwDeCwDGKp9CtCLy128hCnyuOXD/8JR+xzF2z94m/VPrKdjYQdrFq4ZfIahtKKU2qNrqT4gwrxL5rG2rI8L+Tu/5SWSpCgkRCUwvFYsTJiJTNze38pdRns7/PSndk7UcI4Ds2bBBRfYQrto1L+qKseBtja46qrs9r9QCA44wA53FxEREZH8UFglIiJ5EUvEeX7pa1z75zt4t30lR8zch1PdUvZa20lNsBA8F4xDbN/9eW3edH7/+P38bdGTvLryXT5/9Mc49ZATtnnvdOtdF10Zp/IlgI242IbA9FukQy8u/8tL9BLjoroj2PeH++DFXBIt/cT6EvYVgobCyUUEJxQQJckTtHI9T/BnXsdGUiGqsf336YIig6GcckIjBq6PV9Eo/POfNqwaqaYGvvxl2HNP/9r/PM++bn8//OEP8Pe/Zz+moQEuvRTKynK/v4jITsfzcFMJookUw/+36wQChMNhfPqZgYjIVimsEhGRHS5dUfXLR+9jQ88mvnnK5/jEPkdR/sxCaH0Mgi7ggudRYGC/KbOY9fGvsP+0Pfn14/fzm8fvZ+8pM5hTP33b9scjQWIoqEoPWK+ngu+wF1exiHVsBAoGn+HQB/yBV/g/lnAis9m/oI5jZk9nIiVDz++jm2do5UHe5q+8Q4wYUAyDrzRl8L8Dg3s6ONRRRwkl2/YbuYtpbbVB0MgDHouL4bjj4POfh3jcv/2dwUmdixfDjTdmtyFGInD66XD44f5dg4jIzmT96hXc8O2v8atHXiQYCOK5KTwTZN+PnMptP76WSfm+QBHZbSmsEhGRHa6rv5cHXnyMF5e9wemHn8Ln5/87dHdDtC/7wYEAAGVFJXxk//mEgyG+d9/P+MUj9/G9075OQWjsVUkxYixlKd10U0TR4NwqQz31fIQjaaCe/+A+NtDL8MAKwnQT5y5e5C7AUESIwNDr2hAsim30K4BhJ/x52Mqt4ePg06HZ7mDdOrj55uz2P2Ngxgw7w8rzBg+F9Ikx9jpuuAHWrMlcCwZhn33g4ov9219EZKfixenqWcLTr73B3CM+ymdPOgRvsAR1QtN0yvN9fSKyW1NYJSIiO1Q8EWdxy1v88dm/s//0uZx99L/ZBWOye7+MsSFWPA7hMMUFRRy+x36c1HIE/3jlGf743P9x+uEf2abrMCOaGzw8XFKEcTiBGdzGv/IV7qedTmzwFMDOsgoARUPPiI8Y0A4hIJzxyuBRQJJGQiSH7VtEEdPZtuqwXcnAADz5JNx5Z/bapEn29L9p07IrrnIl3f43MAB33QX335/9mClT7Ayrkt2jyE1EhGQ0xvq3VtCXrOCcr3ybTx5en+9LEhEZ4uT7AkREZPeScFOs6+4gmohzxB77U1VaaRcKC22JTUGB7c9yHJsyrF4NPT1Dz68sLueEDxxGOBhidUc77shervdzDSRYz3qcYW+DQYLUUDP4a/gIc3iMz/NVDqcQB+gnsy7KYN9GR34MD8FcIE4JhoNppIECksPCLQeHMsb3cCTXhZYW+MEPoLc3c624GI4+Gs44A1Kp0Z+fC+kMdNEi2/43UnU1nHUWHHqof9cgIrKziSeitG5oJVlYTe/axdx8w/XcdsfveGt5e74vTURElVUiIrJj9Qz0sXDJq0woi7Bv8x6bFxwHiorsf113cz+Y42RUXAUDARqqa5lZ18RLLW/R1tnB5KqxnaYXJ04bbUNhlYdHgACTmISDg4uLh8seTORqjmc+07iZZ3mU5UASG0gZbBXVyPGz3uBjUhRTwDHsybkcyEwc7uaPJHEJDD4nTJjAsDbC8aijA+64ww5WH2nqVFiwwHZ6+nn6nzGbr2PVqsy1cBgOPBDOPdefvUVEdlbRvj7eWbiQNxY/xVX/tZwCXDo3rKe4fh4Lrv8xnzt+33xfoojsxhRWiYjIDuV5HolEkoriUhonTBq+kD3xehTGGEoKipgcqeGVlrdxvbFVVrm4DDAwNGDdw8NgKBy8ecOqpxIkKcDwb+zJcczgKVp4mKW8xBr68VhEG1GibC5U9ijAYS8aOJrpnMwsDqGBBHGe4Wk20jU0I8tgqBu8jVfRKDzzDNxyS/ba5Mlw0UUwfbr/p/+lUvDYY3DvvdmPaWiwc6oikdzvLyKy8/LwTIiiiXP4xJlzOfPcr3DUnHreeeFxLv3WxVy9YAH7zPsdH5isyVUikh8Kq0REZIczjsH1XBKp5DY93/U8kqkkxnEwY0w54sRZxSo2snEonDIYqqmmgYaMsCotQYIiHE5kFicyC4AoCZawgV7ibK6u8iggwEyqKaUIb2iulUeS7D638VxV5XmwfDlceaWdFTVcaSmceCJ84hOQ3LZvgffFGFuYt2QJXHcd9I2Y319VBZ/7HBx5pH/XICKyczJUT6rnm1ffkHHv7H0P5pvfPJuzLriZh559hw98bP88XZ+I7O4UVomIyA7leR7JZAqDIeBsW1hjMDhOgGQqOeaZVQZDiFDGgHUPj9TgLbiFt0bbGJgYfA37Bjpv1Koob/CR6cca+uhjKUszXjtMmBnMGNO170o2bIBf/hJefDHz/kAAZs2C88+3Y8r8bv/btAluvRUWL85cC4fhoIPU/iciMlwgFKayrpHK4kI2born+3JEZDemAesiIrJDlRQWsVfTTJJuit5o/za9RjKVpD/Wz5z6ZqrLKsb03BgxVrBi6PP0vKp66gkTxs063S+bN/iRGPWWzBiiDnaQepLksOfb25aCsV1dLAbPPQfXX5+9NnEifOUrsOee/rb/gW3/e+QRG5qNVFsLX/6yHa4uIrLbcROsa1nENZdewG33PzF0dzIWZf27b9EVTTB9xvg+AEREdm4Kq0REZIcKB8PUV02kdcNa/r7o6TE/P5aI8+bqZSxc+jqTIxMpLiga0/OTJOmgY+jzdBtghIgvbXkuLt10EyOWMSOrmGJKKc35fjuDFSvg0kuzT/grLobjjoPPfhYSCf/2N8ZWcC1fbtv/RrYhlpXBSSfZVkQRkd2ScUimPN547m9cffF/cf/id4nFBnjhuae44tpfUz1nPifuOyffVykiuzGFVSIiskMFHYeJ5dVUl1Xw/xY/zbL2VVt/0iDP89jQvYl7Fz6EYwwzJjWNaW/boOdmtAAaDA5Oxn255OKylrVsYlNGJVWECA00+LJnPrW3w09/Cq+8knm/49j2v29/G4LB7CArlxzHtv/9/OewaFHmWiAAc+bAhRfaVkARkd2SCTCpcQ6XXH4ts0tXc+oRB7Hn3Hmc/IkzWVc8m8uvvJjJ5aF8X6WI7MbGZ/+BiIjstELBEHMbZ3D64f/Cdff/ktsfuYfvnfb1zeUw6b4wYzafEDjY19UT7ePBRU/w9Fsvc+ohJ/CR/eePae8kSdppZy1rCRMeGqZeSSXNNOf060xzcYkTxxn28yGDoYACXNxxNWR9YACeftqGRCPV1Nj2v1mz/Gv/A/u6rguPPw433ZS9XlsLX/+6PYVQRGR3FggXscehJ3LXgw/xf3/9B6s7+qiqa2b+sSfSXDO2qmURkVxTWCUiIjtcaWExx+x1MC8tf5MHXngM4zicffi/Mm11G8TiEAqB69nkoaERr6qKju5N/OLRe7j/+UfZo2Eanz/637dpbxeXFKms8Miv+VFRoixhyVAw5uISIsQ0phFi/PzU2vNs+9/3vpd96l5xMRxzDHzhC/62/4HNO5csgcsvz14rLYWTT4ZTT/X3GkREdhkmSOXEaXzqzC/l+0pERDIorBIRkbyoLq3g7KP+jYFYlHv/+RCLl77BRwIRDgq4zDFB8FwwDn3hAI8uepK7Hr+fxSve4sAZe/OFoz9GbeWEMe8ZJcpSlpIkOVTZ5OAwhSmUUpoxBD1X0m2G6bAKNgdm48n69fCzn2Wf/gfQ1AQLFthfj/HwxjExBjo64Oab4Y03MtccB2bPtu1/ofGTEYqIiIiMSwqrREQkL4KBIHs2TufqT5/HfQsf4ldPPsDVnW8xobiMWoJDUxWjL7Sw6pGNVBSXcO4Jn+a0wz7MhLLINu3p4tJPf9aJf4UUEiDgS1jVRReddBIgMDRcvYQSaqnN+V75MjAATz0Fv/hF9lpdnQ2Ipk+37X9+Sbf/PfHE6Kf/TZoEX/0qzJzp3zWIiIiISG4orBIRkbyqKC7l0x86mYMbZ7Poob+weOU7rAxB0PMwxmHatD3Yd68DqK2oZv/p87Z5Hw+PFKmhU/nSAgQopDAXX8qoe24avIUIDVVXlVFGHXW+7Lmjua5t/7vuOujpyVwrKbGn/512mr8D1cFWTi1fDldeCdFo9nUcfzx87nP+XoOIiIiI5IbCKhERybtwMMSc2kbm1O3Jacs3QqjItgFiYNLesO+R272Hi0sXXaxkZUZwVEIJ05i23a+/JQ7OUFXV8GsZL22AHR1w553w3HOZ9zsOzJgBl1wCBQU2QPJzqPrGjXag+muvZa/NmGFDLBERERHZNThbf4iIiMgO4LoQGxj8xLMfBshRwGEwBAhkDFZPV1uNbAvMlfRw9ThxDAYPDweHJpooptiXPXekaNSe/vfDH2av1dbatjs/T/8bPCSSVAoeeQR++9vsx0yeDBddBA0Nud9fRERERPyhsEpERPLPdW0PWctyCA0r+i0utmlHDsSJs5rVRIkOBVYODjXUUEmlL4GVh0eceEZVlYdHkCABAjnfb0drb7dVVckRo75KSuCEE2z7n5+n/xljK7iWLYMbboDe3uzrOP54+OQn/bsGEREREck9hVUiIrJz8Lzs1MMYCOamYz1Jkg46hmZWpQOkcsopoSTnYZXB0E0361hHkGBG22ETTTndKx86O+Huu+H++zPvT7f/nX8+FBX5O6vKGHsdt98OL7yQvTZzJnz3uxDY9XNBERERkd2KwioREdl5jNYr5nnZ942Rh0eSJN10Z1Q0BQlSSeV2v/6WRInSTXdG62GQIBG27TTDnUUiAa+/Dj/6UfYfz8SJ8OUvw7x5/rf/eZ49/e8nP8l+zOTJcPHFMHVq7vcXEREREX8prBIRkd1ClCgrWZkRVoUJ00ijL/ulAzIzYuhWcBycbdLWZtvuVq7MvL+42LbdffGLEI/7t3+64G7pUrjiiuxWw7IyOOUU+NjH/LsGEREREfGPwioREdk5+HVU3CAHJysocnFJktzCM7ZPjBhLWUo//UOnARoMDTQwkYm+7LkjdHfDn/8M99yTvVZTA5/7nP11Dgritshx7Ol/t92WffpfIACzZ9s2xFDIv2sQEREREf8orBIRkZ2Dj+lGnDittNJNd8b8qIlMZBKTfDsN0MXNGK4ONjQbWW21q0ilbPvfggXZa1VVcNZZMH++bf/zizH2Op54Am69NXu9pgbOPdcGViIiIiKya1JYJSIi+ReL2SPdenpsaYzn2VSivh4mTdrul3dx6aNvaLg62AHohRRSQklWoLS9DIYeeljBioxqrgIKmMGMnO61I61eDddcY6uahguH4YAD4Etf8negOtiqqlWr4PLLt3wKYbq6S0RERER2TQqrREQk/1wXBgZs0mHM5iqrcDgnvVweHnHiQ0FVOpwKE855UDV8zxixjM8BCin0ZT+/dXfbk/9Gnv4H0NAAF1xgh6uPnB+VS8bYoOxHP7IVXsM5jq2mWrDA945SEREREfGZwioREck/Y2zaMFKOWgMHGGAJSzJO5QsRYhrTMtoCc8XDo5/+oQHr6XlVRRTtkmFVKgVvvw1XXZW9FonAaafBscf6f/qf68Jjj8GvfpX9mEmT4Otf1+l/IiIiIuOBwioRERnXvMHbaHOphp8MmEsJEqxgBZ10DrUBGgy11FJPvS97+mnVKnvq3rp1mfeHQrDvvnDRRf62/6WzzGXL4Nprob8/c72kBI47Dj77Wf+uQURERER2HIVVIiKycxitsioHCUiCBGtYQzvtGVVU1VQzhSm+DFc3GEKEMgape3gkSfo2zN0vnZ325L8HH8xeq6+H//ovKCvLnh+VS8bY67jtNnj55ez1piYbpomIiIjI+KCwSkRE8s91bbnM8B4yY2zJTA6kSA215KU5OIQJ5+T1hzMYYsRYxaqMGVkBAjTQsEudBJhIwKuvwo032j+i4SIROOMMOPJIiMf92X9k+98vf5n9mPp6uPRSmDLFn2sQERERkR1PYZWIiORfNApLl9qTANPCYZix/SfnpUjRRVfGfQZDGWU4OL4MWE+RYhObMsIqgyFCZJcKq9ra7DDz1tbM+4NB+MAH4PzzbaCUo9FiWYyx3xLLlsF110FfX+Z6aSmcdBJ8/OP+7C8iIiIi+aGwSkREdg6jTebOQQoSJcpyluPiDg07DxCgkUaKKPJluHoXXfTTPxSGGQwllFBJZU738lNXF/zpT3DvvdlrjY1w+eVQUWGHqvsl3f53++3w4ouZa+nT/y6+OCcHRoqIiIjITkRhlYiIjGvp+VFp6WHrCRK+7Ofisp71bGJTxgD3CiqYzGRf9sy1ZBJeew2uuSZ7raoKzjwTPvQh/07/A/u6ngdPPGHbEEeaNAm+9jWYPt2f/UVEREQkfxRWiYjIuJVuAWyjbWi4usFQSilT8GfIkcEQJIgz4i02NXjbFaxZAz/4gf3vcOEwHHggfPGL2TOsci0QgBUrbAXXyAK70lI48UT41Kf8vQYRERERyQ+FVSIisnMYXqKTHoSUgzbAOHF66MHBwQzeggQpp3y7X3s0UaIsY1lW22ETTb4MdM+17m544AHbAjhSfb2dU1VT499QdbDfChs3wi232Aqv4RwHZs2Ciy5S+5+IiIjIeKWwSkRE8svzIJWyH2npydrB4Ha9dIIE7bRnBEcAVVRRRBEuuS8PSpGij76h1/YGb8UUZ7QF7oxSKXj7bbjssuy1SAQ+/Wk49lj/2/9cF556ys6qGqm2Fs49186rEhEREZHxSWGViIjkVzwOLS2wYYMtlUlXU9XWwtSp2/fSxFnNahIkhsIqg2EiEymhJOdhlcGQJEmCxFAbYLqSq5DCnO7lh1Wr4Ior7B/FcKEQ7LcfnHdeZqboB8eBlSvhyithYCBzrbgYjjsOzj7b32sQERERkfxSWCUiIvmVrqwaPgTJGPvhbN/b1Mjh6ml+zo7qoIO1rCVEaKiSq4wyprNzTwLv6oL77oO//jV7raHBtt1VVdnh635Jt//ddBMsXpy9Nn26DdNEREREZHxTWCUiIvmXDqdG2o6ZVS4uPfTQQgtBNrcTFlHEDGZs8+u+Fw+PJMmhkApsYBYggMGnvrkcSCbh1Vfh2muzf8sjETjtNDjmGNv+54f0nq4Ljz0Gv/lN9mPq6mxg1tTkzzWIiIiIyM5DYZWIiIxL6XAoSjQrKCqgwJc9o0RZwhKiRHFwhtoOm2iiggpf9syFNWvguutg7drM+4NB2HtvGxL52f6XLqJbtgyuvx56ejLXS0ps+59O/xMRERHZPSisEhGR/DJm9EHq25mOxImzkpUMMECAwFBwVEMNVVT51gro4mZUVqV/7eykb7ldXXDPPfCXv2SvNTbCggVQXu5/+19XF/zyl/D889lr06fDd79rZ+6LiIiIyPi3c/7NWUREdh/JpB1UlOZ5NqGIRLZrZlWSJJ10EiOWcRJgKaWUUZYRKOWCwRAjRjfdGcFUkCARIjndK1cSCXjtNfjRjzJHhoGdT3XGGXDkkXYGvh/S7X+eZ0//u+WW7Mek2/+mTfPnGkRERERk56OwSkRE8isWg+XLN3/uebaEprFxu0tp0tVUaQaDg+NbVVUffaxhDQE2X3cBBTSxcw5aamuDG2+E1tbM+8Nhe/rf175m/zhGBlm5ki6qW77cDk4fOROrtBROOgk+8Ql/9hcRERGRnZPCKhERyb+RoVQOEpIBBljCkozh6mHCzGBGRpiUKy4uUaJDAVm6citM2Jf9tld3NzzwAPzxj9lrkyfDJZfY4rZYbPTZ97ngOLBpE/z859mn/wUCMHs2XHCBDc9EREREZPehsEpERMYtl82Bl4eHi+vbqXwJEixnOT30ZMzImsxk6qjzZc9tlUrBG2/YeVQjVVXBWWfZ9j8/gypjbB65pfa/mhr4yldgjz382V9EREREdl4Kq0REZNxJkaKLLvrpH6pyMhhKKaWCipzPqwLbYji8igtsQOZXy+H2WL0arrkGNmzIvD8chgMOgC9+0d/T/8BWVa1cCZddZmdnDVdcbE//O+ssf69BRERERHZOCqtERCS/jMkepO5525WWJEjQTjuddGYESBVUUEutb8PV22jLGK4eIsRkJud0r+3V3Q333w9//nP2WkODbburqckOkHLJGNv+d/PN8OqrmWuOY9v/FizYrvn6IiIiIrIL018DRUQkfzzPHjUXjW5OJoyxJT6lpdv8si4uAwxkBEcODkUU4Q3eci1OnHbah/b08AgQoJbanO+1rVIpeOcduOqq7LVIBD75STj2WP/a/9Kn/7kuPPEE3Hln9mNqa+GrX9XpfyIiIiK7M4VVIiKSP8kktLfDunX2WLh0mlFZCc3N2/yyUaIsYcnQ5+ngqJlmCijwJawCMgapp2dj7UxtgKtX21P31q3LvD8Ugn33hYsu8rf9L11E19IC114Lvb2Z68XFcMwxav8TERER2d0prBIRkfwyZvQyHm/bA6X0/Kh0KJUerp7An962JElWsIIOOob2NRhqqGEqU33Zc6w6O+Huu+Gvf81eq6+Hb38bysttfugXY6Cry57+98IL2etNTXDllf7tLyIiIiK7BoVVIiIyrqRI0UknG9iQERyVUebr/Kjk4C1dUeXh4eAQIuTbnu9XIgGvvQY33mhb8IaLROAzn4GjjrIdmX5I546eZ9v/br89+zGTJ9vAbOrOke2JiIiISB4prBIRkXHFxaWHHrrpzhiuXkQR1VT7smeMGK20Dn2ebjucwpSM1sB8aWuzQVVra+b9wSDstZcdqu5521XM9p6MgUAAli+37X89PZnrpaVw4olw6qn+7C8iIiIiuxaFVSIikj/pFGN4G6AxdnDSdiYnAQJDbYBm8ObibuVZ2yZFim66hz5P71tGWcaQ93zo7rYn/919d/ZaYyNcfrkdEeZXVRXYP9LOTrjjDnj++cw1x4FZs+Dii+1cfRERERERhVUiIpI/8bid+p1M2kQjHVDV1EBBwTa95AADvMM7xIljMEPteE00UUYZSXI7lMlgSJHCxR1qAUzPzBpe2ZUPySS8/jpcc032WlUVnHkmHHGEPf3PL+kc8qmn4IYbstfTp//NmuXfNYiIiIjIrkVhlYiI5E88bnvUhk/1NgYmTNjmsMrDI0Ei48S/dFueH1VOHh5rWUsbbYQIDe1bSSUzmJHz/cZi7Vr44Q9tHjhcOAwHHABf/GL2DKtccxzbfnj55dl7lZTACSfApz/t7zWIiIiIyK5FYZWIiORPug1w5H3bmKC4uHTTzRrWZJwGWEKJb6fypU8aHNlimG49zJeeHnvy3z33ZK/V18P559sCtoQ/ByQCm9v/fvpTeOWVzDXHgZkz4cIL1f4nIiIiIpkUVomIyLjh4ZEkSR99GVVUAQKUUurLnlGiLGEJCRIZbYdTmUoJJb7suTWuC+++CwsWZK9FIvCpT8Fxx/nf/ud58PTT8LOfZa/X1MA558Cee/p3DSIiIiKya1JYJSIi44aHR4zsBCZMGAcnozUwl3vuyLbD92PVKrjiCmhvz7w/FIJ994XzzrMz7P3kOLBypb2O/v7MteJiOOYY+I//8PcaRERERGTXpLBKRETyZ7Q2QM/b5iQlXeXUT//QaYAGQwMN1FBDitwmNAZDnDj99GcEUyFClFOe073er64ue/rfAw9krzU0wEUXQXV15piwXDMGNm2CH/8YFi3KXp82Da680r/9RURERGTXprBKRETyw/MgGrVDjYYHVuGwHbC+DQxmKKQaLtcnAA7XSWfWjKxiipnGNN/23JLhp/+NHPtVWQmf/CQce6x/7X/pwxxdFx5/HH71q+zH1NXBN74Bzc3+XIOIiIiI7PoUVomISH64LvT22tMAg8HNSUdxMUyZMuaXS7cArmMdATaHXyFC1FGXq6vOEhi8Db+OFClfA7ItWbMGfvAD+9/hgkHYe29bVeVn+58xtv1v+XK44Qbo7s5cT7f/nX66f9cgIiIiIrs+hVUiIpI/6XTDG1YJtY1tgAZDkiTrWZ81XH0iE3NxtVkSJFjFKgYYGNrTwWESk4gQ8WXPLenqgvvusy2AIzU0wGWXQUWF/+1/3d1w553w3HPZa9Om2esIBv27BhERERHZ9SmsEhGRcSFFim66SZDIGKZePHjzY7h6ihSddBInPnQSIEAJJRRRlPP9tiSZhDfegB/9KLv9LxKBz3wGjjwSEgl/9h+eNT71lJ1VNVJdHVx4IUyf7s81iIiIiMj4obBKRETGhThxVrKSbrqH2vIMholMZBKTcHG38gpjYzDEiNFJZ0YbYJCgb5VcW9LWBjfdBC0tmfeHQvDBD9rT/7Zjbv1WGWOrpZYtg6uusqPIhisthRNPtDOzRERERES2RmGViIjkR/okQGMy73fd7PKg9/NyGEKEMGx+PQ+PJMmcnwKYNsAAa1mb0XYYJkwDDb7sN5rDJdy+AAAgAElEQVSeHvjLX+B//zd7rb4eLrkEqqrsUPWRv9W54jj29L877oCXXspemzkTLrgACgr82V9ERERExheFVSIikh+xmJ3E3d9vEw2waUpdne1dG6MoUVpoGQqrPDxChJjClFFPCMwFB4cgmQOYXNwdNlw9lYI334QFC7LXqqrgjDPg6KP9DaqMsdnis8/CzTdnr9fUwFe+AnPn+rO/iIiIiIw/CqtERCQ/Uino7LQDl4yxfWrG2J6xwsIxv1ySJJ10ZoRVABVUZFQ+5UqCBC200EknQYJ4eBgMk5hEPfU53280a9bA978P7e2Z94fDsN9+NiTahiK1MXEcWLXKDk6PxzPX0qf/nX22v9cgIiIiIuOLwioREcmf0doAvbFXQHl4uLhDgRHYtsAAAV+CqrQ4cRIksqq5dsRw9e5u2/53773Za5Mnw/nnQ21tdoCUS8bY9r9bboFFi7LXZs60VV+BwOjPFxEREREZjcIqERHZ5SVIsJrVtNM+VOUEUE01TTT5Nlx9NauHwjAPjwAB6qn3peVwONeFJUvgyiuz1yor7SDzE07wr/0vnSd6nj397447sh9TWwv/+Z82sBIRERERGQuFVSIiMi64g7fh0tVVfkiSZBObMqqqHByqqMoY8u6HVavgiitg7drM+4NBe/rfxRf7d/If2ADMcezpg9dea4e8D1dUZGdlfeEL/l2DiIiIiIxfCqtERCQ/0qcBDud5dobVGA0wwLu8O9QGmA6OmmmmiKKcV1YBowZjfrYcpnV1wZ/+ZFsAR6qvh299Cyoqtum38X0zxl7HL34BCxdmr0+ZYsM0EREREZFtobBKRER2PM+DaNSWBjnD3opCIWhoGPvL4REnPhQgpdvwQoR8CZBcXFayknbaCREa2m8CE5jGtJzvl5ZMwuuvww03ZFdOVVbCpz4Fxx7r35yqke1/P/959mPq6mxgNn26P9cgIiIiIuOfwioREcmPRALWr88Oq2pqxvQy6aBqgIGhlj+DIUSIEkpyecVZUmQmRum5VX5pa4Mbb7Ttd8MFAjBvHnzzmzZI2oYZ9e/L8Pa/667Lbv8rKYHjj7ehmYiIiIjItlJYJSIi+RMMZn7ueWMetpQixUY2soY1Q8PVDYYyypjK1Bxe7GbpeVVp6T0jRHwLq7q74YEH4K67stcaG+HyyyES8f/0v+5uuPNOeO65zDXHscPUL7kECgr8uwYRERERGf8UVomIyC4tXUU1vKoKbIg1svIpV2LEWMlKUqQyZmTVUUeYcM73SybhzTfhmmuy16qq4Iwz4Mgj/Q+qAJ5+Gq6/Pns9ffrf7Nn+XYOIiIiI7B4UVomISH6YLZyYN8YethgxVrCCGLGh4MhgmMQkyinPeWBlMCQHb+l5WAZDkCBFFOV0r7S2NhsQtbZm3h8Ow/77wznn+Nv+B7ZyqrXVDk4fObw93f53+un+7S8iIiIiuw+FVSIikh9bSla2FGJtQYoUnXRmVDl5eJRRRiGFQ8PPc8XDYz3rWcOajOHqZZT5Mly9pwcefHD09r+6OjjvPDvmK5HI+dZDjIHOTrj1Vnj55cw1x4EZM+y8LLX/iYiIiEguKKwSEZEdLxazU7o3bbJzqzzPJiJ1dWM6DdDDI0aMTjozZkWFCFFFlR9XPlRFNbyqymBIkcp5MOa6sGQJfPe72Wvp0/9OOMH+dvrFGHsdzz0H/5+9O4+Pq673P/76nplJMkmapU3SNElb2oJLAUtR7r0uF6ECv4tXvQqyKIgLIruyySJr2Spr2UFQARG5grJUFvnp/XlRVhE3lEIpXZLuWdrss53z/f1xMpM5mbTNMpO28H7m0QdmvmfO+ab/TH3n8/l87747d722Fk46yR/wLiIiIiKSDwqrRERk4lkLsZjfT5ZdSVVUNKryHIuln37Wsz4THgEUU0wTIw+9RiNJknWsC7QdAtRRRymleX3W2rVw5ZWwcWPw9UgE5s/3q6pGOY9+1BwH1q3z2/96e4Nr0SgsWOCHVSIiIiIi+aKwSkREdgxjclv+xjB4ycEhTPBUQQ+PFKmtvGN8kiTZxCZSpAIzsiYzOa8zq7q64Mkn4YknctcaG+G73/WrmobOj8qndPvf7bfDa6/lrs+eDVdcUbjni4iIiMh7k8IqERHZZcWJs5KVdNFFiFAmOGqggalMLdhpgM4wH5/5bAFMn/63aFFu5VRVFRxxxMS0/1kLv/893Htv7vq0aXDmmTBnTuH2ICIiIiLvTQqrRERkl5VuA8werg5QRFFBhqsbDJ10sprVgWquUkp5H+/L23PWr4frr4eWluDroZA/G+r88wvf/mcMrFwJixdDZ2dwLRqFAw6A444r7B5ERERE5L1JYZWIiEw8Y/zkJZu1o05gPDxixDAMthMaDFGieQ+q0iyWBInAMy2WCJG83L+z02/9e+yx3LXp0/1h61VVhW//6+qC++6DF1/MXZ89GxYu9GdniYiIiIjkm8IqERGZeLEYrFgxOLPKWj/5mDUrd47Vtm5DjBWsyDkJcBazhm3VG68kSZppppfeQNvhNKZRS+24759u/1u8ODe3q672T//71KcgmRz3o4aVPS7shRfg1ltzr5k2Dc45B/bYozB7EBERERFRWCUiIhMvlfJLd7KDKceBiooR38Ji8fByKqgcnEB4lU8eHj30BIarA5RQkpfh6hs3+gHRihXB1yMRmDfPP/1vDAVoI2YMhMN++9+VV/qZYrayMn9W1tFHF+b5IiIiIiKgsEpERHYEY/xwKtsoU5gECVaxijbaiBDJBEd11DGDGXh4+dwxMHjKYHYLIPgzssaruxuefhp+9rPctYYGuOACqKnxh6qPovhsVBzHP/3v3ntzT/9zHL+a6qyzoKSkMM8XEREREQGFVSIisosb7sS/QrQAGgx99PEO7wQqt4ooYnd2H9e9XRfeesufRzVUdTUce6zf/lfIoMoY8Dx46SW45Zbc9dpaOPFE2HvvwjxfRERERCRNYZWIiOwY2amLtYN/RihFig46MlVOFouDQzXVmXlS+bS1tkODGXfb4fr1cN11sGFD8PVIBPbdF04+eVR/NWPiOLBmDVx2mR+KZYtGYcECOP74wu5BRERERAQUVomIyERLt/u57mBglR6WNIrj5eLEaaZ58LYDYVUDDYG2wHzx8GihhXbaCRPOaTscq3T738MP5641NPhzqqZNg0RizI/YLmP89r877oC//CV3bY894NJLdfqfiIiIiEwMhVUiIjKxkklYu9afJh4OD5YMTZkCs2eP6BYWS5JkYH6UwRAmTDHFBdm2xeIOfGXPrDIYIowtxfE8eOcdWLgwd62yEo44Aj796cK1/6X/6q2FP/wBfvSj3GumToVTToH3vz//zxcRERERGY7CKhERmXie5//JNtzQ9a1IkaKVVjawIVBFVUUVu7FbvncL+LOxOunMaTuspDJn4PpIrV0LV1wB69YFXw+HYf58OP/8wp38B/5feSgEq1fDtdf6VV7ZolE44AB/VpWIiIiIyERRWCUiIhPPmOFLhUY4mCk9J2pohZOLW5BTAMFvO1zFqkwwlg6rZjKTMOFR36+zE554ApYsyV1rbPSDqupqSKXGu/OtS7f/3XMP/PGPueszZsCVVxbu+SIiIiIiw1FYJSIiu5wECdayNtOSlw6QpjKVUkqHPSEwH4aGUh4eSZKjvk8qBUuXwuLFuWFUuv3v4IMLN6cqu/3vhRfghz/MvWbaNDjvPJgzpzB7EBERERHZGoVVIiKycxjFcXcJEmxgAykGkx6DoYYaiinO+3B1gHbaaaMtM1zdYKiiakzD1TduhFtvhRUrgq+HQjB3Lpx7rv99oU4AzG7/u+466OoKrpeV+WHZl79cmOeLiIiIiGyLwioREZl4Q1OYUcyrAj+YcoZ8hBlMwVoAAfrpp5fewHPDhKmkclT36e6Gp56Chx7KXZs+3R+2PmWKP1S9UIzx2xDvvx9eeim45jiw++5wwQVQXJhZ9SIiIiIi26SwSkREJlZ/P7z9tj9g3Rg/uHIcmDULSkq2+3YPj046aaElMFy9jDLmUJietSRJNrEpEIY5ONRQM6qTAF3Xb/9btCg3r6uuhmOOgQULCtf+B4Ojwl56Ca6/Pne9rg5OOw0+8IHC7UFEREREZFsUVomIyMTyPIjFgmmNMX4Zz3BD14e7BR4JEjmn8BVRlM+dZiRIsI51OTOy6qijmJGXH61fDzfdBKtWBV+PRGDffeGUU/zvC9X+B377X0sLXH557ryssjI45BA49tjCPV9EREREZHsUVomIyMQaruXPWj/EGoH0qXwxYpmWPIOhgQYmM7kgw9UNZtgT/7JnZm1PTw88++zw7X/TpsGZZ0J9feGrqjZvhh/8AF57LbjmOP4w9e9+d0QFbiIiIiIiBaOwSkREdikuLt10kyIVqHIqpbRgw9U76GANa3LaDvdgjxG93/Ng+XK45JLctaoqOPpoOPTQws+pchx4/XW4667c9dpaOPlk2Guvwu1BRERERGQkFFaJiMjEy273s3ZUlVUWmwmq0hycUc2OGo304PY48cwz06cBRomO6B5r18JVV8G6dcHXIxHYZx+/qsrNf0FYgOP4pxDeeSf09gbXysrgPw+Fk04q7B5EREREREZCYZWIiEwcayGZ9Iesp1sBjfFTm/Ly7b8dSy+9rGBFoC2vmOKCDldvoYU48UzboYNDPfVUULHd93d3w9NPw2OP5a41NsLZZ/tDzYfOj8onY/wxYU88Ab/85dBVj+qaLv7jqJWF24CIiIiIyCgorBIRkYnjutDe7pcahcN+eGUMVFTA7NnbfbvBECKU83r2KX35liLFFrYE2g4NhklM2m5llevCm2/C1VfnVk5VVsJhh8GnP1349r9QCP75T3+o+lDFRe1EWMQlF32B//7Dnwu3ERERERGREVJYJSIiE2trA9ZHcARekiSttNJHHw5OJjiqGvgqxLwqO/A11HCh2VDr18P110Nz85D3hmDPPeGCCwrf/meMv49rroHW1uBaUTEcuGASP79vf/YoTXLLdT9iQ2/hgj8RERERkZFQWCUiIruMFClaaaWX3kxYZLFUUEENNXmvsDIYuugatu1we8PVu7pgyRJ49NHctaYmuPhimDx5Ytr/HnvMbwHM2UcjnHlmCe/f80P8n3/7GN0tK+nuKGCZl4iIiIjICCisEhGRXYaLSw89mdlRFouDQznlW62AGq+hFVTp52QPeB8qlfLb/xYvzg2jqqrgqKPgkEP88V2FZAy89RZce23uWlUVHHmkv494LE7zurVEp8+kfPLIhsaLiIiIiBSKwioREZk422oBHEEbYIwYK1kZCIrChJnJzBG15Y2Wi0s77fTTH2g7nMQkKqnc6vs2boTbboPly4Ovh8Mwbx6cdZb/4xayBdAYfx/DnUIYDsP8+X51V7xvM68+/3Mee3Ephx11BPVlhduTiIiIiMhIKKwSEZGJ43l+X1p2MGUMFBX5g5y2w2AC7XgWi4dHisL00rm4bGITPfQEwrBqqqmjbtj39PTAr38NDzyQu9bYCOefD7W1/lB1s/XirDFL/9XGYvDII/DUU7nXTJ8Ol14GITp57skHOOvc29n7c2dxylELtlEvJiIiIiIyMRRWiYjIxInF/HKjWMyvsEonKzNm+H1p25AiRRttdNBBiFBguHoDDQVpAfTw6Kc/U8mVbjsspXTY+Viu67fdXXJJ7r2qquBLX4KDD4ZEojBBFfh/rcbA66/71V1Dq7eqq+GYY2G/fTp48ie3cNIZ1zH/iLO586rTqQgPf08RERERkYmkf5aKiMjEsdavrso2XGvgMDw8uumml14iRDKvR4lSSWXewyqDybQdZs/IChNmNrMzr2Vbvx5uuCG37S4S8dvuTj11xB2PY9+38U/9u+02WLUquBYOw/x94azTNvCz2xdyya1P8+UzruCKs79GNP9dlCIiIiIiY6KwSkREJo4xuSVFI0xv0i1/Qwebp6usCsFgcmZhba3tsKcHnn0WHnoo9z7TpsEZZ0BDg19UVqj2P2P89sLHH4eHH869ZuZucNlFm3jlyRtYfO8rXHrrLznx8I/kfzMiIiIiIuOgsEpERHYJ/fSzjGW4uESI4OHh4LAbu1FKKS75nVbu4dFKK5vZHBiuXkkl05gWuNZaWLECFi7MvU9lJRx+OHzmM4WdU2WMXzn1l7/AokW510ypga99rY8p0d9y0vdupb10Lkuff4jTf3cvrmfxrKVi6nSOOeUk5tVNzv8mRURERERGSGGViIhMrOEGqY/wWLyhc6LSlU9Dq63ywWLZwpactsNSSqmhJnBte7tfydTSErxH+vS/Cy4o/Ml/oRBs2DB8G2JREfzLfnDStxIsf72XD+x3MBRFWPrG635Rm/XDquqYpTdZmGH1IiIiIiIjpbBKREQmhrX+ZPGOjuCMqkgEamq2/j78U/naaWcta4kQybT9TWISs5hVsC2bga+h32dXccXj8MorcO21ue9vaIDzzoMpU/zrCrZP47cXPvEEPPro8Ps44wyoqa2iZsEJ/HLBCYXbjIiIiIjIOOk0QBERmRjWQm+vX/aTXV1VUuKfBrgdHh5x4oHwyMGhhJJC7JZ++nmbt3FxMZjMSYCzmBV4ZksLXHYZJJPB91dWwhe/CP/xH35GV0iOA2++CVddlbtWVQVHHw2HHFLYPYiIiIiI5IvCKhERmTiOk9sGaO12e+RcXHrpzRmkHiVKmHBBBqxbbGCQuh34ChPOBGatrfCjH8Gf/hR8r+PA+97nV1VB4U//27DBD6o2bAiuRSKw775w7rmFe76IiIiISL4prBIRkZ1ejBjLWU6ceGbYuYNDE01UUZX34eoGQzvtbGRjJgwzGCqoyLQdJhLw5z/DzTfnvr+2Fo47zu9uLFT7XzoAi8fhscfg6adzr2lshO99D6qrC7MHEREREZFCUFglIiI7PYMJDDmH3MqnfEuQoI8+nKyPyjBhyikHoLkZLroI+vuD74tG4cAD4eSTC9v+Z4z/5x//8Ieqp4b8VVRVwVFHwac+Vbg9iIiIiIgUgsIqERGZGOkj68yQk/s8z/+zFRZLP/2sZz0hBlsIiymmiaaCbDU9HyubwVBEEQ4OmzbBXXfltv8ZA7Nnw8UX+/+7kO1/juO3IS5enHsKYSgEe+8NF15YuOeLiIiIiBSKwioREZkYrgtdXf4k8uwkp7TUL0fahhQpOugIVDmFCDGFKQXZaowYK1gRaDsEmM50ivorefFFuOee3PfV1cFpp8EHPlD49r9YzD/577HHcq+ZMQOuuAImTSrMHkRERERECklhlYiITIx4HFatgp4ev/THWr88aNo0P+XZinRQlSKVCY7S86NKKcVj61VZ4zH0vgZDkQ2xrhmuv97P3bJFo3DAAfD1r293Xvy4pGfU/+MfcNNNuUVpkyfDscfC/vsXbg8iIiIiIoWksEpERCaGMX7Sks3a7fbKJUiwhjX00huocqqllhpq8h5WGQxb2MJqVgfmZFVQyu7t7+On98MLL+S+b/p0uOwy/wS+ZDKvWwpwHNi0CW65xc/+sqVP//vOd3K7LUVEREREdhUKq0REZKdmMIQJYwimLylSeT8FcOj9088MASZm+fXLIRbfmnttfT1897vwvvf5BWSFCoqM8dv/liyBhx/OXW9shPPOgymF6Y4UEREREZkQ4R29ARERkW2JEWMVqwLD1SNEmMUsHJy8B1YeHp10kiQ5EFZZcGHVm+U8dVUpnT3B68vK4OCD4Utfyj2RL5/S8+mXLoXLL89dr66Gr3wFDjqocHsQEREREZkIqqwSEZGJEwoFv7d2uwOeXFx66AlUVhkMZZTlVFvlQ4IELbRk2g4NFht3aHljKstfrglc6zgwZw6cdZY/s6rQYdWGDXDttbBxY3AtEoH58+HUUwv3fBERERGRiaKwSkREJkYiAevWBedWRSJ+79pWeHgkSWaqp9LzqiIDX4Xg4OTe27GES3KTqNpaOPFE+NCHCt/+F4/77X/Dnf7X2AjnnANTpxbm+SIiIiIiE0lhlYiITIxk0p8Mnh1WhcPbPAkwSZJmmmmnPRAg1VDDdKYXZLh6H3000xxoO0x1hln9u90C10ajsGABfO1rhR2oDn5YtWwZLFqUO4++qgqOOAIOPbSwexARERERmSgKq0REZGKkhy5l204boMXmBFIGQ4hQQVoA08/spjtzf4PFJgxd6yoy1zgO7LEHXHABlJRst5NxXIzx2/6uugrWrg2uhcMwbx5ccknhni8iIiIiMtEUVomIyE6rn36WsSzzvcUSIsRsZlNEUd4rqzw8Wmmljz4cHP+JrqGzvZL2tweP2KuthRNOgD33LFz7X7qCKh6HRx+FX/0q95qmJj+oKi/P//NFRERERHYUhVUiIrLTslhSpALfpwOrQlRWubi000433Zk2QOsZOtsq2fRGLeC3/33yk3DSSYVt/3Mc/8/rr8Ott+ZWb1VX+ycQLlhQuD2IiIiIiOwICqtERGTiZM+rSrcAbqWHzsMjRixT5WSxGAwllDCJSQXZnsHgDHwNvgaO4xGO+KHZjBlw2WX+j+Llt7AruBcDra1w222wYkVwLRyGvfbyh6qLiIiIiLzbKKwSEZHCc13YsgV6evyUx1o/jamshClThn/LQJVTK62ECQN+mFRBBTOYUZBtxoixnOWZUwcNFneLw4rfzCYVD1NfD2ecAe9/v9+eVwjZ7X9LlsDPf557TVMTLFwIkycXZg8iIiIiIjuSwioRESm8ZNKfEt7ZOThk3Ri/l62+fti3pAepZ1c5pdsCs1sD88nDI0Eiaw8WPEj2FhEtMRxwAHz1q4UdqO44fuXUG2/4p/8NNXkyfOUrcOCBhduDiIiIiMiOpLBKREQmRnoIUzbXhdTwwVOMGKtYRYoUxj+TDweHJpoopxyXfCdGlg7aaKd9oJLLYq3Dli1VrHx+OrN2gwsvhOLiws+q2rgRFi+GNWuCa0VFsO++cOqphXu+iIiIiMiOprBKRER2Si4unXQGQimLpYwyIkQyrXr5YoFe20eP10so8/FoifUWwbpKTj0J5s4t3Ol/4N83Hocnn4SHH85dnzYNzjoLpk4tzPNFRERERHYGCqtERGSn4+HRTz+b2Zw5lQ+ghBJqqc378xwP1rTAHT/w8NzBJMpNQLw3xGePthx73FaLwPLGGHjrLbjiity1qio46ig49NDC7kFEREREZEdTWCUiIoVnzOCsqjRrB6eJD2Gx9NGXGa6erqIqoYRpTMvv1oC2TXDPj/tpDr/NpEhi4FWLF3Oo2jyLEw4vo7yisGGVMbBpkz+nat264Fo4DPvsA+eeW7jni4iIiIjsLBRWiYhI4cVi8M47g99b64dXM2f6Scww0gPWs9v9LDbvs6rcBLz6F8OddxuKi0zmg9EDQpWWT3/W4yMfNQVr/8s+/e+JJ/wTAIdqbIQLLtjqwYkiIiIiIu8qCqtERKTwXBe6uga/t9afJD5p0rAJUJw4y1lOH32ZwMpgmM50aqnNW2DlAM2r4dKLHELl/UzbswM3q+2w2JYwOVWHLeBAdWP8v4qlS+H663Ortyor4Ygj4JBDCrcHEREREZGdicIqERGZGENPArQWPG/YSz08EiRyQqkQoUBb4Hi1t8IP7nH4y9+gvK6funmbcLOquYpsMfVuY55HuQc5DrS2+qf/rV4dXAuFYK+94KKLCrgBEREREZGdjMIqERHZqVgsMWKsYQ1hBlsEiyhiOtPz9pxUDF540XDPD0KEilwqGnowrl/DBX4bYilRIoQKElal2/9iMXj8cXj00dxrpk+Hyy/3q6tERERERN4rFFaJiMhOx8Wlk04Mgy2CIUJUUZWX+xsLzc1w/fUhurqgpCLO7ANXUFrch8XxK6usYZrXyBQ7mULMVXcc/88bb/hVVUPb/6qr4ctfhgMPLMDDRURERER2YgqrRESk8NKnAWaf/ud5/iyrISyWJP6QKIPJtOSFCAXCq/HY3A733u/w4vNmYCuGZH8kZycpkgVrATTGb/+79VZYsSK4FonA/PlwxhmFGeouIiIiIrIzU1glIiKF5bqweTO0tfkn/1nrJzCVldDUlHN5nDgrWckWtgTaAOupp5HGcQ9Xd+Pw0h/hjlvTg9Qt0aoYjf+2llTW8yIU0eTNwBQgrTIGEgl46il46KHc9YYGOO88qK3N/7NFRERERHZ2CqtERKSwPA96evzTAMMDYZAxEI3ClCk5lxsMDg4eweHrFoszzo8tx/pDzBddHaa7e/CJTsSles7mzLwqsDjWodpW5/2DMl1ktnQpLFyYu15dDccco9P/REREROS9S2GViIgUnuME2wCt9f8M0waYJMkmNmWCKYslRIgaanDS86TGaHMH/OSnDi+/kDULqzjFlN07KC6O42Xub6iggnJbMc46rlzGwIYNcN11sH59cC0SgX32gdNPz/NDRURERER2IQqrRERkp5IgwVrWZuZTpSuq6qknRGg77946LwF/fA2uvyZ4j6KyJNP2WU95ZQ/ewP2NNVTbKUyxtaTyODPKGIjH4cknhz/9r7ERzj4b6uvz90wRERERkV2NwioRESm84aaE29wKKQ+PGDFSpDLD1Q2GIooooWTMjw8BLc1w6UUhEokhz3Qh1huGrOHtFotLCi+rMTAfjIHly+H73/e7I7NVVsLhh8N//mceHygiIiIisgtSWCUiIoU3NJkxxm8NHCJFig1soJXWzHB1g2Eyk5nBjJw5ViPV3gb3/NjhT68Gn+k4MHVGjI8e8w6JrLbDMBFmubMpsiZvpwEaA5s2wdVXQ3NzcC0Ugg99CC69NE8PExERERHZhSmsEhGRwurvh2XL/OPvjPErqhwHZs6EsrKcy8OEMy2Aae7A11i4cXjlj4Y7b8ttIayrhdNO9thvfg+xgdfS1VwlRPPyIZkuIIvH4fHH4Ykncq9paoKLLoJJk/LwQBERERGRXZzCKhERKSxr/aRmaF8uiRIAACAASURBVNtfcXFOdVWCBM00ZwKj9H8baKCEklFXVhlgzRq48gon6/Q/XzQKB3zS4+snx2nLajsEiNgwxbYkL1VVxvh//vlPuPlmSKWC61VVcNRROv1PRERERCRNYZWIiBTecDOrhrYG4p8E2EZbJpRKh1VVVBEhMurHbm6Fu+9xeOXl3I+7mTNh4VVJNrGW9dlthwPD1ad7u+VluLrjQHs73HEHvPNOcC0Ugj33hPPOG/9zRERERETeLRRWiYjITiFd1ZTdAmiyvkYrFYMXXjb88O7c9r/6essZZ3vM3N3SPaS90GBwCI17sHq6kCyRgF/9Ch58MPea6dNh4UKYPHmcDxMREREReRdRWCUiIjsFD4822mihhQiRTHhVQQVzmDOqexkLLS1w4w0OmzcH16JRy/6ftHz1OJd+YizjbTy8TBugg8NsdxbltniM49x9jgPhMCxdCosW5a5XV8OXvwwLFozjISIiIiIi70IKq0REpPCGnvxnbU4boB34cnFzqqtC5FZHbcuWDnjgQYc/PBd8rjEwazZccplLSVHwudnfjbWaK5vjwMaNcNNNuaf/RSIwfz6cdtrwHZIiIiIiIu9lCqtERKRwPA+6uvwyp3B4sDeuvBx23z1waZw4K1hBkiQOTqbKqYkmqqgiRWqYBwzzyAS88ifD9dfkBlxTp1q+fYbL3A9ACkMffXTTnRWGGYopppLqcQ1XN8afKf/00/DQQ7nr06bBmWf6/xURERERkSCFVSIiUjjWQjIJfX3B6qpQyA+ssri49NKLO2SGVAklIx6uHsLPxa68LEQsFlwrLbV86iDLscf4dVQWy2Y2s4lNhAlnKqrK7CSavJl446h4chx4+2244orctcpKOPJI+Mxnxn5/EREREZF3M4VVIiJSWMbktgFCoA3QYvHwSJAItN85OJRQMrLHAB1t8OP7DC+/HEyaHAfm7A5nn+NSGgUXv70wTDjQYphuQxxpFdew+zB++9+iRbBmTXAtHIZ58+Dcc8d8exERERGRdz2FVSIissNZLD30sIpVhAlnXo8SHfFwdS8Bf/qr4eYbc9v/amotJ5zgss88MjFUnDgrWUmceGa4urGGRq+RKlsx6rhq6Ol/jz+ee01jI5x/PtTWjvLmIiIiIiLvIQqrRESkcNJVVUOniFs7mO4wOETdGfKx5A58bY+DP8T8kotC9PUFnxWNWg44wHLyyTZwp+y2w3Q1l8VSYqOU2JG1HWZL/6hLl8J110FqSNpVWQmHHw6HHjrqW4uIiIiIvKcorBIRkcLxPH/SuDskcCoq8nviBiRJsp719NGXGa5uMExhCtVU4+GxLR2tcPc9Dq++EgyqjIFZc+CShS6hEJmh6QZDP/200Rao5CqmhHo7bUzD1R0HWlv90/9WrQquhUIwdy5cfPEYbiwiIiIi8h6jsEpERAonFvMnjff1+YmNtX6qM3061NRkLkuRoo02YsQyYRVABRVUUbXNsMqNwYuvGO65O/cjra7OcvIpLnPfT05bXx99tNEWmFlVZIuo9aaO6kdMF4jF47BkCfziF7nXTJ8OCxdCVdWobi0iIiIi8p6ksEpERArL23ZVFPhhVRddgTZAB4cKKrYZVBkLLWvg+utCbNkSrKoqKbH8+79bTjzR5lRKpV8JESK4akfUdpjNcfwcbulSWLw4t/2vqgqOOgoOOmhUtxURERERec9SWCUiIoU1dF7VMOLEaaY5WOVEETOZmTPHKtuWDrjvJw7P/z73GTNmwsIrXcIOOfFTkiQrWUk33ZnAyljDNK+Jqbae5Pa3nGGM3/53222wfHlwLX3631lnjeivQUREREREUFglIiI7AYMhQnCouYdHahtn8rlxePlVuP2W3NP/6ustZ53j8sFh2v/Ar6xKksxUUdmB+ioHhwiREc+sMgaSSXjmGfjpT3PXGxvhvPOgrm6ENxQREREREYVVIiJSQMb4PXLZrA30yiVIsI51dNARaMubwhQaaCC3ic9v/2tugWuuDtHZGVwrLbV86iDLV46xwzYQpoert9AypJIrwkxvFqERJlXpH+3NN+Gyy3LXq6rgS1/S6X8iIiIiIqOlsEpERArDWr/sqL092AMXDkNtbeZbD49eeumnP9PyZzCUUEI55cOGVZ0d8NMHHZ7/Q/BjzBiYPQfOOdclGmWr065cXLrpxpDel3/6YAUVI/5gNAY2boTrr4e1a4Nr6fa/008f4c1ERERERCRDYZWIiBROLOYnOdnVVUVF/vF4A9IteUNnU4UJDxtU2QT88c9w7aLc9r+6OsuJp3jM23v49r/s56UHt6efEbZhHBsaUQugMZBIwFNPwSOP5K43NPhzqhoaRnAzEREREREJUFglIiKFFQ4Hv7cW3MGR5/30s4xlg8tYQoSYzWyKKQ6cBhjCb/9beEmIeDx422jUcsCBlm98zdvmeX4uLs0000HH4Jws61Bjp9LkzRzRcHVj4J13YNGi3MMOKyrgsMPgc5/b/n1ERERERCSXwioREdnhhlZQGcywpwB2tMGP73N45eXc9r85c+D8812iJWyzOmpr9/ZwGcmBfenT/xYtgtWrg2uhEOy9N1x66QhuJCIiIiIiwwpv/xIREZHCSJFiIxvZwIaBU/j8mKmKKmYxK3CtF4dX/2S4/dbc9r/aWss3v+Uxb97W2//SEiTYxKbM9xaLg0OtrSWCs9Wgy9rB9r8lS+DRR3OvaWqCCy/0h6uLiIjsSjzPJRbrx4SiRIuDn7VuKkVX1xZcz1BcVs6kaPEO2qWIvFeoskpERAojfVxe9nB1a/2+uYE2QIvFwyNJMmvYOTg4FFE0eCtgzRq44gqHriGn/5WUWP59f8vpp3tbHaieLUmS9awPzKwyGOq8eopsbhCW/eM4DrzxBtx0U+BAQwAqK+GLX9TpfyIisutx47385XeP8vnPH83jLw/+QsdNxlj+2v9w6hGfYc8PzuUDH5zLxw48hDsfWUJiB+5XRN79VFklIiKF4brQ1QXxuJ/0pEuTSkuhvNy/BJcuugJtgAZDGWWBAeub2+CeHzu89GLu71hmzICFV/otfNuaVZUWI0aCBCFCmfsXUUwppdtsH3QcaGuDO+6At98OroVCMHcunH/+CDYgIiKyE0nF+/jn75/m3NPP4q1EAxj/s9baFGtW/oXvnn4Kr7aWcf5V11BXGuZXD/+ES8/6Dv22nDOOXKDqBxEpCIVVIiJSGIkEtLRAZydEo4Nh1dSpmWPy4sRZwQqSJAkTxsMjRIjpTKeUMlxSuDF4+RXDPXflVj1Nrbd850yPue/ffvsf+FVUG9nIJjYRHvgINDhU2iqa3N1whxlald3+9+ST8MADudc0NcFll0FNzWj+gkRERHYkjy1ta3jg9sUs/sFP6QmVM6VuUqYg2o31suaNV1ndF+XK2+/ha4d8GLB8/N/2xfvWcTz+s8f55ucWUFGyQ38IEXmXUlglIiKFY0ywDRD89GcgATKYwRP50svYgbZAMBaa18CNNzh0dARvE4367X9f/7q3zYqowHYGnhccsG5JkSK1lbosx/Erp/7+d3+o+lBVVfClL8HBB49wEyIiIjsBa5O0dbzFb1/5G0ed/n3m1nVy3U2/xLX+p6pTVM78BV/l2Y8fQ03NlIF3GUqKSpnT0ERzawJvpB/AIiKjpLBKRER2CA+PbrpZx7pAy1+UKDOYgQE6N8ODDzn87+9ymwx2mwWXXupSUjyyqirwK7lWs5oUKYoowsPDsQ4NXiMVRIeNqxwHNm6Em2/OPf0vEoH58+H003MzORERkZ1bhOkzP8q9Dz5BebHLc7+6j0Rq8JPQCYUoraikNPstXoKujnd4+R9vsftnP0tZdMI3LSLvEWoxFhGRHSZFii66ApVOYcJUUkkiAa++Zrju+8O3/53+bZc95448qAJ/RtYWtuBmxVIWmGTLKbaRnOuN8UduPfMMPPRQ7v3q6+GMMzJdjSIiIrsMYxyKi8uZXD0Jz1riKRfY1m9ePDasfYfFV1/BqtAsTvvGF8j95BQRyQ9VVomISGEYA+EhHzPWZk4CTJKklVZc3MBJgFVUUU4ZLWssV1weor8veIvSUsuBCyzHHmtHdPpfZjsY+uijiy5CDAZgxRQz2dYM20roOP4w9SuuyF2rrITDD4fPfW4UmxAREdkluWxoeZOF53ybJX9Ncu2dt7HfzCnbf5uIyBipskpERAojHvcHrKf746z1w6vGRjCGBAnWspYYMRwcLBYHhxpqSLZXcP8DlhefD/6G1xiYNRvOPsejvIxRhVUWSxddtNIaaDsssVEavCbskF8mOw5s2gTXXOP/GNnCYfjQh3T6n4iIvPtZN8Hqf/6BM44/jt8uM9xx3085ZsGcHb0tEXmXU1glIiKFkUxCa2twmFMoBLW1gF/pFCYcqKoyWEzS5e9/M9x4XW77X02t5fgTXD48346q/S/9vBChTDCWZvFIZd1tYK4s8bh/+t+jj+beq6EBzj3XP9hQRETkXSsZY9Wf/oeTvnEyK8Pz+O/HHua/Pjp7R+9KRN4D1AYoIiKFYYwfTmWzFlIpLJZ++lnFKsJZH0WlFFPePIfLLoLe3uBbS0osn/yk5bST7VbO7du2OHFWsIJ++okQwWIx1tDoNVFjp2TiqvQBhm++CddeC6khqVhFBXzhC/CZz4xhEyIiIrsK67KueSlXX34Jm6L7cv8dNzF3Rhn9/f0AGMehqKgYRweMiEgBKKwSEZEdIh1YpYWA/lbDXT8s5fcvDbnYwKw5cMlCl3BkdEPVs58XI4aLSxFFmeqqIoooIkJy4DrH8QvCFi+GlSuD93Ac+OAH4ZJLxrABERGRnZW1JJIxumJdxJN+k31fVzvP/eoB7n32r1ROXsfhB88nlkhhrYfFMHPff+eW++9m38qyHbx5EXk3UlglIiITzsOjj76s4eoWPGjfWMJvnyrJub6uznLySS57fXBsQRX4Jw/GiAXaDh1CRO3AudsWGDj9b8kS+MUvcu8xfTpcfjlMnjzGTYiIiOyEIiXl/Mv+X+DOm/Zl772qAQgVlzF3/89x/30fIRR2SA2UGtuBfvnymmlMLynaYXsWkXc3hVUiIlIYxvilSGnWZk4DTJBgNavZzGaiRAGLTRpaV9XR8XpT4DbFJZaPfdxy4sl22BP7RrQVDL30sprVgZMAi2yE3bw5OBaM42/373+Hm2/Obf+rqoIjj4SDDx7jJkRERHZSoXARTbPn0jR7bua14pIy5u17APP23YEbE5H3LA1YFxGR/HNd6OyEri4/AbLWD6/Ky6GmBovNqqryWc+QiodhSCQ1YwZccaVLJMSYZlWB3wKYIsXQuCs9cB387bW1wZ13wrJlwfenT/87++zgvHgREREREck/hVUiIpJ/qZSf/GzZMjhk3Rh/OnlDAzFivM3bmaDIweJuCbP817tDVoA1td5yxpkue46j/Q/8FsBVrKKTzsxwdSxMtQ00uNNJGf/wwmeegfvvz31/QwOcd55O/xMRERERmQgKq0REJP/SJwEObQP0PEi5WCweXtYbLA4WaweDqmip5cADLV/96tjb/7Klq7mGCjlhnLB/+t/Chbnvq6qCo4+GQw/NwyZERERERGS7FFaJiMgEMrhAD7300psZrm6toaenlM0rqvyrDMyeDeec61IaHXv7X1qKFJvZnKnkslgcQky21YSNZcNGuPFGaGkJvi/d/ved76j9T0RERERkoiisEhGRCeUCbWxmM5sJp8/5sNC1uYK1f2wEoLbO8q0TPfbdZ3ztf+APV48Ro4WWwIysMGEa7QxiCcMzz8DPf5773oYGOOss/78iIiIiIjIxFFaJiEhhDFeKZP32v376gy8nDf0dUYxjiUYt+3/S8o3jvXFXVKU5OIPBGH5llcXDmiQr34Grr/Y7FLNVVMBhh8F//VeeNiEiIiIiIiOisEpERPIvFoMVK/wEyBh/XlUoBDNmECtK8A5v4eFhMBgsbleIVb+bSbKnmNlz4IILXMqiQ88FHBsPj3Wso402QoSwWAyGWjOFKRtmcu0iWLUq+J5QCPbeGy69NA8bEBERERGRUVFYJSIi+ee60NXlh1RpxsCkMgiRCY0ADBbH8QiXpKiptRx/vMf8PLT/pVks8YGv9MyqEGC6Qjz+qzJ+8Vjuexob4Xvf84eri4iIiIjIxFJYJSIi+Zc+DTCbBetCnBjttA205fl1Tl2dZax6vol/2Qe+fYaXl4qqtCRJ1rPe39bAQPeQdYitqeee20LEk8HrKyv99r9PfzqPmxARERERkRFTWCUiIoVngRB0OoZn/hRnVddmIgMzpKw19PaWMClWy+VX+R9M+ZpVBX5Y1UorHv5QKgdLqsvw/P+tYekb4cC1jgMf+IBfVSUiIiIiIjuGwioRESm8EPSl4P8tgTvuhpKIgxmon/Jcf5j5eRclmf+R/LX/paVnVKUZDG7csGq1ZchMdaZPh8sug9raPG9CRERERERGTGGViIgUhuMMzqxyLD0JeOXFGGb2MqqiMSyOP7fKM8wJz+CwA6qweY+qoJVW1rGOCBEYmJTVuaWC1b/dPXBdVRUcdRQcckjetyAiIiIiIqOgsEpERPIrPVx940YI+3OpsIbu3nL+3DqDqsnxTFWVBUwRzGwMEY2G8tr+B34VlYdHkmSgugrXkOyNBK5tbITTTvMzNhERERER2XH0T3IREckva6Gvzw+swoNzqeKJYtqqDTM/0UySwVlRUUqYzsyCbCVOnFWsyoRVBovtNax5rYnu9ZMy19XX+0HV9OkF2YaIiIiIiIyCwioREck/Y4JtgBYcYymv7KesvhebVeXk4DCJSVu50fi4uPTQg4ubqawyKejviJKK+ZVVJSXwiU/A8ccXZAsiIiIiIjJKCqtERGRCGGMpLo9jAOvXOAEQIUKIUOb7fHJxSZEKtAC6rkO8uzjz/cyZcPnlEIkMdwcREREREZloCqtERCT/jAl8az1DqMhl94PeYdLkLryBcMpgaKCBeupx8zyxymDopJPVrB4Yru7r21zKsqf3APz2v3POgQ9+MK+PFhERERGRcVBYJSIi+ed5gW+tNaSSIZKJUGa4Ovhn8+U7pMrm4AQHqwMh4+I4HqWlcNBBcMwxBXu8iIiIiIiMgcIqERHJr1gM3n7b/6/jgLH0Gni1u44tjSkiWWFVhAj11OcESvng4tJKK/30D9zfYpOG9nWT6WqpYs4cOPtsiEbz/mgRERERERkHhVUiIpJnHtj44HB1/xWSpR5Ve7XDQDBlsTg41FGHU4CPo5RNscn6YZVfYWUhBZ3rqyjqr+SEb8I+++T9sSIiIiIiMk4Kq0REJG88Cz29hg1rHQgPvGgNIaCqoYvi0gTewHB1g6GEEkopzftwdQfojbn8/Z1eIlkfdck+h9blFXzio3DSqXl9pIiIiIiI5InCKhERyZvWNrj5Lvj5L4BJAy96hiLHo/Ff1zJ5+ma8gRTLYKihhgYa8h5WdbQZ7vt5jBWJZkoIAWCBRG+ESa27cdF5Sbas+SuXfPsb7D33/ew1bz+OP/Mi/rF6fV73ISIiIiIio6ewSkRE8sJa2LABHvwpRCJD1jB4KQcv62PHYkmRyvuAdTcOr7xsuONmBy8ZzjzRwxKttXzzVI9pjcu5+IwTuf2/n+PfDz6azx+yH68++iOO+9aZvL5uS173IyIiIiIioxPe/iUiIiLbt3YtXLMItmyAkr2CA9MN4GQVT1ksIUJMZzpFFOERPD1wrIyFlma4+vseTNtA4+6bSREaqNwyNEZrOKSxhn8++zTP/3Uj51x7Jxd87VDceBf/eeDeHHfKdTzy1N/Z+4T987IfEREREREZPVVWiYjIuHV3wzPPwKO/tEwt6+WA3ZohNfj7kFgpLJ8zeH16ZlUllYQG2vTyYUs73PcTh9f+7lG3Wy/Rsj5s1kddEUUUm1KKiiDiWJLJgaoua3BSYRxjKCrV73FERERERHYk/YtcRETGxXXhzTfhuusgmbREI0lqy3rADlZXuSHomTT4HoPBGfjK2z7i8MqfDHfd4VBUlmTahzZm2g7TlVy11OIVR5m538Gc8pU/c+viC2n58wtMKenhpd89z0c+fTzHf/bDeduTiIiIiIiMnsIqEREZl40b4fbb4e23wTHgWUPKHVItZcFJFzENDFOvpprZzM7LHoyFlha4/toQHR2GybsnaPjIuqzH+5Vc9dQTwiEUKaaitobezS08++vHKIu4bOlN8W9zGqieVJyXPYmIiIiIyNioDVBERMaspwd+/Wt48MHRvzddXZUPnZvhwYcc/vd3fjWX9cCN57YXurgk+jt54Tc/4/xF93DwqTfx17+9zquvvMg13zmCR268lGt/+FRe9iQiIiIiImOjsEpERMYk3f63aBGkUv5r1hpc62BtcMA61q9+8v+nxcFhJjMpp5wUqXHtwybg1dcM37/KD6dCxSnq9tpE/fwNJIlkqqqqmcwsZtPftYVlz/8vZbPnc+ZZxzG5IkJ5dS0HH/VN/uNfZ/Dss/9Da2JcWxIRERERkXFQWCUiImOycSPcdhssXz74WtjxqCiOEQ65/swqCxZwI5CK+KcCgh9YRYiMe7h6CL/97/LLQsTj/mvGWEIRl0hpEstgaObgUEKJvyHrb8x4g6cQOo5DUWkJrpvEHdeuRERERERkPBRWiYjIqPX2wm9+A/ffH3y9ojjOgjkrqKjoAi8EFlIGNjbB+mkQGbguQoQyysa1BwNsbof7H3B46cWsUCriUV7fixmYjeVfayijlBAOJRWVzPnoJ+ha/hq33PIgnd3Q39XBK08/xNN/WMpHF3yCmqJxbU1ERERERMZBA9ZFRGRUrIUVK+Dii4ddxeANt4CFTIBUSimzmDWufXhJ+PPf4KYbg9VZJVUx5ixYToQkLmEsHiFCNNFEKaVQGuVjC77IOV9+mYuvOpFn7r2BSSVJ1jSv5xNHn8J3vnaYPhxFRERERHYg/XtcRERGZd06+P73/fa7bOEIfGCe4ZhjDawgp3Y3uwXQHfgaKwM0N8Oll4Tp7s5esTghi1PsBVoADYZw5iPPUFk3gxMu/yEfPug3PPvcyyRDpez14Y9z2GcPIRpBRERERER2IIVVIiIyYj098Oyz8PDDuWvTGuDMc2HmNGApEM29xq+uMkxlKtVU422lCmt7trTBj+51eOmFIYPcHY+i2i3M3L+Z1MBwdYByytmDPQKXRssq+Pihh/PxQw8f0x5ERERERKQwNLNKRERGxHVh2TK48srB0//SKirg85+Dww6BVKeBIRlS9kmABsMkJlFK6ZjCKjcOL/8RfnBX7nD2mhrDcV8xTCn3SDL4TA8PRx95IiIiIiK7BP3LXURERmTDBrjhBli5Mvh6KAQf/CBceBG41mKTwSTLGkhl5Uphwkxm8pj2YCy0rIEbbwjR0R5ci5bA/p9IcvRJG+kzSdKJmYNDFVX+vCoREREREdnpKawSEZHt6u6Gp56CRx7JXWtshAsvhNoaSHXHCK18B0KDXeaxCLy9ByTw46MiimikcUz76NwMD/7M4Xf/L/fja8YMuPTyBJ2R9XQTx8HJVHLVUksFFWN6poiIiIiITCyFVSIisk3p9r8bb4RkMrhWUQFf+AJ8+tMDrYGeB6ngRdZAooiB6VHg4ZFiSB/hCHgJePU1WHxDbvvf1HrLt8/02G1PlzZiOFl9iA4O0eEGaImIiIiIyE5JA9ZFRGSbNm6EO+6At94Kvh4KwV57wbnngjGQcvFDImNy7mE8SMdVddTRQMOo5lU5FlavgauvCtHVGVyLlloOPNDyleM8euhhFasJMRhoFVHEHOaM+FkiIiK7LkOEcKYiIfcTWURk16CwSkREtqq3F37zG/jxj3PXGhvh/POhvh7i8WEzqoB0ZVUxxUSJZk7qG4ktA+1/f3guWBBsDMyeBWef41FeCj2EAkFVerj6WCq5REREdiUOYcKuy5aeTfTHXXonFeFEi3b0tkRExkRhlYiIDMvz/Pa/Sy7JXaushCOPhEMPhUQia8EBTFagZP2qqpDrf+PgUEJJZpbUSNgk/PlvcO2iYU7/q7Ucf4LHh/e1JPBYz3p6BiKr9DNqqGEqU0fzo4uIiOxSHAx9bSt54M6rufXup9jS61K11/vpvfVAmFcKo/gFkYjIzkAzq0REZFjr18NNN0Fzc/D1SATmzYNTT/Urm2z637/WxfT0YuL9AwsD86qi0D3Jb0UIE2YWswgTHlFllQO0NMNlF4fo6wuulZRY9t/fctKJHhZwcemgg376cQY+3gyGSUyiksrx/nWIiIjslAyG/vaN/OT2hVx04xPs85njueuuWzjyX3ejd/UyILKjtygiMmqqrBIRkRy9vfDb38JPfpK7NnUqfPvb/ul7sdhALmUAL4mzbg1mSwcUR8GCZ6CrBtY2+R84BpMJkkZiczvce7/Diy8M0/43Gy66yKWkhEyTnxn4Gmo0lVwiIiK7DoPxUmxY8xceeew5Fnz5DO6//UJKgf2+eDD/SPw3S1iPAisR2dWoskpERAKshVWr4NJLc9cqKuCww/wTABOJYeZUOU6wDRAwFoxnMcAUprAbu41ouLoXhz++arjjtuHb/775LY9588Bl4LfK9LOc5ZkwzGIJE2Z3dldQJSIi717JJIk160jGw/zrgo9SgkecJDgRTEktaG6jiOyCVFklIiIB69bB1VfD6tXB10Mh2HtvuOACcN2s9r8RSl+ePQB9awywZh1cc43D5s3BteJi+NjH4LRv++1/lsHTjrIHqaerqcL6qJP3HEusv4d33nyTrrilrmkmc5o0t03kXSvkYCpLIWzo3tyDwRAijMESJrmjdyciMiaqrBIRkYzubnj6aXjkkdy1hgY45xyoq4PUGH5J6+BQSeWI5lV1tsP99xt+/7+5H1MzZlouvypF2PhVVQAeHmtZSwcdmfsbDJOZzAxmjH6zIrso6yZofvMPnPqlg/i3TxzIIYcczCcX/B+uuPWXGVvfHgAAIABJREFU9On/s4q8C1kIF1Pd+CH2aJzEf995O0++9DbJ7i0sf24JS//0PFC+ozcpIjJqCqtERATwq6Xeeguuvx6SQ/5PbUUFfP7z8LnP5a5lGDNsC6BjIX0SYBNNmdMAt8ZLwB9fM9x5e24FVt1Uy+nfdtl7brCpwWKJDXxlt/xFiFBG2bZ/cJF3C+vRunYFN198Ib9+w7L4l8/ywnO/4Rv/OY+7r/0e9z7x6o7eoYgUgIelpmEO55x3Dg2Jf/DFAz7Ch/bajxNOv5nVW/QZKCK7JvVGiIgIABs3wm23wbJlwdcdB973Pvje9/zvva2Nm/I86O8PvmSgvwRcYwGP5HbaEYyFlha44XqHtrbgnKlo1D/97xtfz426PDzixIP3wlBM8TafJ/JuYm2S7p61rE9N4vSLF/LN//g44DEp+m3++vwfeP5vz3PyF/fTbypF3mUsQHER8w48kiXP/QtLlvxfumLFNH3k4/zkI2/yxP9n707jJCvL84//nrNUdVVv08vsS08zMyADYRFEQHZFjBqNQfKPkgTFFTVugbjEFReMIhE1aiIBjRKCJoiCRECRCCooIiIgOEsza/dsvXfXes7zf1HL9OnqnumeqYHpqutbnxH7VNV5qubFnOqr7vt+eABIPMuvUkRkdhRWiYgIo6Nw551w442V9y1bVhi2vmABZDKV90NhZpQZT+H2rNs7nCqEtA/rj7CMe4aFNNFF1z5fx/AA3HSzw0/urtz9b2U3fOBDAclk5ajYNGk2sIGQEIMhJMTFZSUrFVhJ3TBOjCPWnsuN33thsb4wZHS4j1/83/fozXfw5hNOVVAlUoMcDHu2redfv/AVmo95OVe87m0AbLG7uTHcAo5+5RORuUf/comI1LkgKFRT/dM/Vc6iam2Fiy6Cl7xkH+1/E03R3WeLWwZ6eDTTPP1Tc/DQbw2f/kRl+9/8BZbLLgs48bip9zQyGByccnuhLd6C8lQrkXpgym2wYyO7ueO//4UPfuQrbBuxvOpNH+BNF572LL8+ETk0DH7oMdbzMN+49QFWrV3BGUs97vrhddzftRUuWAsatC4ic4y+YBMRqXOl9r+nnooe9zw4/nh45zsLrYDTtv9NZKY4Zi0G6KSTJMkpAyQX2LoFPvFxl3Q6el8iYTn7bMslr7NM9RIMhhFGKoarJ0mymMUzeNEitcfz43Qf9Vxe/8a38cZXn8/v7/4vPv3NO/aztYGIzEWWkNZFS3nTFe/j+I5+XnPeKZx44um8/zP/yaiZx5TfJImIHOZUWSUiUsfGxuAnP4Ebbqi8b/FieNe7Cm2A07X/zUSh2qmwM1+SJPlJtVEGGOiHb97ocP990bSr1P53+RUBzU1TV1UBjDLKAAO47K3KihNnIQsP/IWLzGHxhmZOPv3POPn0P6O/72m++vG/4/prruGFZ53F87u1M5hILbFA6HusOuUl3HDHWv7v3gcYTTu0HLWaG567gdv4HdDwbL9MEZFZUWWViEidshaefho+/OHK+1pb4cIL4ZWvhGx2hid0DThu4cRFJgQvKFQ/TbcDYJiDRx6Fa6+ubP/r7LRcemnI806ePqjKk2eIoXJFFRTWa6Y5El6J1DxrsUFAEERrEBtbWjjxzBcQpkZYvzU1zZNFZK4qfc2TN9DSvooL/+JiLnntazjppCNxTYgqq0RkLlJYJSJSp7ZvL8yp2rQpetzz4Jhj4D3vKfxsZ/QZN8AMjmCGBsF1wYI1kG2EXfOhkQSrWFXxLEOh/e9jH/EYGo7eF49bXnCG5T3vDqds/yvJkmUzm8mSjYRiS1iyzxlZIrUmzI7xh5/ezMvPP5cv3PpA+XhqdIwnHnoUJ9nEEctVXSFSywJypMiRLs6omkkHv4jI4UhtgCIidajU/nfTTZX3LV4M733vLNr/DGBDTP8gZqAffJ9i5x/pZti+pHCxmWpXvsE9Djd8g4r2P4CuLvjolSGOO31VVWF5g49fcXxyu6FIrTOxJC1dx9Bm9vDZy99JQ/ZjnHpEOz/93jf45//6KS9/68c4aYUCXBERETn8KawSEakzYQjr1sHHP165+19zM7ziFfCqVx3AnCrHKVZVFZMqC8Za/MDQxkI66YwMVw/SPr98AL72tcpTzV9geevbLScc6xYrpabe1a80XH0rW/EmXNIaaGAlK2f5BkTmNmMclnQfxZXXfIGPfugDvP8Nf0lgXBrbF3HxO/+RD/79pcRUUy8iIiJzgMIqEZE609sL11wDGzdGj7surF0LH/rQzHb+c929RVRhbuqJGKXh6snirRRWObksjz30Q/7x3feye9dVQKL8nHgcTn+B4S2v380Pb/4m33so5ONXXs7ixFT7CBYqqEYZxZnQ2e7i0krr/t+ESI1xvAZWH/9Crv/u/7F5w3qGsyHzOhazaoU2GxCpFx5+8Zc8g4tHYc9dB82uEpG5RGGViEgdGRmB//1fuPnmyvuWLIEPfhAWLJimqqr4GdfxIeZaxscybN68G4xL2/xOOpqaCtv3TWIweHiEWAwuTi7Lhod/xscvv5x1W1bie5CbUOF1xGr47OeGePju/+SKd3+GxCl/Qz4wVJ65EFTtYAcZMjg45SHrbbTRQssB/R2JzH2GeEOSNccc92y/EBF5hoX5PLsHdjKWzrLHpEjZnbgMYxtCwvkJ9OufiMwV+tdKRKROBEGh/e+aayp3+GtpKbT+vexlla2BZQZc3zLe38s3v/EvfPO/b+Opnl7AZcWa43jNmefxtiafRpuHsDDKygkgbmOsZg2uNQwP7OBH/30DX/7yV/jtxoCmpnkMDe1dYsGCPK+5cD0/vvlqrvrnmxmhmec1J6bKwIBCWLWLXaRIkSRJSIiDo7BKRETqjsFhtHcbV1/xNv799gfxEzEca5hvDbY5TvaMZfC2U3FOjz3bL1VEZL8UVomI1ImdO+GrX4U//CF6vNT+9773FQqj8vkpC6Rw3JCBrU/xqX+4jG/du4lXX/JGPvDpM/EyQ9x/53e49j8+z1PHncmXzjiJhMkTAEMtlnE/xBAShuM83XMXn/6nb/P7ng+QbNwJ5lfl8zc2wlln99O9/AY+ffUD/M3ln2LgiXv4/XBq2sYFg8HBYWLdlS3eRERE6k0Y5MlmQ0558Wt4y7tfyVf4FfcHG/HWDRG7/jc0XNKPe/0ZcOaz/UpFRPZNYZWISB0YG4Mf/xiuu67yvmXLCsPWlywp/JxMTnOOgd3cffO/cftv+/jSzd/lr889uXzf2aecxHENMd573e18b0UXr+3qJBPm2LLM4CWaWU07ruuzYMlZPO+8F/DY9W3kgq+RKE6hcl047jjLZz7XyPKll3D+he/CTaf58ifv5nfDAS2NhUqt6J5/hhHG2EQPDi5Q6FRsIMZxrD7YvzIREZGqcoDJNU2lYw4TpzdOYoA4kZFTBvDdwjSqyZ37juuzZMVzeP5ZL+A7pMgSkj0nQeqcRdi33MVvPnsP2098BUua9KugiBy+9C+UiEiNK+3+99GPVt7X1ARnnw2LFsE998Add0A6PeVZyKa288gD/4eJ/SU///7JPHRrYdaUMdDuJ3mJcxpff9kQy5sbIAgwBnwDu7a28uFrFxFkXXbt6ub22yG0u3GcPBQrojzPEoaWr365gSBci+fBcH8Pjz7ssytjuPzt0OS7ROa+W6DdoeWyDPEFhfO4WHKDlht+ECP1cHX/HkVERA7GyDx46C+ACePkxsYtd9xnGPxfCIpfvExkgTYDFyUNxyf3plV5C7t2wPAmOKqrcq0wyGGx5EkDGTAudvFCxl67mqeufohfP7GdV56yourvUUSkWhRWiYjUuL4++OIXoaen8r6xscKw9W99C+w+O+eyOO4Wks0p3OwpfO3a6L1Lmw1rL2jhr844BoZdyFlMzGKt4dFfNXLH1QYmjkif1GaYyRgefNDw4IMTDhqDH/dpTsD1XzGVTyKk8+hx/vbSHEkMeSwmNAz2Jvj2lxrZ9dD+/mZERESeQUuBo4mEVZkUPPRzeOjaqa5zxac1w5+8GI4/BUgBLgwHhn//muFzl8HLXurw8lfAaacaEgZisWmu6XGHsHseY/E+Nm/YAgqrROQwprBKRKSGjY/DT38KN9ww9f3WTrPzX4UAxx2hIeaQzlYOLjcGfC+AdAbCBBgwjiXIemz+2UqY4tvi/XEMNMQtxhTaI8JJ98dbsqx+0TbmL+8nQwNgIYD+vg72/G7ZrNcTERE5pKbqAzRTHJv8tGIAFRnHaArX3uEBw003utx8E6zosrziJQ79fZBcWXj43qdYcMA2xghNwMjuocnLiIgcVhRWiYjUsE2b4MMfrsaZHKABY0MMlX2C1hpyoQcxH/IuZPMYCz4hXjJXjRdQwTgWP5nDThyuHhpy4z7G0YB1ERGpbRM3QwlDeLrH8MWvOjQ2Gl6yGLKDkJw34QnWYjJ5wCHePO2ELBGRw4LzbL8AERE5NLZtg6uumrr9b/Zi5HMrGRxtwos9Num+kJb4GMd3bOS/f/kgNzy+Aet4pBKG39lWNt27jyonW5h7NZXQQjprsLayqgqgoS3NqgvWlaMqh5BgwOWJ21YRZPRdjIiIHGZCIDvpmJ3i2OSnWchO8ZipWv0cF4wH937f4e8ug+07S/cYyIHpHSGZTbJitVoAReTwpk/zIiI1aHQUfvSjwjyqmTAGmpvh9NMhkSh8QxvlYlhE/47jePyp/+H4Uy/mT9YsJJsG13U4oTUglf0tH/vFI1xw0gLwHPIxGO1ooDnXzsDk01lLenwcNzbE6S+yLGyx2En9DdnxgCcf62dPtpkL/syS9KOPSC6ExUshWzwaAsQtJ5wQ0v0KCKce/SEiIvLMs5DphEe6oG/CYT8O3cfBMX9hCalMnyzQ6UPXUmBSobKZ5jrnOmBx+NH9Bu7z4UIX8DF79pC8fRNrVryAU45TWCUihzeFVSIiNSafhyeegKuvnvqbWCh8wJ0/Hy56NVzwYjj2aIjHYckUOwqVBfN5+rG/4R1vuZRN/sX8+SUf4vwzT8RNDfPL277Lmz/8M5o6j+Sdx67BBDkIDeGYQzZXWRfV1prgVX92NmtPXc6Ffwsrm0Oi9VOG0aFm7r3rQtYNd3DZG0IaJtVX7WaY/2SInbh4WCyGlrYkH3rrfFa9ddZ/bSIiIofUFuDdwC0TjjU3Gf7fqy1XvhogmPqJwxZ+HMDDeWjMgLW0GI8L/19I3wmWe+6Exx+fmFxZMGMYhmB8BLM7hbtuJ/GvP0Djz4Z5/hfOoqvFP1RvU0SkKhRWiYjUmP5++M534Mknp76/vR3e9EZ4y5uhexVkgzQbh/7IusHtbNg4j0XJRXS1rSQWgzCAbK7wza4xPkuOPpWrr72Oqz72Md7+2ldhvThOAL7rcPrKo/nIC06lK+lCkCMdODxx+0r6ftcUWb+hwXLuixr50r+9lGSisLF2rqLRzxJvbePlF70ViyUkH/lC2WLZxiC7GMDDpzRCtiFsoi27mKyd9iO/iIjIM85YsAZyMSJ7joQUCqZCYKr9TjzAx5DP+ezesZiR1CKSiVGS81IcdabDtW+2DHw44IZvOlzzWZe+HYDppyHxCRbmvwL/APxDYbpjbkkr2avOhwuXH/L3KyJysBRWiYjUmKEh+MlPKo87DnR3w9+/F95yWcD6gaf4m+9exR92PcVvtvy68GnZgwa3gaOXHcPa9qN52XNeyWuOezVhDtJ5sLaBNaecx7/dcirrHvsdf3h6Ozg+3X6Sk594GHIpyAXggsUQ5l0mb8XdtRI+8KE8iURFR0OF3DSPCAkZY6z4UyGoMtbQaBM41kzRSCEiIjJ3OICbg62PwYNXNbLnkZexeV0zeQpZlx8PWHFnhnnPheP+0vD2ywKOe67lfe9dxCO/uZpMfDe0p+CSR+D5m7GdbeSO7qSlPUmOaYZFiogcRhRWiYjUkKEhuOMOeOSR6HHHgWOPhW99C1asGeRLv/wWV91zFTt299LY2sj5z3kxR81/Di3+PJ7a8wRP7voDNz74bW577DZ+tulePnr2R1iQXEAmD9k0OG6Stc87jWOfRyEr2r4DHvsV5IPCYhYy2xp5+kerIq9j/gLLWy4LOOkEDuqjcpo0G9lIjhweHiEhDi7LwxW02CQZzasSEZE5ygHy/fDLrzvc93mXPbugLRbjT458is7O3fhenp397ezsXcgvv5nk8VsNp77B4fxPBNx6S5x3vudMvv8/gDcCL2iCl/0GiANZDDn0lY6IzAUKq0REakQYFnYAvP76yvsWzIfL3grzujbzt7f8Hbf99gfMb5nPJ//8Kl6z9rV0ta3ALV4RLDCcGuZ7T97Ktfd9ka/f8zV+ufkXfPnPvsrpy59POl1oD8ykKBRNBRncnk3EMunCMCwLgQND8wzbc8nya2hIWM48y3Lp6+2Uu/vNhsHgTbqEWSw5cvoILiIic5YBRnvgtjd7PPZjQ9siuOgzwxzTchfz+n4FTRT63D2H9FFn8+jul3D/NXDnFx02PWD48+vy/MMHcvzqlx69NoTMGIUGQwd0hRSROcR5tl+AiIhURyoFv/41PPpo9HhbG7z+Uvir1w3xnd/dwl2P3cUL157P9y75Pv949vtZ2baCfB5S6cKfdBoSbgt/c8Jf8z8X38KbznkrT/U+yTU//xyDqRH8CRmRBWyQxezohUwGTOGykgf6/AT9DYUHGwMrV8LlVwS0NHPQYdUww/TRh1ccrQ6QIMEyuwKrqioREZmDDBD2w8M3Ojz5czjuFSGX3JbnBZeFzFswDlkHxhshlcCOJYg1+Zz0t3DxrXnOuDRg0yNw32dcTlgLX/nXgKRl//32IiKHKYVVIiI1YnAQ7r47esxxCiHRG96Q5w+7H+Nz93+G5fNWcOULP8Vpy08jlYZMvjI8yoeQzTisbF3B+86+gjNXncP9j9/HNx65Aced9GBjwJ0wm8qx5EKH3p8vZeSJdgA6Oi2vf33IqaccXPsfFKqqUqQYZhhnwmUsZmO0hx0HeXYREZFnngHIwZZHDb/8vMv8VfCizwQsOdmSsoYg4xL5NsZAEELGhfZVcN77QrpPsvzubsMTNzmcdKzlpS8ERvQNjojMTQqrRERqgLWFyqqenujx5mY47zzwO7fzmXs/jx0LefMZb+XU5c8jM9W2Q0Wlj7aZPCxOLuOj51yJ0+zw1V/8C49uf4yYt/dxDgaPyQnW3pPE45bTT7O89z3hQVdUAcXdAUPMpMHtDk65ykpERGSuGd8K93/SJd9gOetdAYuOhvQMnpcHGlfAOZ8KSKQN93/ewc8aLn0XNC7RdVFE5iaFVSIiNSCbhaeeKrQBTjSvFc47zzKeH2Pz6Gba2zt51ZpXF+ZdzJC1Lis7l/CiIy4gO5Zh2+g2TDEnslhGTZpet5fJl5TSY5avgI98PMD1Dr79DyBDhg1sYJxxXFwsFmMNS8PlzLed6ngQEZE5x4aQHoWxrdDRAateZWdViWw9WLgSus4NGU7B2A5YewKcdb7CKhGZmxRWiYjUiCCA3KSkpjEJa5+TZf2edazb+SSndD+fJa0Lyc2yF6/Vb+XclecxwAD/u+F2oFQ4ZcgQsMfZQ+SSYiyOCemcb3nzW0Oee8Ks8rH9CggqqqhcHFxd1kREZA7Kp2H7Y4Y9vbDqXEtT6+yvm/486H6xJT8AG+5wMAbi/iF5uSIih5w+1YuI1IAwLLQBTmQM+DHIh5bQWmLEWd6ynAY/NrsPwBZiJs7y1hVYzxLYCc82ebyxQZY9nQNv7yWlfzzO7U+u5rgT4e1vDwuD2A/mDZaWwzDKKJvZHNkNME6cleEqjL5AFhGROcQBYhSukaEFE4fWLos3yz3bLeCUnmvBFr+UqkZFs4jIs0FhlYhIDchmoa8veszzoHM+JJIGGxqsCcmFhdKr2Y5bDbFkgxwGMMUd/4wBa3JsHdtGODYME+ZWZXMufnsTH/oEJOLVr6pKEU3mjDUkbWLW70tEROTZlErDE3+E0WEKu+2GEGQP7FzWFp9rypvziojMWfpnTESkBiQSsGZN9FguB9u2wsiQxXFDjHXwnUI/wGwLkBwMMdfHYskFORynUM31s3sNX7rWp6FpQkwUwNJWy8c+kuP0Kuz+N5HFkiZNQIDBlFsBY8TxbUzj1UVEZE5JjVsef9QwMgSuB9YBN3Zg5zKm8FxrIdAARxGZ4xRWiYjUgDBk6t39DMTjMbpau1m5oJunB58mCO1Ue/dNz0DOZukb7aPVm8f53S/GAlu3whf/PU3DczbgudGapkQCjjx2luvMQI4cT/M0gwyW2wCNNSy0i1lsl5NTaZWIiMwhxoFYAzTEoHOlpXMhDK43s27fMwBZGO2F+DxYeb7FUGgxFBGZixRWiYjUAM+DBQtgyZLo8VQK1q13aPSbaXATPPDUL3hw60P48ZlXVxlgZ3oH33jkOuKZOEublzIwADfdBL/+bZ6lR49gw2hKZEMI0tWZUxV9LQYPDzOh4c9iyZOvGLguIiJyuLMBjO2CjRss8SaLceDxnxp2PDG7oMlQ2AHwkX9zCYuzq8bHYcPmQ/XKRUQOLYVVIiI1wPOgqwvOOCN6fOdOuP7fodlr4dyVZ7NjvI+v/vpLjGVS+DO4AhgDGTvCHX/4MQ/0/ILVXatZ0bqC3z8Kn7va4iUCTDzATpwWZSmUegXVHetqMGTI0EtvOayyWFw8FodL8KxRXCUiInNLCL1PG67/12JF1ItChnvh119yyOeYUYWyAYIheOw2w9ZHYMXRFrfBcuct8Nt79eueiMxN+tdLRKRGtLTAOedEj6VS8OCv4NEHO3nDyZdy4oqT+Mnv7ubGR2/Ei4G/j0/BrgO+H7Ju93quuu9KFiUW8YGz/5H84BI+9BFIk2PJyVs5sWUn3g6v8InaWqxjsAvmYxcvotr7EOXJs5vdkbDKYOiwHcxy4yQREZFnnwtjnuXeRwyPbTOcdlnAkiPh4dscnrjF4LPvX9gcwAtgxx/h5592aV4O534sYCgD132ZwhaDIiJzkMIqEZEaEYsV2gAbGqLHe3vh89eAN7KCT734E4z6o3zgjiu4/M4rGM4OkWiABh/i7t4/iTik7Qg3PPwf/MWNf05qMMXrXnApxzafyXXXwf33A47F80PmjYKfJnpFaWqE5maq2QhosYwySoZMebi6wZCwCZpss7bnFhGRucmBbdvgs59yybUYLvhsHrvDcNvbXH7yEZcgCHFbMxDLgpcHL4/xAvxkiB2CX3/d4aZXeYwaOPPtAf5Sy1dvcPj9NqD52X5zIiIHRmGViEiNaGiA5z4XXv7y6PFMBu67D6680uOEpcfz5Vf9MwubFvPFu77AWd88g8/c+1l+te03bB3tY9NwHz3Dm/n+k7dz0c0X8ab/eT1j42O868Xv4M3Hv43rvg5XXVU4b6ItzZEvXw+xsNAvOFEYFgZxVFFISB999NMfGa4+z7axOFxGoOHqIiIyF1lIpww/+bHh01c5rDjJ8udfDojNgx991uE/Xpjg/puOZceOLkaHmxkdmsfg4DyeuC3Bf/6l4dbLXHJZ+NPLQ457Y8htP3L4wueqvcWJiMgzS10TIiI1ZOFCeMMb4Ic/LLQAloyNwQ9ug7VHt/L2y17PmW86i0/8+LN881f/zgfWvQ+SRK8IGfDzPqcddTqffOEnOXXxufzoh3DtF/c+xDgWP5nDOM9Mi4HB4ONXDFcPijcREZG5bHjI8J3/cnjOWnjDG0NWnhNy1yddfvPtBp585BQSnIJffKwFskAQt6w9z/LCKwM6TrD84A6Hj/2jgioRmfsUVomI1JBYDI45Bv70T+GWW6L37doFH/wQ3PNTl3/71yP5yiuv5Y3P+2se2f4kP1j3fawthE4tfisXrL6AtQtWcczSowmGFvCpTxUqqooPwTgh8ZY0ifZx8sHkD8V27wOrKE2aHnoICTEYQkJcXJaFy2kkprhKRETmvB19hsvf5XDPjw1f+XqeC7+W57S/ztN3yzrW3x0DJ4bFEm/KsuaVHm0vXc3yE/PsGYIPf8zlC1crqBKR2qCwSkSkxixaBO95Dzz+ODz1VPS+TAZ+dCeccx685U2NXHrJOZxx2jm847S3Rh8YwugQ3PU9uPZf4Gc/i97t+CFtKwdYclQv9lcTLiUWjGMwTS6OKR6oklECRhklLE+nsjjGstBvJLavSfEiIiKHAQPEZvC4VMrw/VsMf3jc5y3vCLn4onFWjj/MqYsfhURDYbddzyU87ywGnrOG/7rV4ctfdHng5+qHF5HaobBKRKTG+D6cdBJ88pNw0UWV9wcBrFsH//B+uPoaOPVUWLWqMGaqZGgI7r4btmyZeg0bGoKsRzLlcuS6YO8ERMcyZH3uuH8ND93ng6lOWOW4Ic1HjtL8ugFixgMsDoaRnY185bqFdOyCfFVWEhEROTRS8+C3fwH8yf4fm8/DE48b3vMOl3+9yvC58+K89Kg4pBuAkPG8ww+v93j37YbtW6b5lc6ii6OIzFkKq0REalAiAeeeC5/6FHzpS9DXV/mYMCwcv/XW2Z8/3pKh64xNNNgMXsbfe4cDIxmHW38Q4ztPGaBK3/K6IQtPG+NNlwwSMx4hhRlWY7sauOkLC0nvqs4yIiIih8xS4DnMKKwqCQMYHizOoSxdUh1IBYbHf2/YPs2XSgCuD80LYPDAX7GIyLNGuwGKiNSojg644gr47nfh6KOre24vnmfe8iE8AuykQMoxlkRDOM0zD4zrwbx2cHGwxdZCa8E4kGjWtCoREZkDHGbWBziJAZyJv7XZYkvhPs61bDF8/qPwp+c+M5ugiIhUm8IqEZEa5vtw+ulw112FKqsjjqjCSY0l3pKhbfUAAc/MrKiGeWnWXLCeBiddbAC0MAqb7u9iaHPrM/IaREREDnft7Za3/V3AbXfmedXrIP1svyARkQOkNkARkRrnOLBsGbz//fD618MNN8C3vw1PPnmAm/ZZi+OnWHDCDnLjlZeRMIR0lT8dG8fixrM4EwY1krE5AAAgAElEQVS22wBGB13CvIari4jIHBAC2UnHLJDb99OshdzE55ni04rP833LqtWWF7/YcukbQ44/tnB8M2inXBGZsxRWiYjUCceBxYvhgx+Ed78bHnwQ7rkHHn54tieCpiMdnNAtt+SVhZDw4HnPh+FV1Wo9sJj2HO1dY+SLBcEW8HyPk49qIfHSKi0jIiJyCKU64YkVsGPCMS8GXUfDkS+tuKIChevd/FjhS6dyqBVCzMLqo+DiIy0XvzbPKSdDR0shD5s43kpEZK5SWCUiUoeSycIA9nPPnf1zs2T4HRu4NTfC0o0+bbsoXE2sBWvoWNLO379/GX+fCCl8bD5Yhl0M8022MISHVzxrY2MDb3xFN4teUYUlREREDrEtwN8D351wrLnZ8Nq/slz5VzDt1n3DwJ0WfmMgAYTQ7Fou/mvLxWcXAq2AQkglIlIrFFaJiMis5LH0kyUfBjSkY/hZ9g6MNWB9n7ybqOK3upZBsmQLpy9Xc3l4WI1eFBGROWKqjr/Ssak6BEv3Gwt+jsiUSAvk89PGWyIic57CKhERmZWAgHHGcIwhdIj2GlgLoYUgnLKd4UBkybKRHoYZJkGCkBCDYRnLWMziKq0iIiLy7JquDXB/z1HLn4jUIn0lLSIis5ImTQ9P4z5DOwEaDM6ky5XFEmhsrIiIiIhITVJYJSIiM2axhITY4iyqcKqriA3Z/3fBM5chwy52RQIrD4+FLKzaGiIiIiIicvhQWCUiIjOWJUsPPexmD7HQJzk+6QHGQEMCHJdqBFYGQ44cO9hRDqssFgeHRSw66POLiIiIiMjhR2GViIjMisFgCYmnYPU6ClNhDWAt1nUIu7shnqQaYVVIyCij5MgV17UYDIniTUREREREao/CKhERmbEcOXazm2nHuVoKQ9arJCBgG9sYYACvuCeIwdBJJ8tYVrV1RERERETk8KGwSkREZixLlq1sxVDo+LOHeAsiBwcfPzKvqjRcPSzOzRIRERERkdqisEpERGYkJCRLljx5zDN0+UiTZhObsMWWwtK8quUsf8Z2IxQRERERkWeWwioREZmRgICd7KSPPjy8Qnw0ZWVVddsABxiYcOZCWDWPeZFqKxERERERqR36pC8iIjNiMHh4GAzGghsU/kQCK8cBz6vamqVWP1NcxGBwcMo/i4iIiIhI7VFYJSIiM5Ihwxa2kCfABIYle2D5VsBn71D1lmbC1auqtmYvvfTRh49fbgVso41VVG8NERERERE5vCisEhGRGcmRYxe7CAgAcMNiZVWJMYXKKrc6s6SmG6Tu4GhelYiIiIhIDVNYJSIi+1WqaprYfmeZYjdAW/6fg5Yhw0Y2Fge6m/K8qhWsIEmyKmuIiIiIiMjhR2GViIjsV0jIIINsZjM+/jO2ZopURWVVjJgqq0REREREapjCKhERmbFylZOBvMfe4eoGwEIYQHjwlVUGQ44cGTKRXf88PBppPOjzi4iIiIjI4UthlYiI7FepJS9NGoODm4e2fiBPIaiyFP5PSwvEG2BSNdSBGGCAbWzDwyu3ISZJari6iIiIiEiNU1glIiL7FRIyymi5ssrLQNfTYLIUwyqLxWCXLobmFg42rLJY8uQjxwwGD++gzisiIiIiIoc/hVUiIrJfISE5cpEB68FUY6OC6g1X38AGxhnHxS1XVi1nOZ10VmUNERERERE5PCmsEhGRfbJYxhmnh55nvLLJTtpZsLQjoIiIiIiI1C594hcRkX0yGFzcSFXVoV4vS5YBBiqGq6uqSkRERESk9imsEhGRfcqRYwc7JrTkQWggrLiCFHcDrIIxxtjO9khYFSPGcpZX5fwiIiIiInL4UlglIiL7lCfPbnYzxhgGB2MhnofkONGriOtim5qqsqaLW9FyWJqbJSIiIiIitU1hlYiI7FNAwDDD5SonY6FjFLo2QyRPSiQIVx9x0OvlyLGJTQwxhIdXnlu1kIUsY9lBn19ERERERA5vCqtERGSf0qR5mqcjM6ssYCtGWFkIq7MbYJo0WbKRNWPESJCoyvlFREREROTwpbBKRET2yWDw8Z+xtTJk6KOvXMllsXh4LGHJM/IaRERERETk2aWwSkREppUjx052spvduLjPyJp58uxiV7mqymJxcLQToIiIiIhInVBYJSIi07JYxhgjRWrvznwGAo/KK0gQVmU3wFI4VWIwODjl2VUiIiIiIlLbFFaJiMi0QkLy5CdUOYHJwcI+8Eq7AVqLNQbb0Q5tbUB4UOttYQu72BUZrt5BB910H/T7ERERERGRw5/CKhERmVaaNOtYR0iIwRTDKsuCXoufAgxgbeG/7e3QcnBhlcVWBGQlz9TcLBEREREReXZ5+3+IiIjUK4slYG9rn6HQlhd4xR/2PrDYAnhwbYABAUMMRY45OLTSGmkNFBERERGR2qVP/iIiMqWAgD3sYTvb8fHLLXkttHAE3RxsMDWVDBk2sYmAAIMpV3QtZSkxYlVfT0REREREDj8Kq0REZEqllrws2UhLnsHQQAyqPPDcYAiKt1IVlcHg4iqoEhERERGpIwqrRERkSiEhI4xgseWwymBImkY8N0EkrLIWgoOrtLJYdrIzUsllMLTQwmpWH9S5RURERERk7lBYJSIiU0qTZiMbyZApDle3GGBZfj4t/RbMhEHqnoft6IBJQ9Fno1RFNfFnKIRmtspVXCIiIiIicvjSgHUREZmSweBNukxYLLnMEGweBnfC9x2+j12xgsJ3IAe2G2COHDvYQZ48Lm45oOqkkyTJA3wXIiIiIiIy16iySkREKlgs44zTS28ksGqggeVmBbjupCdYCPIHtWYprMqRK1dyAbTTToLEQZ1bRERERETmDoVVIiIypTx5BhksDzsHcHFpo42DafebisGQJcs445H1PDxaaKnqWiIiIiIicnhTWCUiIhVy5NjN7klVToZWWmmmETi4YeqTWSzDDLONbZFKrgQJuumu6loiIiIiInJ4U1glIiIVcuTYzvZypZPF4mDooIN22sCZEFZZILQQHNisKtg7H2vigHWAgIAcuQM+r4iIiIiIzD0Kq0REpILB4OOXd+SDQiYV5PLY3u0wOFyYW2VtoSOwsx27dEnxUbOXI8cWtjDGWDkcMxgWsYgFLKjKexIRERERkblBYZWIiFRIk2YDGyKVTjHiHBGswgyNw/g4OMVLiDGQTEJrMwcaVoWEDDFEhkxkuHqSpIari4iIiIjUGYVVIiJSISAgRSpSWQWQIAmutzeoKgnDg2oDtFhCwsh6pdZAERERERGpLwqrREQkIiQkQ4Y8eYBylVOMGDF8DrR6ajoGwzjjbGRjJJzy8VnN6qquJSIiIiIihz+FVSIiEpEly2Y2s4c9+Pjl4510sJxl2GKIVWZt4c9BCIu3iVRZJSIiIiJSnxRWiYhIhMUSEFS05BXmV1kIJoVVxoDnwaSWwZnKk2cLWxhgAA+vPFx9AQtYwYoDfyMiIiIiIjInKawSEZGINGnWsa78s8Xi4rKKI4in0vDHP1JuBbQW67qEq44APwYc2NyqXPFWCshKa8aJH+S7ERERERGRuUZhlYiIRJQqq0qzqmzxZjCFdr98fuKDgYOrrAoIGGMsElQZDI00ll+DiIiIiIjUD4VVIiJSFhIyXry5uOXgKEGCecwrPMhMDqUObmZVhgw99ETCMQeHLro0s0pEREREpA4prBIRkbI8efawh13sKg9XNxhaaGEpyw7JmgEBIWG5sqo0H0tBlYiIiIhIfVJYJSIiZaUd+BycSKVTnjzB5F0AJzrAyiqLpZde+ujDxy+v2U47q1h1QOcUEREREZG5TWGViIiUZciwkY3kyWMw5Za85SyniSaC6Z5Y0Ro4MwYTCcZKx0JCHF2iRERERETqkn4TEBGRsoCAEUYIJ+zqZ7EkSODlgR29mL4d4PuFaioDtLURdncf0Ho5cuxiF8GkGKyDjnIbooiIiIiI1BeFVSIiAuwdrt5PPx5eudopQYLFLC6EU7kMZDJ7K6mMAd+DRMMBrZklyxa2RCq5DIaFLKSBAzuniIiIiIjMbQqrREQEKFRQpUjRTz8ubvl4nDgLWFD4wTjgTLh02OJOgDbkQBjMlBVU+X3NxxIRERERkZqmsEpERMpKM6omzpACKtr0qmWAAbaxLVLJ1UQTq1l9SNYTEREREZHDn8IqEREBIE2a9axnjDFc3HJL3jKWMZ/5hbjKmWKQehge0G6ABkNAQIpUZJi6wdBI44G/ERERERERmdMUVomICFCoqsqRiwxXB3BxcfGwYQjjqWgwZQwkEuB6wOwCqxw5trGNLNlyWGUwLGABzTQf7NsREREREZE5SmGViIhgsaRJs4UteHjl43HirGRl4Yd0GmfdesjlCyGVtVjHIezqgsZmmGWrYJ48e9hDjlxkuHorrSRIVPHdiYiIiIjIXKKwSkREgMJcqhFGMOxt9XNwaKGl+JMp/pnIHlALYImpON/Ux0REREREpH4orBIRESyWLFmAcpUTgIcXmSdVLQbDCCP00FNRybWGNVVfT0RERERE5g6FVSIiQoYMG9nIAAPl8MhgWMxilrL0kO0GOPG8tng7FOGYiIiIiIjMHfqNQEREMJjyDoAlFlsZUplJLXqWwm6AsxQSMsRQebh6aV5VE00ari4iIiIiUucUVomICFmy7GBHuarJYvHwWMCCQphkbSGUyuejgZVjIObPer08eXrpZZhhXFygEJh10MEiFlXlPYmIiIiIyNyksEpERMiSpZfe8nDzUqXTQhYWwqQQzOAenC1bwff3DlVvaiY8cvYzpiyWDJmK9RpoiFR3iYiIiIhI/VFYJSJS50JC0qTJki0PVzcY4sRJkNgbHVkLweS2QMB1Z7WewZAixQY2ROZT+fisYpV2AxQRERERqXMKq0RE6lyOHL30spvdkeHq7bSznOXRSqfJM6sADqASqjQja+8ZLCHhIRvkLiIiIiIic4fCKhGROmcw+PiRiiaLJU/+kIRHISF72MMQQ5Hh6s00s5CFVV9PRERERETmFoVVIiJ1LkOGTWwqh0YWi4PDMpbRQAMhYaHdz3P2VlaVcq0ghHB2lVUWyxBDjDASqa5KkmQ+86vzpkREREREZM5SWCUiUufy5Omnv9zuVwqtWmkttgVayAfQPwi5XCGwshQCq5ZmSCSYTStgQMAQQ5FjDg4ttFTtPYmIiIiIyNylsEpEpI6VZkUB5TZAg8Ep3soyWcymTZBKg2PAFuqv7OJF0NoGs2gXzJBhM5sJCSOVXMtZToxYNd+eiIiIiIjMQQqrRETqWEDAHvawla34+OXqqmaaWcWqvQ80gOMS3ajPzroFsHAqUx7kXjhLITDLkTuwNyEiIiIiIjVFYZWISJ2z2IpB6pN366sWg6Gffvrow8OLDFdfycqqryciIiIiInOPwioRkTqWJs161pMlG9mZbwUraKWVPPmqrmexpEkzxlikzdDHp5XWqq4lIiIiIiJzk8IqEZE6FhKSJl2eWwWF6qcYsUirHhhwJ10yLBDOfFZV4SmWHLnyfKzSej7+Abx6ERERERGpRQqrRETqVKn9L006UuXk4JAkOfGBEORhbIzI0CrXhaamWa2ZIcMGNpTXLM3IWsEK5jHvIN6NiIiIiIjUCoVVIiJ1ymIZZZRNbIpUUSVJcgRHTHikgdQITs9m8CZUWzXECVdNGMI+wzWnmo/l6HIkIiIiIiJF+u1ARKROlXblmzxIPSCYYlaVAcdMOmYhDJkpg2GIIbawJdL2lyTJGtbM8tWLiIiIiEitUlglIlKnsmTZxjZSpCLD1TvppIOOyByragkJyZCJzKyyWGLEqr6WiIiIiIjMTQqrRETqVJ48/fSTIoXBlOdHNdFECy1VD6tCQkYZJSCIrJckSZx4VdcSEREREZG5S2GViEidCggYZDDSBuji0k57OUgCCjPVXRfMpEtGGM6qDTBHji1sYZTRSCXXIhaxgAUH+W5ERERERKRWKKwSEalTGTJsYUtkuLmPz3KWR9r0yAWYHTsx42PgOmALUZZta8N2tMMMK7Aslhy5yDGDicyvEhERERERUVglIlKnSgPWJwoJKwKlUljF2Dg4xcuGMTBvHrS3w8QqrH2sNcYYG9kYWTNGTMPVRUREREQkQmGViEgdypJlK1sZYAAPr9z210knS1kanVdlAM8pBFQT2RBsMOM1nUmXHIslLN5ERERERERKFFaJiNShkJBxxkmTjrT8xYiRIBGdWVWl9frpZ5zxyLyqFlrooKOqa4mIiIiIyNymsEpEpA5ZLBkykWongzlku/IFBOxgB8MMlwe6GwzzmMciFh2SNUVEREREZG5SWCUiUodSpFjP+vLPFouLSzfdxIlP2g3QgBudbYW1kJ95C2BpPtbEcMxiCQjIkz/g9yEiIiIiIrVHYZWISJ2xxdvkWVEGU656isjlMbv37J1ZZS24Lrajg8JlZP8tg2nSbGRjOQQrhWNHcETFkHcREREREalvCqtEROpMnjw72EEfffj45QCpjTa66Z40r8pAJo3ZvCU6YN3zsMuXgZki3JpCaUbWxLAKIE48MjNLREREREREYZWISB2yWPLkK4KiKaucjAF3cihlIZh5G+Ae9kR2HiwNV1/CkgN49SIiIiIiUssUVomI1JmAgEEGIxVUpfBoYqVVtVgso4wywkgkDGuggXbaq7qWiIiIiIjMfQqrRETqTJo0PfSUK6ssFgeHZSwjSbJillU1lNYoBWEGg4NzSNYSEREREZG5TWGViEidMRh8/MgxiyVHbtpn4Ey4XFgLoYVwZm2AKVKsYx05cuVwzGBYyUqaaDrAdyEiIiIiIrVKYZWISB0JCRlhhO1sL8+PAkiSpIuuyifkQszOPsye/sLcKmsLM6za2rDLljGTnQCh0Ho4ue3QxdVwdRERERERqaCwSkSkzuTJM8IIzoRLgItLCy2VDw4tjI7AeGpvdZUxkGiA1hZmElYNMMA2tkXmYTXSyCpWVePtiIiIiIhIjVFYJSJSR3Lk2MGOyE6ABkM77TTSWDlDylAIqczECigLNoRg//OmDIY8eVKkIlVUBkOSZBXekYiIiIiI1BqFVSIidSRLlj76yJApDzwvhVXNNFd94HlIyDjjAJGwKkEisjOgiIiIiIhIicIqEZE6UtqFb2JwZIu3QyFDhh56GGe8HI45OCxlKe20H5I1RURERERkblNYJSJSJyyWccbpoSdS1dRAwz7mRxlwp6iACgJmMq/KYCoqqCyWPPlZvHIREREREaknCqtEROpMhkzFsTjxqR+czWK2bd27C6C1WONgFy0GPw77aBs0GFKk6KMPF7d83MdnKUsP9m2IiIiIiEiNUlglIlInQkJGGS0PVy+1/jUUb1O2AuaymB07CwPVoRxa2fnzwfP3u2aWLHvYU247tFhcXDrprNr7EhERERGR2qKwSkSkTmTJspnNDDFUbs0zGBawgMUsnnq4ujHgutGfDcU2wH0LCRliiBy5yDD3puJNRERERERkKgqrRETqRGlW1MQqJwAP75AMWM+TZxvbGGGk3AZoMMxnPgtZWPX1RERERESkNiisEhGpEylSrGMdzoR/+n18VrFqdoGVpdAOuB8GQ4xYxc6DOXKHbPdBERERERGZ+xRWiYjUKTvhNiuGQjvgPh9iSJOmh55IJZePTzfdkQBLRERERERkIoVVIiJ1ICBgmGFGGInMj0qSpIOOqQOrAMzuXTjbesH391ZTtbQSrjpiRmuOMhoJq0ozq0RERERERKajsEpEpA4EBPTTzyCD5flRAM00s5CFU4dVFshlIZPZW0llDLgOJBr2u2aOHCFhOawyGFxcfPa/i6CIiIiIiNQvhVUiInUgIGCMsUj7XamyCpi+FdAYcKa4VIRT7Bw4ab2tbGUnOyPzsDrooJvuA3sTIiIiIiJSFxRWiYjUgTRpNrChXOlksbi4dNFFgsQhGXgeEkbOazA4OJpXJSIiIiIi+6SwSkSkDhhMpMLJYgkJyZE7JOulSbOe9ZFwzMGhm27ixA/JmiIiIiIiUhsUVomI1LjScPWJLXkGQyONLGPZ9E80Blw3uvOftcUWwH1XYlksefKRcMxi8fBUWSUiIiIiIvuksEpEpMZZLOOMM8wwHh5QqLSKE6eDjumfmM5gNvbsHbBuLdY42GVLobkVyE/71BQpxhkvD3MvrddCSzXfmoiIiIiI1CCFVSIiNa7U8ldqxytxcAjZx6D0II8ZGoYgiFRX2aYm8GPTPs1gGGCAPvoirYeNNNJF18G/IRERERERqWkKq0REalyaNH/kj2TI4OCU2wC76KKNNvLTVkgZcJ2KQ/vbCTAkJEt20tMMPr5aAEVEREREZL8UVomI1DiLJSCo2PHPKd6qrTRcfWI4BtBFF/OYV/X1RERERESktiisEhGpYSEhY4yxla3leVUACRJ0073vJxuiw9WhMFc93PdwdYOZMgQLCGb4qkVEREREpJ4prBIRqXEBAWOMRQIkB4ckyemfZCm0++Xz0cDKGIj5+1xvnHH2sKc8XB0gRoxFLDrQtyAiIiIiInVEYZWISA2zWNKky3OqSv+NEcPHr2gN3PtEA8NDOE9vAn9CONWYJFyzZp9rjjHGTnZGKrnixFnCkmq8JRERERERqXHe/h8iIiJzVZo0G9jACCMkSJR3BVzCEhaxaD+teWFhJ8AIA97033MYDG7xNjEIK83NEpFDxwY5hvs28+tH/0DGujilokhjcF0XP9HCc9aeyOL26XfzFBERETkcKKwSEalhBhOpcIJCcJQnP31V1YRnV8yswrKvp+XI0UMPI4yUK7cmhmMicujYzBg9v7iNd/zdh/9/e3ceHtV133/8fe69M9Jo3wViEYvZbGwcsMHGKybEdtIsjZu6TdI0yS9p4rTO0ixtkjYladJsTpylrZs0TbPZzeLEdrwEb7ExdjBgMBjjsEqAEJLYtI80M/fe8/vjSkLCgAEDI6TPa57xg2a5cy7PY87oc7/ne2jJ5JETM2DAcQzJzjYKKy/mWz97kJsuL8v2UEVERESOS2GViMgIliZNE01D+lXFiFFDDYYjg6hXLyQkRYqAgDjxgUouD48Yx+91JSKvjkkUccGb/oZnrn1H9H+egSCTYuOzD/H3n/pX5v/5u1hysXbkFBERkeFPYZWIyAiWIcN+9g+EVRaLg0MFFa8cVh3raXv00iqDoYceGmkc0lzdw2MiE09l+CJyEoxxiOXkUV7Zv3mCpWnnNn79Pz8mPmUxn/nH91GUULtSERERGf4UVomIjFABAV10kSY9pLl6Xt/t+MsALYTHeP5lSwOHfmYbbQNBmMXi4lJK6as4ExE5FT0dB3j6gR/y0Ev7+cL/fI8phapuFBERkXODLq+JiIxQGTI00kgrrQN9qwyGMsoYy1hCwmO/OZXB2VEHnV3gumAt1hjs+HFQPQaO0iy9v4n64Iotg8HBOSNLDkXkOGzAvuYd3Pnze5l+7U28ddEF2R6RiIiIyAlTWCUiMkIZDDFiQ/pV9TdXf8Wd+cIQUqnDuwFaGy0LjMWi+1GqsgICdrGLgxwcaK4OUEUVk5h0ms5KRE5Eb2cr6x97kOf3Orzjr/6awmwPSEREROQkKKwSERmheumlnvqBny0WD49aaokTf4VlgAacI6YI2/+fY78v7LsdPkpUWeVouhE5iyxtrQd4+NHlVJ9/JUsum5HtAYmIiIicFP32ICIyQgUEtNM+8HN/OFVI4ZAG6KdLL73UUTfk8xwcJjP5jHyeiBydDVK0NW9jY30TC6+7jnGJbI9IRERE5OQorBIRGYH6+0eF0Qb2QFTl5OIO9K86LsPLK6sAgmP3uQoJ6aV3yBgAcslVzyqRsyidSrJjx0aau/OYc+HcbA9HRERE5KQprBIRGYF8fFpooZnmIf2jSihhMpNfYQkgUa+qru6hO/85DhQUHPMt6b5b/5I/gyFOnAQq6xA5mzLJHvZt2Uq8pJI5s8dmezgiIiIiJ01hlYjICHXq/aMM9CZx6uujnQD7xeKEU6dwtKnDYmmmmRZa8PCwWAyGUkqZzOTTc0IickJSqYCGxhRFhWOoycnN9nBERERETtoJrAUREZFzTQ89bGUrPj4eHiEhDg611JJP/ivvBmgAMyiUslGRlefFsEDA0Dbr/VVUMWKEBAPP+fhDAjMROfNKqsfyoS/dznsDh4qSWLaHIyJnkQHixAYtvneBGNGvfX6WRiUicvIUVomIjEAWS4bMkOV+/bsBurj4J/uF1YAf+Oyr30FXTgFTxlcz+EtvKuxle8cWWg7uo2RCGV7cYDCMYQy5qLJD5GxyvRgV1WOyPQwRyQI/3cvepl24+eU4ZYZ4Vxc0tuCRIKzKh/IitLhGRM4FCqtEREYYiyVNmiTJIUv+YsQopPDUDuq6tHa38p1//Dh3Zcr47n//iDfNnzwQeqWTSTbet5z7vrOM1//qz5gwJZcAKKaYOPHTcFYiIiJyPAZD654dfPEjH6etdB7zpvSw4Rf3Ud6SJGYMfk0h5i2z8f72NaA8W0SGOYVVIiIjTEhIBx000jjQPwogn/yT6B9lhjZXp6/nlQ1p3raB22/7FvN+eDvjChwCLL2k6LRduNYbeHWcGOWUnb4TExERkeMwOI5H6HfzyC/+i5VTJhF71yK6XpdP6PvElteT+73VPLEyjzX/fSmXTtYcLSLDl2pARURGGIMZWO43WEAwZPmfAWK4xI68WRcvY8H3+14FGAueS15eIbU1E2h9/vd88/u/wODi4WLxaXFa8Nz+sMpSQD6zOO+snLOIiMhw52CIH1Er4GCJ4eBgSBB72T2PGAkLbtqBHgs9QApMyhDzXXKBoZeWMvhkGDv7cm77+a9Z+Om3kZpXTmbBJJJ/fy2tdy3huUNP8+XPf5t2tbASkWFMlVUiIiNMihS72U0PPXh9/8z3948qowyDIUaMDAG7aWM3rYDLAZI8wDZsKsU1u1p516EOiHtgwcewu9LhoUlxzLQa0h0tFzYAACAASURBVDXt/Oq/vszuq9LkXlpOnP2EgNv3ldnBYT9d/C33kyKRvb8MERGRYaKbNM+xl6jhOYChC/gNf2QHh469HUleBufaJpw5cap64I2bIW4ttryVfA4whwoMBhuk6DrYREvLIS654R1cPaeKe1gDZAAPPEN85hTGv2cvDd97kmdebOb1F2s9oIgMTwqrRERGmICANtpIk+7bnS/EYCiikDg5NNHB79jOb9nCanbTRDvRbkEWyFAAOKHHu+zhXlMhcJAUL9ouwrx8et89m/wV9/Lgv/474f/dwGwC5mKJYrHIFlL8khcZum+giIjIaNa/Mx+AIQ1sYi+b2H3st8SBSTGYFL3vmwsdorl1PXm8xNVM4E3M5Bq/hlRTM/taAmYWlGLhiADMkshzmTNnOp2sZv2GFxVWiciwpbBKRGQE6d8FsJXWQVVVUXP1FDncziruYCV17Ot7xoMhDdBjOEC+edmhcTHkhoaU7xCOH0Pvxy6h+NaVhHfsZMIHZxEb9B4L9OKAdgIUERF5BTEOV1udKAM4JEmzjM08zBYqwgLmdW8l6Xvk2mj+tUMuGFmMAzmJfMJ4QGdX+2kav4jI6aewSkRkhOmllyaaBnYCdHDoIuCLPM8GOom+4J7i0jwDYCHXIXPFTLr+Yg9l31+Fd20ltuDwF20LpF7leYiIiMjxGKLKaBcL7KeHR7wDlDpptpttdOKTP+SClAFr8FM99PgO+XmnuEOwiMhZoLBKRGSEcXAGqqr6hYS00UN05XZw2ZQddA+BDKExdLlxGNyg3ULgZ+i1AZYMli6ogJ73nc/+1Y+ybemzOG+qwItHEVkPlvX09h3zKGVaIiIio0q0VH7oMsB+aWDQpiYn9L7+iqlB74l7mPHl2CrL8t61fJBHsCQZvOywpydk00vbSaRzmTlj2qs9KRGRM0ZhlYjICJIiRT31tNE2EFhZoBlD88tCKh/IYEiQIE4JuVxDLWUZyxX7dwKdgAvW4rgu5RXjuChWyiHGcSmX4ZkAai1dn6xkzQd/yuq9B8gtLCY0kCDOW5lKigIC9awSERGhF5+VNAxsbAKWOIZZTGAeY489X6Z93IYGONTKwSKXJ2oh4xpCx5Jye4k2eI+Ba7DVhdiaBN5DO3n65rVwQTkD1dShIbVrB9t/tIlFF/4liy6ZfFbOW0TkVCisEhEZQSyWFCkyZIZUV2XoX5YXVVC5BNRSyTuZzRKmcz5VuDgUE4d0K+y5BzhE/5dpz3WYMHEWr81Zz+ZgKj/mTwDwc9O8eFkZn33XYzz9tR2UXVqENTCVCXyWmzGaZkRERABooJ2P8jt200IUIFkKMLyZGXyeRcd+Y3c7PPk7WN1CWJggVRySjrnsWXghd19dxTJe4ll2Ai4YF2s8vBcaqHrngyT/bi6919Vg/QzxFXXkfPs5zst5DX//2b+jPH7sjxQRyTb9FiEiMoKEhCRJDuzJZ4gW4iWB/t3+KknwCa7hPcyjkjxS6TR1Tbto7jhITiKXigxM9pPEnKFLBoMgTWe6h26bohNLIT4ZQjrLDTPeO5eWp9vYu78XwujKcC8Wg39Ec1cREZHRx9A/CwcMnltDDGlCAhvSmeqmo62DsspyPNfFAHE8cKCj1LJ+jmFvNYxrh+qk5QK/lAu4ko9xKb9mE19kOTv9RmwA6TfOJlMbkL/0cQo/FYIBvywHc90FvO6TH2LJ1Nos/U2IiJwYhVUiIiNIL73sYMdAc3UDBMBOQjxCZjOWT3INNwfnU9+0i6898Rt2HWhic2M9QRDgeS7GWmYmShkby2EJBbzeFmB9S2miig98+kv0kkMcnwDwyXDIHCIxaQyL73ozbU1pKsfmUkARBqOgSkRE5AQku7t57NFHWLdmLW+66U+5bN6l9OLzOHV8tXA5dTe2UJfoL4UyxEKoDdYxg938BRfzTi7mQsbwiZoEy78RxysuwR9bSNfHD+LVdYIxhJOKKRxfBhRk81RFRE6IwioRkRHCYgkJhwRE0VVcSw8hsxnH3fw5lck4P139W/73yfvY33GI2oqx3HTZa6mtqCEvN5ddexuoq9vM7zuaedpNso5u/sZWU+XmMn3GBVgsAT4WQ4oUu9mN9aBgfCVF46OG6jWMJ45LCj9rfx8iIiLDnYPBS7s07tjFhnXrmTBxAudNmkwLXdzOH/gOK+gxScptEe9c7zD9ABT4hs2lsH58Fw+O28dytvI49XyVJdyZeAefmj2Wu1gF+ITjykmPq2Rwr0qruVlEzgEKq0RERogMGfawh33sI0YMiAKsfYR0k8enuZz8toB/vve7PPbCs0yuquFjf/IRrp41j7L8ksMHam2lp/0e1hwM+Kmb5Ke08QIBn4llmIPF7/uSa/o+MyDAwRDi4xOSII8YMdVUiYiIvILAQnNrM6ue2ko8FuPaRYtoL3d4J3fxLJsZSw3f6Xw9b122g7JnXwIvBwjBuHRdO58Hx03kG/yen/Aka9nND7iJTzCfleygnoNHfFrIkJ1+RUSGMSfbAxARkdMrJBz4c4AlF4+PspCbes5j2Yan+cPm53nDvGv49ns/w1suWUxpfjGZ/luYIdPbQ6Krm6vcQr7OWD7qVNIQ9vLTLavp6OnE7fuiGxDQQAMHOICHN1DRVU4ZE6nFHzQOEREROZJDJhmwa80m9jTsYd6ll1AxYyLfYw0bqeMvWMDj/DXvs+dTlnEhbiEfSIDNh/x4jD9jFr/inXyYJWyjha/xFFMo5Xu8iUISoCoqETlHKawSERkhfHxaOXTEIkCYwBjeHsxh+96d/N+Kh5hYWcPfLLmJKVXjyZAZqJQCILCY/c3Q0oLxXEpwucmUck2Qy1MvreX+tcux1mL6bt7LCnQNwRFLEUVEROTlTAjlB+DiFx3GnzeJy6+9itXs4Q6eZRpj+RyLmUElPUBgjrwAZPGxpIAJFPERruAqprGCF/kR6zmfKt7MLKL9gEVEzj0Kq0RERoAQSztJXmIHhihMCrE4OFzMVNwunzv/8CCdPUnedc2bmFo1cWhINZhxwOmfHiyVOLwvVsX4WIJfrHqUun0NeHikSdNEE7bv8ywWB6ikilxyhlR4iYiIyFDxNIzfHVLe4TD5/Gm0Jny+wnIKCfgI1zCDcnpPIGxKEzCWAv6ZRVgKuYNn6CDF+5hLMUVEW62IiJxbFFaJiIwAPgHNHKSBZuJ9/aoA4sSotsX0pFIc7OpgfOUYLptx0Ykf2FqMgdKyKi6ZNIvOnm5a2qMeGP1h1eFQymJwqKKSHOLHPqaIiIiQ22uZWmcoKi6mdsok2knRRJJSqriR87AneNHHEvWonEQJ1zCJXrrZTQeTKeNqaoH0GT0PEZEzQWGViMgI4BJtRF3Q99W2fxleEYXUBpNpONBCfcse5k+dTWle8bGrqo7GWvJdj0vOuwBjHNZsexEAgxnoX0XfIwCBKqpERERemQU3MOQn8igpLWUTLRzgIEs4j1JyyZzkfFpCLouZQhsBj7ADALdvbhYROdcorBIRGQFCLD2khjQ1NxjixHH6l+gZQ0lBETH3OBvBGgOuy5DvttbihSFl+UXEvKhqy8dnP/tpoqlv57/+cKyIyUzRggMREZEjhFhSR8yQ1lhCG+L7PgZDDMNYCvBwT7r7YwyXsRQC3sA0rstHInKuUlglIjICBAQkSQ70j+qXQy4OLhgLxhCErxAjpdKYPY3gh1FwZaP32bFj8BO52MCPHu/7zDTpIZ9HX0AmIiIiQxUQZz41RL+CHT2KspiTrqg6/F5LhuCYxxYROZcorBIRGQFixCinHA9voMrJYumgnQxpTGiw1uK57vEPlMlgWvZB0BdqWcAYTEUlsYJCnNAShiEpUuxmNxkyA83VDYaxjKWIIgLVVomIiAyRR4wLqAaOnIsNxvTPpZZ43/MnGzk5GOJ9u/SGCqxE5BynsEpEZASIrqZmCAgGKp0MBgcX13UZV1HNtLG1NBxoJrDhEdVQg/QvAxz4OXosEwY0tx0g5sWYP202AQEddAz5PAvkkUeCnIHATERERCIhlm7SRIvzDMaCF0BoQ0Ibcj5VjKGKlzgwsMPuibB99xQBu2mjhBxex1QMDARfg8dw5FJEEZHhSGGViMgI4OBQSCEllAw0T7dYkiTZZ/aTG4/jOIYVL63lxYZtRzRGf2WtXR08sHY5yVQvpQVRg/Y22oYcJ4c4VVQrphIRETmCJWp2PolSKikEMmTihqZqaD3USkP9LgqIY7E8zSbW0jRQJfVKDODh0EIXP2AdMXyqKSBJhs0cZHAlVz5xLqb6TJyiiMhppbBKRGQEcHAoppiJTBhS7dRFF+tZT0FugsumzSGZ6uVXf1hGdyp5YoGVMXTbkBWb17K+bjPzz5tNVUkpdexgJzuJERt4aYwYVfoCLCIiclQGOI8yLmUcENCbC/VTIEmahrqdlJLgjUyniS6+y0q6SeOdwFztAB2kuZMNbGUPczmPMhI8wBZeZA8Qg75KrWpKuJpJZ/Q8RUROB4VVIiIjRA45jKN2oGOV0/dPfD31NCeauGHOlSyYfhGPbXiWh9avwMHBO/KqrQG8w41fA+NQF/by40P1VOYX8e5Fb8HNN6zhuYE+Vf1L/sqpoIwyfC0vEBEROapicrmOyYBD4EFzjWH7pJD69VtoeqmO93EJFzOJx3ie/2MjMZxjblsSVVRFi/7X0ci3eYbJlPPPLKKXDP/N2r5XGcCSwGEu46il+GydrojIKVNYJSIyQhhcPIqBPGzfTkIGQw89rGAFsSLDBxb/OcX5Bdz+25/w9fv/h4OdrcT6b9YjlvFxDrWDG6cLy69p42NBIwdcy18tvJHxNVWsYhWNNJJDDkBfXw2H8YyngHw1dRURETkKC+TisoAJVFAM+HQVGJ6b77A/7GLV8mco7XD4AktoJcYnuY+/4yH22xRu2oM0kInuJm3wAo9OknyNFbyNO8mhl1u5hnISfJ2n2UILDERdlhI8XsvkbJ2+iMhJcZcuXbo024MQEZFXz8WhkBgpOtlFAzFiA5VPhzhEyqSYn3sJUyonUneggYfWPc1zdZvY13EI13HJZHza99TRum4tz5lebucgP7dt5OcVcOuim1h8yeU8663kKZ4acmyAUsq5jsUkyFNYJSIicgwO0Xz9PE1sp5nQjZHMN8R8qH6+kx6T4crpc5lBFS+wl4dZz6/NbvbHuoin0qRiDocKYW+h4cFJKT46YSN3spISCvgcb+Ad4UX8tncjS93HwMTpr6pysEyjik9yJcXkZvlvQUTklRlrrX6rEBEZIQICdrGLu7iLNOmBvlQhIXHiLORyrrJX0t6R5KfP3M9dKx6ks6ebuBcj5nlYx4GceLSzkIXFNo/3l09n4rvez3Mlm3iAe8klZ2CJYUiIg8PlLGQxryXd19xdREREXs4Q7cj3ENt4O78igwXrUHEAbvpVyMy9Ocy9/kquvORydid6+TKP831WETVJjw06UrT/XwLLEi7iC7yWmaliXtywkWVPP869Czp57or+14eU4/IxFvFZrjrbpywickoUVomIjDAddPAwD7OKVRRSOPB4SIiPz1Sm8hbeQkGmkIYDzezYv5tnt2/Ehha6u8jb1cCCMIdqYkywMWxpIX94+zhWVu0mQ9dAnyuLJSCgjHL+grdTQeXAToQiIiJydA6GZrq4hfv5HRuBfLwMTNtm+ZN7QgoOBUycfR6LFy+mYmINLyUb2LT59zxs6yAeBxtSnHG4ITGHiecvZEZQQXr/IZYtf4w/rtpAusjjsTd4rLkUolDLZzZjWca7GDfoe4GIyHCmsEpEZIQJCWmiifu4j0YaiQ9qzRoSEhBQQglzmculzKOwv9GqBfa2wP/+ENJpcAxYy4HSkJ+9PUNzlUtiUFBlsFRRwuu4kanMzMKZioiInJtCLC+xj/dwL8/RAMQwIVQcgMWPhsxY75NfkM/8665i3qRpFDz6OGx4ERK5EIbguthFV9OzYAGb/riRp5c/xYGW/TRfkGDZjYa9NRBN7CETKeIbvJ4/4/zsnrSIyElQWCUiMgL5+OxgBz/jZwQEA83QIQqafHwCAvLJZwITKKGUMAypaOhi4c/qcFNhX1gFB4vhl++APdUMir0sSWA7FZQzhQyZgf5VIiIicnwOBheHzeznaXZC37J9gJxeuHCj5drHQ4qaffIK8xjrhRSFffOstVjH0FNcTEN3muTBdjrKDGuvjLHiSvBjEAVVAaWEfJDF/BvXZeEsRUROncIqEZERqpdeNrCBFazgIAfJIQeDGXje9t0yZMgQ4CXhmlUOr3ssFycGWMgY2DYL7v5T8OPgEQVWaeARLM8Q9P0EDDq2iIiIHE//r2AxhvaiipgQijrg4uct0zZbKloMdvA8a8EEPq3VUD/dZe0lhoPlg4/tU0oetzCff+RqCgddbhIRORd42R6AiIicGbnkcimXUkst93APu9iFizuwLND03XLIiUKoACo7wPGJEikLIdCVD71xKIgeYjuwCtiMIZpGNJWIiIicTtaB9hJYvsjw9FWG0lYwlsPXhSxYx6O9CDIDOVQUUhl8plLFV7iBm7T0T0TOUfoNQ0RkBHNwqKaad/NuXuAFVrOaRhoxGGLEBnYLBLAGQochBVIGiIeQB+wFngA2E4VYIiIicuYFHhyoPN4rQiCDg6WGct7La3g385hMyVkaoYjI6aewSkRkhDMYEiRYwAIu4iI2spH1rKeZZrrpBiDE4AM+MQZPDSGwD5+7yfACqCuViIhIVgydnyMZwCeHHOYwkRuZxl/zGiZTloXxiYicXgqrRERGkQQJ5jOfucxlH/uoo4697MXBwyVDFS3AfqLpIYqmXCqZxnhmcLSuGiIiInJGpdOwdy+0toLngY3WA5qqsdSMmc7bOJ8Lqe5b1C8iMjLoXzQRkVHIw6Om7zbAJMF7GmikP6zKtbA4qGUxb87SSEVEREa5ZAc8uQye3wcJD0Ib7dh77flww6Jsj05E5IxQWCUiItFV2t4eaNwN7qCpIScHJozL3rhERERGO2Mh7kOC6B4CroGYOkiKyMjlZHsAIiIyTKTTcPAgmEEd1mMxqDxuV1cREREREZHTSmGViIhEjAHXHfqYteD72RmPiIiIiIiMSgqrRERERERERERk2FBYJSIikcHL/0RERERERLJEYZWIiETCYzRqVYglIiIiIiJnkcIqERGBVArq66G1FTwv6lVlDNTUwIQJ2R6diIiIiIiMIgqrREQkCqdSKQiCl+8GGItlb1wiIiIiIjLqKKwSEZGI47x8yZ+10V1EREREROQsUVglIiIiIiIiIiLDhsIqEREREREREREZNhRWiYhI5Gi7/h1rh0AREREREZEzRGGViIhAby/U1UV9qyDqU+V5MHny0UMsERERERGRM0RhlYiIRLsAdnYOfcxxoLAwO+MREREREZFRS2GViIhE1VPOUaaEIDj7YxERERERkVFNYZWIiJyCkANNO/nW0s/w3R8/ku3BiMgx7G/ewze/8Alu+94vUQc6kREu9Gmpf4Evf/wW/v2u3w15Kkh18+JT9/Duv/wzPvfd/6M9pX8RRGR4U1glIiKRwb2prI2aq1t7zJcnu9pY9eTvWbNhx1kYnIicrJ6OAzx193/yr9/4Eev+uJ1j/98sIiNDSHdrMyuWPcCajdsHHg1S3Wx46l7e/d4PsbqjiBtvuI7iHP0aKCLDm5ftAYiISJZZC74f3fsDK2OiBuvx+DHf5jguefkFxBLHfo2IZEeQTrJ13eN84et3YHILKMpPZHtIInLGGRw3Rn5REYlEDgB+qpsNy+/jb//2UxS/5m3c+V9fY0Z5bpbHKSLyyhRWiYiMdpkMNDbCvn1RQGVtFFZVVka7AYrIOSakubGe//zmdxlz/mu50DbS3etne1AicrbY6B6kutm4/D5u/cinKLnkbfzwP75CTZmCKhE5N6j+U0RktDvekr/BSwNF5JzQsX8v9//gG6xprWLpZz9GuReQCbUIUGS0MI5LPDfGi2se5da//wwFC97Oj3/4LQVVInJOUWWViMhoZ8yxQ6nj9KwSkeEn6O1k88qH+f4D67n1tp8zYYxPV08Kxc4io4NxHAw+z//+13z4ly+xdlc7i+YZrP4REJFzjCqrREREREYAG2Zo2L6Bb/7nD7ny5k/wniXTMYDnuDheDDfbAxSRM85xDH6mm/Wrn2XcFW/jx//xBRpW3Mk/ffUHZLI9OBGRk6CwSkREXs5aVVWJnGPa9zXxq+99i6frklw4vZTHH32Ep555kr3tSfbt2szjK1bR3JrO9jBF5AwKgwBMnIVv/n9866tf4obX38SH3r6EB/7nK3z/3lXZHp6IyAnTMkARkdGuv2fVYMaAe7gOI9lxkOUP3sXv1rXy6c9/jrF5BkwM1zEER75XRLIilc7QvHc/ve1NLP3we8n4AWBwHPDrf8PfbKvjtjt+wZ9eVpbtoYrIGWItOG6cadNnUZXwIDGGt7z/46xb/yK3f/GfueTCX7Bgamm2hyki8opUWSUiMtr19sLWbRAAmOibruvClCmQ29eMNchwaPcW7r3nVzy7aTcEKZL7t7GlaR/lteOyOXoR6VMxrpZ/+cFvePGFDax7fj0bN67nkd/+hNdOr+bqm27hmUd/zg1zS7I9TBE5qxzGTpjOP37p3xif2c5n/uXf2JdU5bSIDH+qrBIRGe1CCFIhKS9NronjZGJADLzigcbriaIyLrv+rcz69cN86C/fyJ0X1rJ7yybshMt5xxuvyu74RQQA1/UoKi2naOCRkHRbE2FvFz4xxlSUZ3F0InLKjAHviF/brAXnyLoDCzags20fz/z432nd9Gj/AQj9FJ0pn60P/ZRP/9sUvvW5D1AYV92CiAxf7tKlS5dmexAiInL2dfldPHnoSZa1P8aXgp/yX+PXc9e4rTxSWU9rTpJ9ZZBfPZFCrxDjuBRXjOOKq6/B6zrEvvY0l77+nXzx859iVk1xtk9FRI7K4vu9dHX2UDt7PvMvnqFdAUWGqVQqxaZNm3j44YcpKSmhpKSvCrK3F7Zuhe3bobMzqny2NgqwcnOjn3NzIScHrCXwM3R1JTG5CQI/QxAEBL6PdVwmzJjDZRfOJuZZpl7wGqqLc7N70iIix2GsVQddEZHRxLc+25LbuL3+dn7S+BMCAqq9SmrCUvICj/pEB91uL91hF9ckruAfpv4Di8oWZXvYIiIiI1IYhjQ3N/Pzn/+cttZW/vzmm5k9axY0N8MTT8C6dYcDqX7WQk8PpNMwaxYsXgxTp2bvJERETjOFVSIio0iH38HdzXfz7Z3fpq67jsVVr+NPC6/nihWtjNvRQSwWo81NszW/nR9O2869xRtxMj4frv0wt0y8hfKYlhGJiIicTp2dnTzyyCOsWrWK66+/nsULF8LatfDUU9DaCjNnQioFTU3RcsD+JYCTJ0M8Ds8/D7EYXHstLFwIiUS2T0lE5FVTzyoRkVEiE2bY0LGBpduXEjdxvjjji3xg4gfIbeuB9L0QdILrUOHnUkEFF9fcwpum7OXLf/wXvlP/HfLdfD426WPZPg0REZERI51Os3XrVtauXcvMmTO5YuFC2LMHli2DvDx4y1vgwgujn3fvPhxWAUyYAJdfDtOnw2OPRffcXLjiiuyelIjIaaCueiIio8Te1F6+Wv9VCOHrM7/ORyZ9hNzQg5Zm2LsT4i6YENwQSuLkTZ3AG0uW8JOLfkJtXi137L6DlW0rs30aIiIiI4K1ls7OTtasWUN+QQGLFi8mN5mEhx+OelG99a1R8GQt+P7LDxAE0dLAiy+Gv/orKC6OqrH27Dn7JyMicpoprBIRGQUOpg/yoz0/YnXbam6uuZk3VL7h8JPGvHxHob7HDIZxifH8w8x/Ikkvt9XfRpO//+wOXkREZATyfZ89jY00NjZy8SWXMLm8HFaujHpVXXVVtPyvn+se+0DGQGkpXHcddHfD738PXV1n/gRERM4gLQMUERkFuoNunu98nsp4Je8Z/x7iTvz4b0inoyuzRUXkYbg8M5Vrci5ldcfzNNU9x9i8i9C2YiIiIqeuN5lkx6ZNeMAUz4Ndu6Kd/woLYcwYaGyMXtjVFYVQR15YGiwnB6ZNg0mTouWC3d1QUHBWzkNE5ExQWCUiMsJlwgy7endRl6xjbtFcJicmH/vFpi+Bam+Hu+6K/mwNhY5l4VTDikk+zyz/HnPrXgPeUZYkiIiIyAnJWMshoMTzmPjkk9FyP9eN5uK7746W+fVznKG7AR5NTk7UdL2hAerqoLr6jI5fRORMUlglIjLChYR0+B20B+3MLZ5Lwj1il6BjXantX3JgIQ/D3NYKEhNj7M3viZ5ztZmsiIjIqTKA23eRKOyfi4053EB98NI/cwLlzDk5UdN114XOztM7WBGRs0xhlYjIKOAaFxeXTJgZ+oTvw/790bK/WOzw40d8KbZAxgkBiNm+q74n8sVZREREXtngOfVE5ldrh1Ze9T8WRnP1cZcMioicAxRWiYiMAn7o41sfc+QXYM+Dysroamxv79DAqp+Nrv6a0GKxZMhAEEJfeCUiIiKnqH9e7q+mOvLno+kPqQoLX/k1IiLnKIVVIiIjnItLRbyCmtwaUmFq6JOeB+PHw9VXRzsQ+f7Lr8baqLLKxjxyQ4+pmUrIiYOnq7YiIiKnzFqs72NcFy8Wi+bg/soozzt6YGVtdIFp1iyYPfvox43FoLz8zI1bROQsUFglIjLCeY5HTU4NE3Mn8uiBR3n/+PdTnTOo6WpeXhRWzZ8PmcxRlx+0Zdr4XcM3SLfBpUs+BIUXncUzEBERGXlMRwexxx6ju7GRfW98I7UFBXD//VFgdfPNkEi8/E3WRheVjlZV1dMDmzZFf5448cwOXkTkDFNYJSIyCsScGEVeEU8dfIp7Wu7hgxM/OPQFjhOFVkcR2ICd3Tu4N/k4xbll5JaNgUTRWRi1iIjIyJXIyWHarFn8cds26g8donbcOCgqgm3boLER5s498YMFRw3SsgAABHpJREFUQdSDctMmKCmJKrNERM5hWsMhIjIKVMWruLX2VsbkjuG7u77Luo51J/zevb17+cq2L9LZ28ZHJ36EGYnzzuBIRURERodYLMaE8eMpKy1l44YNtBsD110Hubnw+OPQ0nLiB2tvh4cfjiqkFy2CsrIzN3ARkbPAXbp06dJsD0JERM4sxzgUuAWUxEr4Tctv2J7cTm2ilomJYy8TCGzA7t7d3FZ/Gw/sf4Cbxt7Eh2s/TMw5ShN2EREROSnGGDzPI5PJsG7tWnzfZ9acOVFYtX49HDoUhU4lJcc+SBhGFVWPPw5btkRL+q+4QrsBisg5T2GViMgoEXfiVOdUczBzkPv23ceD+x/Etz7VOdWUxkoxHO5V1e6384vmX/DpLZ/moX0PcXX51Xxm6meoya3J4hmIiIiMLJ7nUVJSQktLC1u2bKGsupox06dDRwds3Ah//GPUS7KgYOhyfWshmYS1a+G3v4XNm6Om69dfD/n52TshEZHTxFh7vH1RRURkpOnyu3hg/wN8te6rbOjYQGVOJQtLFlIej3YOyoQZtnRvYU37GsbnjueWCbdwa+2t5Hv68isiInK6+b7P9u3b+eUvf0lpaSk333wzVUVF8MILUcVUUxMUF8PkyYebrgdB9HhDA1RURBulXHMNHZ2dPPfcc0ydOpXa2trsnpiIyKugsEpEZBQKbUhjbyN3NNzB1uRWVrauxLc+1lry3DwWlCygNreWGytvZFH5omwPV0REZETr7u5mxYoVLFu2jJqaGhZddx2XzpsXVVg9+WS01G/nzqiiylrIyYFJk6C0FC66iMy4ceyor+fB++9nz549XH/99dxwww3ZPi0RkVOmsEpEZJTLhBn2Z/ZHP1jwjEdVTlV2ByUiIjLKJJNJVq9ezfLly+nu7mbuvHksed3rKC8tjXpTpdOHX2wM5ORggfbOTpY/8QQr//AHHMfh6quvZsGCBZSWlmbtXEREXi2FVSIiIiIiIsOA7/s0NDTwxBNPsHHjRsrLy7nggguYPnMmpRUVA6+z1tLT2cmLGzeydetWmpqamDp1KkuWLGHGjBlZPAMRkdNDYZWIiIiIiMgw0tPTw7p161i1ahV79uzBWoszaIc/a+3AY1VVVSxYsIC5c+dSVFSUxVGLiJw+CqtERERERESGGWst6XSahoYGduzYQRAEGGMGnnMch4kTJzJhwgQKCwuzPFoRkdNLYZWIiIiIiIiIiAwbziu/RERERERERERE5OxQWCUiIiIiIiIiIsOGwioRERERERERERk2FFaJiIiIiIiIiMiwobBKRERERERERESGDYVVIiIiIiIiIiIybCisEhERERERERGRYUNhlYiIiIiIiIiIDBsKq0REREREREREZNhQWCUiIiIiIiIiIsOGwioRERERERERERk2FFaJiIiIiIiIiMiwobBKRERERERERESGDYVVIiIiIiIiIiIybCisEhERERERERGRYUNhlYiIiIiIiIiIDBsKq0REREREREREZNhQWCUiIiIiIiIiIsPG/wcr3mLHdDyb5wAAAABJRU5ErkJggg==;connectable=0;" vertex="1" parent="1">
                    <mxGeometry x="6" y="4" width="816" height="819.42" as="geometry"/>
                </mxCell>
                <mxCell id="3" value="" style="endArrow=none;html=1;strokeWidth=3;endSize=7;" edge="1" parent="1">
                    <mxGeometry width="50" height="50" relative="1" as="geometry">
                        <mxPoint x="167" y="694" as="sourcePoint"/>
                        <mxPoint x="257" y="653" as="targetPoint"/>
                    </mxGeometry>
                </mxCell>
                <mxCell id="4" value="&lt;font style=&quot;font-size: 36px;&quot;&gt;H&lt;sub&gt;1&lt;/sub&gt;&lt;/font&gt;" style="text;html=1;strokeColor=none;fillColor=none;align=center;verticalAlign=middle;whiteSpace=wrap;rounded=0;" vertex="1" parent="1">
                    <mxGeometry x="112" y="710" width="60" height="30" as="geometry"/>
                </mxCell>
                <mxCell id="5" value="" style="endArrow=none;html=1;strokeWidth=3;endSize=7;" edge="1" parent="1">
                    <mxGeometry width="50" height="50" relative="1" as="geometry">
                        <mxPoint x="171" y="756" as="sourcePoint"/>
                        <mxPoint x="258" y="802" as="targetPoint"/>
                    </mxGeometry>
                </mxCell>
                <mxCell id="6" value="&lt;font style=&quot;font-size: 36px;&quot;&gt;H&lt;sub&gt;2&lt;/sub&gt;&lt;/font&gt;" style="text;html=1;strokeColor=none;fillColor=none;align=center;verticalAlign=middle;whiteSpace=wrap;rounded=0;" vertex="1" parent="1">
                    <mxGeometry x="181" y="710" width="60" height="30" as="geometry"/>
                </mxCell>
                <mxCell id="7" value="" style="endArrow=none;html=1;strokeWidth=3;endSize=7;" edge="1" parent="1">
                    <mxGeometry width="50" height="50" relative="1" as="geometry">
                        <mxPoint x="245" y="704" as="sourcePoint"/>
                        <mxPoint x="267" y="663" as="targetPoint"/>
                    </mxGeometry>
                </mxCell>
                <mxCell id="8" value="" style="endArrow=none;html=1;strokeWidth=3;endSize=7;" edge="1" parent="1">
                    <mxGeometry width="50" height="50" relative="1" as="geometry">
                        <mxPoint x="247" y="742" as="sourcePoint"/>
                        <mxPoint x="268" y="763" as="targetPoint"/>
                    </mxGeometry>
                </mxCell>
                <mxCell id="9" value="" style="curved=1;endArrow=classic;html=1;strokeColor=#FF00FF;fontSize=14;fontColor=#000099;strokeWidth=5;" edge="1" parent="1">
                    <mxGeometry width="50" height="50" relative="1" as="geometry">
                        <mxPoint x="314" y="424" as="sourcePoint"/>
                        <mxPoint x="269" y="432" as="targetPoint"/>
                        <Array as="points">
                            <mxPoint x="300" y="451"/>
                        </Array>
                    </mxGeometry>
                </mxCell>
                <mxCell id="10" value="" style="endArrow=none;html=1;strokeWidth=6;fontSize=48;" edge="1" parent="1">
                    <mxGeometry width="50" height="50" relative="1" as="geometry">
                        <mxPoint x="168" y="397.71" as="sourcePoint"/>
                        <mxPoint x="267.99999999999955" y="429.71" as="targetPoint"/>
                    </mxGeometry>
                </mxCell>
                <mxCell id="11" value="&lt;font style=&quot;font-size: 36px;&quot;&gt;t&lt;sub&gt;f&lt;/sub&gt;&lt;/font&gt;" style="text;html=1;strokeColor=none;fillColor=none;align=center;verticalAlign=middle;whiteSpace=wrap;rounded=0;" vertex="1" parent="1">
                    <mxGeometry x="76" y="375" width="140" height="30" as="geometry"/>
                </mxCell>
                <mxCell id="12" value="" style="endArrow=none;dashed=1;html=1;dashPattern=1 3;strokeWidth=8;" edge="1" parent="1">
                    <mxGeometry width="50" height="50" relative="1" as="geometry">
                        <mxPoint x="270" y="818" as="sourcePoint"/>
                        <mxPoint x="268" y="66.00000000000023" as="targetPoint"/>
                    </mxGeometry>
                </mxCell>
                <mxCell id="13" value="" style="curved=1;endArrow=classic;html=1;strokeColor=#FF00FF;fontSize=14;fontColor=#000099;strokeWidth=6;" edge="1" parent="1">
                    <mxGeometry width="50" height="50" relative="1" as="geometry">
                        <mxPoint x="331" y="348" as="sourcePoint"/>
                        <mxPoint x="271" y="388" as="targetPoint"/>
                        <Array as="points">
                            <mxPoint x="323" y="391"/>
                        </Array>
                    </mxGeometry>
                </mxCell>
                <mxCell id="14" value="&lt;font style=&quot;font-size: 36px;&quot;&gt;t&lt;sub&gt;0&lt;/sub&gt;&lt;/font&gt;" style="text;html=1;strokeColor=none;fillColor=none;align=center;verticalAlign=middle;whiteSpace=wrap;rounded=0;" vertex="1" parent="1">
                    <mxGeometry x="64" y="312" width="140" height="30" as="geometry"/>
                </mxCell>
                <mxCell id="15" value="" style="endArrow=none;html=1;strokeWidth=6;fontSize=48;" edge="1" parent="1">
                    <mxGeometry width="50" height="50" relative="1" as="geometry">
                        <mxPoint x="154" y="343" as="sourcePoint"/>
                        <mxPoint x="282" y="388" as="targetPoint"/>
                    </mxGeometry>
                </mxCell>
            </root>
        </mxGraphModel>
    </diagram>
</mxfile>